<?xml version="1.0" encoding="iso-8859-1"?>
<!-- Generator: Adobe Illustrator 19.0.0, SVG Export Plug-In . SVG Version: 6.00 Build 0)  -->
<svg version="1.1" id="Capa_1" xmlns="http://www.w3.org/2000/svg" xmlns:xlink="http://www.w3.org/1999/xlink" x="0px" y="0px"
	 viewBox="0 0 512 512" style="enable-background:new 0 0 512 512;" xml:space="preserve">
<circle style="fill:#FEB756;" cx="173" cy="122" r="112"/>
<polygon style="fill:#6EA3D3;" points="338.423,352 253.174,204.344 196.395,234 264.522,352 "/>
<path style="fill:#8CCEEA;" d="M396.673,422h14.66v-22.333c0-26.326-21.341-47.667-47.667-47.667H250.333
	c-26.326,0-47.667,21.341-47.667,47.667V422h14.66C187.323,422,163,446.323,163,476.327V502h288v-25.673
	C451,446.323,426.677,422,396.673,422z"/>
<path d="M421.333,416.914v-17.248c0-31.797-25.869-57.667-57.666-57.667h-19.471l-80.172-138.863
	C283.278,181.56,295,153.125,295,122C295,54.729,240.271,0,173,0S51,54.729,51,122s54.729,122,122,122
	c5.748,0,11.401-0.409,16.939-1.182l57.312,99.266c-30.369,1.608-54.583,26.819-54.583,57.582v17.248
	C169.398,426.607,153,449.588,153,476.327V502c0,5.523,4.478,10,10,10h288c5.522,0,10-4.477,10-10v-25.673
	C461,449.588,444.602,426.607,421.333,416.914z M71,122c0-56.243,45.757-102,102-102s102,45.757,102,102s-45.757,102-102,102
	S71,178.243,71,122z M249.098,217.284L321.103,342h-50.807l-59.959-103.851C224.571,233.562,237.67,226.428,249.098,217.284z
	 M441,492H173v-15.673C173,451.885,192.885,432,217.327,432c5.522,0,10-4.477,10-10s-4.478-10-10-10h-4.66v-12.333
	c0-20.77,16.896-37.667,37.666-37.667h113.334c20.77,0,37.666,16.897,37.666,37.667V412h-4.66H312c-5.522,0-10,4.477-10,10
	s4.478,10,10,10h84.673C421.115,432,441,451.885,441,476.327V492z"/>
<path d="M238.904,112c-5.522,0-10,4.477-10,10c0,30.826-25.078,55.905-55.904,55.905c-5.522,0-10,4.477-10,10s4.478,10,10,10
	c41.854,0,75.904-34.051,75.904-75.905C248.904,116.477,244.427,112,238.904,112z"/>
<path d="M208.324,78.667c0.05,0.041,0.101,0.081,0.15,0.121c1.902,1.495,4.127,2.223,6.321,2.223c2.928,0,5.802-1.296,7.785-3.794
	c3.47-4.372,2.736-10.563-1.67-14.095c-4.408-3.535-10.61-2.901-14.121,1.436C203.278,68.894,203.952,75.092,208.324,78.667z"/>
<path d="M264.52,412c-2.63,0-5.21,1.07-7.069,2.93c-1.86,1.86-2.931,4.44-2.931,7.07s1.07,5.21,2.931,7.07
	c1.859,1.86,4.439,2.93,7.069,2.93s5.21-1.07,7.07-2.93c1.87-1.86,2.93-4.44,2.93-7.07s-1.06-5.21-2.93-7.07
	C269.729,413.07,267.149,412,264.52,412z"/>
<g>
</g>
<g>
</g>
<g>
</g>
<g>
</g>
<g>
</g>
<g>
</g>
<g>
</g>
<g>
</g>
<g>
</g>
<g>
</g>
<g>
</g>
<g>
</g>
<g>
</g>
<g>
</g>
<g>
</g>
</svg>
