<?xml version="1.0" encoding="iso-8859-1"?>
<!-- Generator: Adobe Illustrator 19.0.0, SVG Export Plug-In . SVG Version: 6.00 Build 0)  -->
<svg version="1.1" id="Capa_1" xmlns="http://www.w3.org/2000/svg" xmlns:xlink="http://www.w3.org/1999/xlink" x="0px" y="0px"
	 viewBox="0 0 512 512" style="enable-background:new 0 0 512 512;" xml:space="preserve">
<g>
	<rect x="10" y="50.081" style="fill:#8CCEEA;" width="204" height="204"/>
	<rect x="462" y="317.921" style="fill:#8CCEEA;" width="40" height="144"/>
</g>
<path style="fill:#D0E6EF;" d="M406.492,321.753C413.937,300.576,418,277.805,418,254.083c0-112.666-91.334-204-204-204
	s-204,91.334-204,204c0,111.498,89.454,202.089,200.507,203.956l-0.052,0.044H462V321.753H406.492z"/>
<g>
	<circle style="fill:#657FC9;" cx="214" cy="254.081" r="100"/>
	<circle style="fill:#657FC9;" cx="214" cy="254.081" r="24"/>
</g>
<path d="M502,307.919h-40c-3.194,0-6.032,1.503-7.863,3.835H420.13c5.22-18.695,7.871-38.081,7.871-57.671
	c0-57.162-22.26-110.901-62.679-151.321C324.901,62.343,271.161,40.083,214,40.083H10c-5.522,0-10,4.477-10,10s4.478,10,10,10
	h113.422c-22.289,10.423-42.827,24.763-60.743,42.679C22.26,143.182,0,196.922,0,254.083s22.26,110.901,62.679,151.321
	c39.334,39.334,91.285,61.463,146.725,62.623c0.345,0.036,0.695,0.056,1.05,0.056h243.683c1.831,2.332,4.669,3.835,7.863,3.835h40
	c5.522,0,10-4.477,10-10v-144C512,312.396,507.522,307.919,502,307.919z M20,254.083c0-106.972,87.028-194,194-194
	s194,87.028,194,194c0,18.651-2.641,37.091-7.847,54.807c-0.281,0.955-0.407,1.918-0.403,2.864h-27.749c-5.522,0-10,4.477-10,10
	s4.478,10,10,10H452v116.329H214C107.028,448.083,20,361.055,20,254.083z M492,451.919h-20v-124h20V451.919z"/>
<path d="M214,364.083c40.395,0,75.768-21.891,94.895-54.428c0.126-0.188,0.264-0.365,0.379-0.565c0.14-0.242,0.261-0.49,0.378-0.739
	C318.779,292.328,324,273.805,324,254.083s-5.221-38.245-14.347-54.268c-0.118-0.249-0.238-0.497-0.378-0.739
	c-0.165-0.285-0.342-0.557-0.53-0.819c-19.162-32.397-54.455-54.174-94.745-54.174c-60.654,0-110,49.346-110,110
	S153.346,364.083,214,364.083z M141.573,307.445l49.304-28.466c3.705,3.443,8.172,6.074,13.122,7.601v56.944
	C178.458,340.688,156.109,327.122,141.573,307.445z M214,240.083c7.72,0,14,6.28,14,14c0,7.72-6.28,14-14,14s-14-6.28-14-14
	C200,246.363,206.28,240.083,214,240.083z M304,254.083c0,12.816-2.698,25.011-7.548,36.057l-49.316-28.472
	c0.559-2.441,0.864-4.977,0.864-7.585c0-2.608-0.305-5.144-0.864-7.585l49.316-28.472C301.302,229.072,304,241.268,304,254.083z
	 M224,343.524v-56.944c4.95-1.526,9.417-4.158,13.122-7.601l49.304,28.466C271.891,327.122,249.542,340.688,224,343.524z
	 M286.427,200.721l-49.304,28.466c-3.705-3.443-8.172-6.074-13.122-7.601v-56.944C249.542,167.478,271.891,181.044,286.427,200.721z
	 M204,164.642v56.944c-4.95,1.526-9.417,4.158-13.122,7.601l-49.305-28.466C156.109,181.044,178.458,167.478,204,164.642z
	 M131.548,218.025l49.316,28.472c-0.559,2.441-0.864,4.977-0.864,7.585c0,2.608,0.305,5.144,0.864,7.585l-49.316,28.472
	c-4.849-11.046-7.548-23.241-7.548-36.057C124,241.268,126.698,229.072,131.548,218.025z"/>
<path d="M187.14,405.695c-51.456-9.05-94.408-43.243-114.896-91.467c-2.161-5.083-8.031-7.453-13.114-5.293
	c-5.083,2.16-7.453,8.031-5.294,13.114c11.2,26.363,28.979,49.807,51.412,67.799c22.727,18.227,49.846,30.518,78.427,35.544
	c0.586,0.103,1.169,0.153,1.744,0.153c4.764,0,8.983-3.416,9.837-8.269C196.213,411.836,192.579,406.651,187.14,405.695z"/>
<path d="M55.156,296.083c5.418-1.073,8.94-6.335,7.867-11.752l-0.171-0.868c-1.053-5.421-6.3-8.958-11.723-7.911
	c-5.422,1.053-8.963,6.301-7.91,11.723l0.185,0.941c0.943,4.762,5.122,8.059,9.799,8.059
	C53.847,296.276,54.501,296.213,55.156,296.083z"/>
<path d="M337,331.753c2.63,0,5.21-1.07,7.069-2.93c1.86-1.86,2.931-4.44,2.931-7.07s-1.07-5.21-2.931-7.07
	c-1.859-1.86-4.439-2.93-7.069-2.93s-5.21,1.07-7.07,2.93c-1.86,1.86-2.93,4.44-2.93,7.07s1.069,5.21,2.93,7.07
	C331.791,330.683,334.37,331.753,337,331.753z"/>
<g>
</g>
<g>
</g>
<g>
</g>
<g>
</g>
<g>
</g>
<g>
</g>
<g>
</g>
<g>
</g>
<g>
</g>
<g>
</g>
<g>
</g>
<g>
</g>
<g>
</g>
<g>
</g>
<g>
</g>
</svg>
