<?xml version="1.0" encoding="iso-8859-1"?>
<!-- Generator: Adobe Illustrator 19.0.0, SVG Export Plug-In . SVG Version: 6.00 Build 0)  -->
<svg version="1.1" id="Capa_1" xmlns="http://www.w3.org/2000/svg" xmlns:xlink="http://www.w3.org/1999/xlink" x="0px" y="0px"
	 viewBox="0 0 512.001 512.001" style="enable-background:new 0 0 512.001 512.001;" xml:space="preserve">
<circle style="fill:#8CCEEA;" cx="256" cy="256.001" r="246"/>
<circle style="fill:#FE947C;" cx="256" cy="256.001" r="128"/>
<circle style="fill:#F4F4F4;" cx="256" cy="256.001" r="60"/>
<path d="M461.319,103.042c-3.304-4.426-9.572-5.332-13.995-2.028c-4.426,3.305-5.333,9.571-2.028,13.996
	c19.937,26.695,33.357,56.61,40.438,87.643c-32.026-38.755-83.914-58.218-135.3-47.182c-24.705-23.22-57.935-37.47-94.434-37.47
	c-5.621,0-11.163,0.346-16.61,1.003c22.106-50.457,77.369-79.762,132.723-67.931c0.442,0.094,0.881,0.147,1.32,0.182
	c8.155,4.672,16.099,9.866,23.771,15.61c4.422,3.309,10.688,2.409,13.998-2.013c3.311-4.421,2.409-10.688-2.012-13.998
	C360.376,14.311,299.811-3.539,238.667,0.584C176.922,4.75,118.79,31.171,74.98,74.981C26.629,123.333,0,187.62,0,256
	s26.629,132.667,74.98,181.02C123.333,485.372,187.62,512,256,512s132.667-26.629,181.02-74.98
	c43.773-43.774,70.191-101.857,74.388-163.549C515.562,212.378,497.773,151.852,461.319,103.042z M374,256
	c0,65.065-52.935,118-118,118s-118-52.935-118-118s52.935-118,118-118S374,190.935,374,256z M324.815,30.346
	c-49.611,8.306-92.458,43.491-108.632,93.519c-39.247,11.849-71.171,40.736-87.127,78.027
	C96.407,157.519,98.654,95.006,136.584,52.98c0.237-0.263,0.456-0.535,0.66-0.814C194.053,19.275,262.478,11.575,324.815,30.346z
	 M89.123,89.124c1.942-1.942,3.921-3.83,5.917-5.691c-17.684,47.148-8.656,101.917,26.613,140.977
	c-2.386,10.149-3.653,20.725-3.653,31.591c0,31.076,10.329,59.783,27.728,82.876c-54.777,6.121-107.82-27.089-125.257-80.969
	c-0.102-0.314-0.219-0.619-0.348-0.916C19.869,196.227,42.863,135.383,89.123,89.124z M26.15,309.185
	c26.023,31.587,65.208,50.42,106.611,50.42c9.526,0,19.176-1.012,28.802-3.079c24.705,23.222,57.936,37.473,94.438,37.473
	c5.621,0,11.163-0.346,16.61-1.003c-22.106,50.458-77.367,79.764-132.723,67.931c-0.423-0.09-0.844-0.143-1.264-0.178
	c-17.713-10.148-34.388-22.761-49.5-37.872C56.706,390.461,35.727,350.88,26.15,309.185z M187.116,481.674
	c49.641-8.286,92.529-43.487,108.709-93.54c39.243-11.85,71.164-40.736,87.118-78.025c32.649,44.373,30.402,106.886-7.528,148.912
	c-0.292,0.324-0.55,0.665-0.792,1.014C317.419,493.278,249.134,500.49,187.116,481.674z M422.877,422.877
	c-1.944,1.944-3.923,3.832-5.918,5.694c17.685-47.148,8.658-101.919-26.612-140.979c2.386-10.149,3.653-20.725,3.653-31.591
	c0-31.076-10.328-59.782-27.728-82.875c54.78-6.12,107.821,27.088,125.257,80.969c0.044,0.137,0.099,0.268,0.148,0.402
	C491.957,315.859,468.661,377.094,422.877,422.877z"/>
<path d="M422.962,89.208c1.953,1.958,4.517,2.938,7.08,2.938c2.555,0,5.11-0.973,7.062-2.92c3.911-3.9,3.919-10.232,0.019-14.142
	l-0.189-0.19c-3.899-3.91-10.232-3.918-14.142-0.018c-3.911,3.9-3.919,10.232-0.019,14.142L422.962,89.208z"/>
<path d="M187.059,268.159c0.955,5.44,6.143,9.076,11.579,8.12c5.439-0.955,9.075-6.139,8.12-11.579
	c-2.821-16.068,2.369-32.538,13.887-44.054c9.443-9.444,22-14.645,35.355-14.645s25.912,5.201,35.355,14.645
	c19.495,19.495,19.495,51.216,0,70.71c-12.288,12.288-29.749,17.275-46.699,13.35c-5.378-1.246-10.752,2.104-12,7.484
	c-1.246,5.38,2.104,10.752,7.484,11.999c5.333,1.236,10.699,1.841,16.014,1.841c18.327,0,36.009-7.197,49.344-20.532
	c27.292-27.292,27.292-71.702,0-98.995c-13.222-13.221-30.8-20.502-49.498-20.502s-36.276,7.281-49.498,20.502
	C190.38,222.626,183.111,245.674,187.059,268.159z"/>
<path d="M220.696,291.407c-0.003-0.002-0.074-0.074-0.077-0.077c-3.916-3.89-10.211-3.835-14.104,0.08
	c-3.892,3.916-3.841,10.278,0.072,14.172l0.172,0.17c1.948,1.921,4.484,2.879,7.021,2.879c2.583,0,5.164-0.995,7.121-2.979
	c3.877-3.933,3.832-10.264-0.101-14.142L220.696,291.407z"/>
<path d="M324.337,197.664c5.522,0,10-4.477,10-10v-0.195c0-5.523-4.478-10-10-10s-10,4.477-10,10v0.195
	C314.337,193.187,318.814,197.664,324.337,197.664z"/>
<path d="M324.557,314.337h-0.194c-0.009,0-0.018,0-0.026,0c-5.511,0-9.985,4.461-9.999,9.975
	c-0.014,5.522,4.452,10.011,9.975,10.025h0.194c0.009,0,0.018,0,0.026,0c5.511,0,9.985-4.461,9.999-9.975
	C334.545,318.84,330.079,314.351,324.557,314.337z"/>
<path d="M187.663,314.337c-5.522,0-10,4.477-10,10v0.195c0,5.523,4.478,10,10,10s10-4.477,10-10v-0.195
	C197.663,318.814,193.186,314.337,187.663,314.337z"/>
<path d="M187.443,197.664h0.194c0.009,0,0.018,0,0.026,0c5.511,0,9.985-4.461,9.999-9.975c0.014-5.522-4.452-10.011-9.975-10.025
	h-0.194c-0.009,0-0.018,0-0.026,0c-5.511,0-9.985,4.461-9.999,9.975C177.455,193.161,181.921,197.65,187.443,197.664z"/>
<path d="M352.643,266c2.553,0,5.107-0.972,7.059-2.917l0.138-0.137c3.912-3.898,3.923-10.23,0.025-14.142s-10.23-3.923-14.143-0.025
	l-0.138,0.137c-3.912,3.898-3.923,10.23-0.025,14.142C347.513,265.02,350.077,266,352.643,266z"/>
<path d="M263.084,345.584c-3.899-3.912-10.231-3.923-14.143-0.025s-3.923,10.23-0.025,14.142l0.138,0.138
	c1.954,1.96,4.519,2.941,7.084,2.941c2.554,0,5.107-0.972,7.059-2.917c3.912-3.898,3.923-10.23,0.025-14.142L263.084,345.584z"/>
<path d="M152.299,248.917l-0.138,0.137c-3.912,3.898-3.923,10.23-0.025,14.142c1.954,1.961,4.519,2.941,7.084,2.941
	c2.553,0,5.107-0.972,7.059-2.917l0.138-0.137c3.912-3.898,3.923-10.23,0.025-14.142
	C162.543,245.03,156.211,245.019,152.299,248.917z"/>
<path d="M248.916,166.416c1.954,1.96,4.519,2.941,7.084,2.941c2.554,0,5.107-0.972,7.059-2.917
	c3.912-3.898,3.923-10.23,0.025-14.142l-0.138-0.138c-3.899-3.912-10.231-3.923-14.143-0.025c-3.912,3.898-3.923,10.23-0.025,14.142
	L248.916,166.416z"/>
<g>
</g>
<g>
</g>
<g>
</g>
<g>
</g>
<g>
</g>
<g>
</g>
<g>
</g>
<g>
</g>
<g>
</g>
<g>
</g>
<g>
</g>
<g>
</g>
<g>
</g>
<g>
</g>
<g>
</g>
</svg>
