<?xml version="1.0" encoding="iso-8859-1"?>
<!-- Generator: Adobe Illustrator 19.0.0, SVG Export Plug-In . SVG Version: 6.00 Build 0)  -->
<svg version="1.1" id="Capa_1" xmlns="http://www.w3.org/2000/svg" xmlns:xlink="http://www.w3.org/1999/xlink" x="0px" y="0px"
	 viewBox="0 0 512 512" style="enable-background:new 0 0 512 512;" xml:space="preserve">
<circle style="fill:#6EA3D3;" cx="256.001" cy="255.991" r="246.011"/>
<circle style="fill:#F4F4F4;" cx="256.001" cy="255.991" r="192.009"/>
<path style="fill:#657FC9;" d="M448.009,255.995c0-10.904-0.923-21.593-2.67-32.001h-112.08l79.253-79.253
	c-6.125-8.595-13.03-16.806-20.741-24.516c-7.711-7.71-15.922-14.616-24.516-20.741l-79.253,79.253V66.656
	c-10.408-1.746-21.097-2.67-32.001-2.67s-21.593,0.923-32.001,2.67v112.081l-79.253-79.253c-8.595,6.125-16.806,13.03-24.516,20.741
	s-14.616,15.921-20.741,24.516l79.253,79.253H66.661c-1.746,10.408-2.67,21.097-2.67,32.001s0.923,21.593,2.67,32.001h112.081
	l-79.253,79.253c6.125,8.595,13.03,16.805,20.741,24.516c7.711,7.711,15.921,14.616,24.516,20.741l79.253-79.253v112.081
	c10.408,1.746,21.097,2.67,32.001,2.67s21.593-0.923,32.001-2.67V333.253l79.253,79.253c8.595-6.125,16.806-13.03,24.516-20.741
	c7.71-7.711,14.616-15.921,20.741-24.516l-79.253-79.253H445.34C447.086,277.587,448.009,266.9,448.009,255.995z"/>
<path d="M89.116,89.111c77.353-77.356,196.493-91.627,289.728-34.703c4.715,2.878,10.868,1.391,13.747-3.324
	c2.878-4.714,1.39-10.868-3.324-13.747C341.104,7.933,283.526-4.755,227.137,1.607c-28.189,3.181-55.424,10.935-80.943,23.047
	c-26.405,12.533-50.367,29.461-71.221,50.314C33.336,116.605,7.166,171.743,1.282,230.222
	c-5.802,57.661,8.219,116.075,39.48,164.483c1.913,2.963,5.128,4.576,8.41,4.576c1.858,0,3.738-0.518,5.415-1.601
	c4.64-2.996,5.972-9.186,2.976-13.826C-2.277,291.191,10.992,167.233,89.116,89.111z"/>
<path d="M89.116,422.879c-3.906-3.904-10.236-3.904-14.144,0c-3.905,3.905-3.905,10.237,0,14.144l0.386,0.385
	c1.95,1.934,4.496,2.899,7.042,2.899c2.572,0,5.146-0.987,7.101-2.958c3.889-3.921,3.862-10.253-0.059-14.144L89.116,422.879z"/>
<path d="M471.476,117.652c-2.988-4.646-9.179-5.988-13.821-3c-4.645,2.988-5.988,9.176-3,13.821
	c59.578,92.605,46.216,216.421-31.77,294.407c-79.054,79.055-203.972,91.698-297.025,30.06c-4.604-3.052-10.811-1.792-13.86,2.814
	c-3.05,4.604-1.79,10.81,2.814,13.86c41.792,27.682,91.213,42.386,141.352,42.384c8.051,0,16.129-0.38,24.189-1.146
	c59.031-5.608,114.672-31.828,156.673-73.829c41.582-41.583,67.745-96.645,73.669-155.045
	C516.538,224.403,502.608,166.043,471.476,117.652z"/>
<path d="M423.397,89.623c1.955,1.965,4.522,2.948,7.091,2.948c2.55,0,5.101-0.97,7.052-2.909c3.916-3.895,3.934-10.227,0.039-14.144
	l-0.551-0.552c-3.906-3.904-10.236-3.904-14.144,0c-3.905,3.905-3.905,10.237,0,14.144L423.397,89.623z"/>
<path d="M53.991,255.995c0,111.388,90.621,202.009,202.009,202.009s202.009-90.621,202.009-202.009S367.388,53.986,256,53.986
	S53.991,144.607,53.991,255.995z M214.18,78.842v76.19l-53.824-53.824C176.756,91.039,194.878,83.399,214.18,78.842z
	 M101.214,160.351l53.824,53.824h-76.19C83.404,194.873,91.045,176.751,101.214,160.351z M78.848,297.814h76.19l-53.824,53.824
	C91.045,335.239,83.404,317.117,78.848,297.814z M214.18,433.147c-19.303-4.556-37.426-12.197-53.824-22.366l53.824-53.824
	L214.18,433.147L214.18,433.147z M297.819,433.147v-76.19l53.824,53.824C335.245,420.951,317.122,428.591,297.819,433.147z
	 M410.786,351.639l-53.824-53.824h76.19C428.596,317.117,420.956,335.239,410.786,351.639z M433.152,214.175h-76.19l53.824-53.824
	C420.956,176.751,428.596,194.873,433.152,214.175z M399.147,143.703l-73.4,73.4c-2.859,2.86-3.715,7.161-2.168,10.898
	c1.548,3.736,5.194,6.173,9.239,6.173h103.878c0.859,7.156,1.313,14.435,1.313,21.818s-0.454,14.663-1.313,21.818H332.818
	c-4.045,0-7.691,2.437-9.239,6.173c-1.547,3.737-0.691,8.038,2.168,10.898l73.4,73.4c-9.019,11.471-19.384,21.837-30.855,30.855
	l-73.4-73.4c-2.859-2.859-7.16-3.714-10.898-2.168c-3.736,1.548-6.173,5.194-6.173,9.239v103.878
	c-7.156,0.859-14.435,1.313-21.818,1.313c-7.383,0-14.663-0.454-21.818-1.313V332.813c0-4.045-2.437-7.691-6.173-9.239
	c-3.736-1.546-8.038-0.691-10.898,2.168l-73.4,73.4c-11.472-9.018-21.837-19.384-30.855-30.855l73.4-73.4
	c2.859-2.86,3.715-7.161,2.168-10.898c-1.548-3.736-5.194-6.173-9.239-6.173H75.304c-0.859-7.156-1.313-14.435-1.313-21.818
	c0-7.383,0.454-14.663,1.313-21.818h103.878c4.045,0,7.691-2.437,9.239-6.173c1.547-3.737,0.691-8.038-2.168-10.898l-73.4-73.4
	c9.019-11.472,19.384-21.837,30.855-30.855l73.401,73.397c1.913,1.913,4.471,2.929,7.073,2.929c1.288,0,2.588-0.249,3.825-0.761
	c3.736-1.548,6.173-5.194,6.173-9.239V75.299c7.156-0.859,14.435-1.313,21.818-1.313s14.663,0.454,21.818,1.313v103.878
	c0,4.045,2.437,7.691,6.173,9.239c1.237,0.512,2.537,0.761,3.825,0.761c2.603,0,5.16-1.016,7.073-2.929l73.4-73.4
	C379.763,121.866,390.128,132.232,399.147,143.703z M297.819,78.842c19.303,4.556,37.426,12.197,53.824,22.366l-53.824,53.824
	V78.842z"/>
<path d="M256,225.994c-16.543,0-30.001,13.459-30.001,30.001c0,16.543,13.459,30.001,30.001,30.001s30.001-13.459,30.001-30.001
	C286.002,239.453,272.543,225.994,256,225.994z M256,265.996c-5.514,0-10-4.486-10-10s4.486-10,10-10c5.514,0,10,4.486,10,10
	S261.515,265.996,256,265.996z"/>
<path d="M308.973,248.798l-0.086,0.085c-3.928,3.883-3.964,10.215-0.081,14.143c1.956,1.979,4.533,2.97,7.111,2.97
	c2.54,0,5.082-0.962,7.03-2.889l0.086-0.085c3.928-3.883,3.964-10.215,0.081-14.143
	C319.231,244.952,312.899,244.916,308.973,248.798z"/>
<path d="M263.112,308.881c-3.883-3.928-10.216-3.963-14.143-0.081c-3.928,3.883-3.964,10.215-0.081,14.143l0.085,0.086
	c1.956,1.979,4.533,2.97,7.111,2.97c2.54,0,5.082-0.962,7.03-2.889c3.928-3.883,3.964-10.215,0.081-14.143L263.112,308.881z"/>
<path d="M203.195,248.964c-3.882-3.927-10.215-3.963-14.143-0.081l-0.086,0.085c-3.928,3.883-3.964,10.215-0.081,14.143
	c1.956,1.979,4.533,2.97,7.111,2.97c2.54,0,5.082-0.962,7.03-2.889l0.086-0.085C207.042,259.224,207.078,252.891,203.195,248.964z"
	/>
<path d="M248.889,203.109c1.956,1.979,4.533,2.97,7.111,2.97c2.54,0,5.082-0.962,7.03-2.889c3.928-3.883,3.964-10.215,0.081-14.143
	l-0.085-0.086c-3.882-3.927-10.215-3.963-14.143-0.081c-3.928,3.883-3.964,10.215-0.081,14.143L248.889,203.109z"/>
<path d="M298.488,288.363h-0.12c-5.522,0-10,4.478-10,10c0,5.522,4.478,10,10,10h0.12c5.522,0,10-4.478,10-10
	C308.489,292.841,304.012,288.363,298.488,288.363z"/>
<path d="M213.632,288.363c-5.522,0-10,4.478-10,10v0.12c0,5.522,4.478,10,10,10s10-4.478,10-10v-0.12
	C223.633,292.84,219.155,288.363,213.632,288.363z"/>
<path d="M213.632,203.626h-0.12c-5.522,0-10,4.478-10,10c0,5.522,4.478,10,10,10h0.12c5.522,0,10-4.478,10-10
	C223.633,208.104,219.155,203.626,213.632,203.626z"/>
<path d="M298.368,223.627c5.522,0,10-4.478,10-10v-0.12c0-5.522-4.478-10-10-10s-10,4.478-10,10v0.12
	C288.368,219.15,292.846,223.627,298.368,223.627z"/>
<g>
</g>
<g>
</g>
<g>
</g>
<g>
</g>
<g>
</g>
<g>
</g>
<g>
</g>
<g>
</g>
<g>
</g>
<g>
</g>
<g>
</g>
<g>
</g>
<g>
</g>
<g>
</g>
<g>
</g>
</svg>
