<?xml version="1.0" encoding="iso-8859-1"?>
<!-- Generator: Adobe Illustrator 19.0.0, SVG Export Plug-In . SVG Version: 6.00 Build 0)  -->
<svg version="1.1" id="Capa_1" xmlns="http://www.w3.org/2000/svg" xmlns:xlink="http://www.w3.org/1999/xlink" x="0px" y="0px"
	 viewBox="0 0 511.999 511.999" style="enable-background:new 0 0 511.999 511.999;" xml:space="preserve">
<circle style="fill:#F25353;" cx="256" cy="256" r="246"/>
<circle style="fill:#D0E6EF;" cx="256" cy="256" r="206"/>
<path d="M256,511.999c-68.38,0-132.667-26.629-181.02-74.98C26.629,388.667,0,324.379,0,255.999s26.629-132.667,74.98-181.02
	c43.81-43.81,101.941-70.23,163.686-74.396c61.152-4.122,121.709,13.727,170.523,50.269c4.421,3.31,5.322,9.577,2.013,13.998
	c-3.31,4.421-9.577,5.322-13.999,2.013C304.018-2.898,171.572,6.672,89.123,89.122c-92.017,92.016-92.017,241.738,0,333.754
	c92.016,92.016,241.738,92.016,333.754,0c82.355-82.356,91.993-214.71,22.418-307.868c-3.305-4.425-2.396-10.691,2.028-13.996
	c4.427-3.304,10.691-2.397,13.996,2.028c36.454,48.81,54.242,109.336,50.087,170.429c-4.196,61.692-30.614,119.775-74.387,163.549
	C388.667,485.37,324.38,511.999,256,511.999z"/>
<path d="M430.042,92.145c-2.568,0-5.135-0.983-7.089-2.947l-0.189-0.19c-3.895-3.915-3.879-10.247,0.037-14.142
	c3.915-3.894,10.248-3.879,14.142,0.037l0.189,0.19c3.895,3.915,3.879,10.247-0.037,14.142
	C435.144,91.175,432.592,92.145,430.042,92.145z"/>
<path d="M256.073,471.996c-44.463,0-88.075-13.694-124.418-39.336c-4.513-3.184-5.59-9.423-2.406-13.936s9.423-5.59,13.936-2.406
	c78.031,55.056,183.764,45.919,251.408-21.726c76.419-76.42,76.419-200.765,0-277.186c-76.419-76.418-200.764-76.42-277.186,0
	c-67.906,67.905-76.862,173.893-21.295,252.015c3.201,4.5,2.147,10.744-2.353,13.945c-4.498,3.201-10.743,2.149-13.945-2.353
	c-29.237-41.104-43.136-91.584-39.138-142.141c4.043-51.131,26.271-99.291,62.588-135.608C144.062,62.467,198.304,39.999,256,39.999
	s111.938,22.468,152.735,63.265S472,198.303,472,255.999s-22.468,111.938-63.265,152.735
	c-36.217,36.216-84.237,58.433-135.216,62.557C267.699,471.762,261.877,471.996,256.073,471.996z"/>
<path d="M110.307,411.653c-2.548,0-5.095-0.972-7.042-2.919c-0.011-0.011-0.061-0.062-0.072-0.073
	c-3.88-3.917-3.877-10.255,0.031-14.145c3.907-3.889,10.207-3.902,14.106-0.003c0.011,0.011,0.061,0.062,0.072,0.073
	c3.88,3.917,3.877,10.255-0.031,14.145C115.416,410.678,112.86,411.653,110.307,411.653z"/>
<circle style="fill:#FFFFFF;" cx="256" cy="256" r="60"/>
<path d="M256,325.999c-38.598,0-70-31.402-70-70s31.402-70,70-70s70,31.402,70,70S294.598,325.999,256,325.999z M256,205.999
	c-27.57,0-50,22.43-50,50s22.43,50,50,50s50-22.43,50-50S283.57,205.999,256,205.999z"/>
<g>
	<ellipse style="fill:#FFFFFF;" cx="256" cy="123" rx="60" ry="38"/>
	<ellipse style="fill:#FFFFFF;" cx="389" cy="256" rx="38" ry="60"/>
	<ellipse style="fill:#FFFFFF;" cx="256" cy="389" rx="60" ry="38"/>
	<ellipse style="fill:#FFFFFF;" cx="123" cy="256" rx="38" ry="60"/>
</g>
<path d="M256,170.999c-39.252,0-70-21.084-70-48s30.748-48,70-48s70,21.084,70,48S295.252,170.999,256,170.999z M256,94.999
	c-26.636,0-50,13.084-50,28s23.364,28,50,28s50-13.084,50-28S282.636,94.999,256,94.999z"/>
<path d="M389,325.999c-26.916,0-48-30.748-48-70s21.084-70,48-70s48,30.748,48,70S415.916,325.999,389,325.999z M389,205.999
	c-14.916,0-28,23.364-28,50c0,26.636,13.084,50,28,50s28-23.364,28-50S403.916,205.999,389,205.999z"/>
<path d="M256,436.999c-39.252,0-70-21.084-70-48s30.748-48,70-48s70,21.084,70,48S295.252,436.999,256,436.999z M256,360.999
	c-26.636,0-50,13.084-50,28s23.364,28,50,28s50-13.084,50-28S282.636,360.999,256,360.999z"/>
<path d="M123,325.999c-26.916,0-48-30.748-48-70s21.084-70,48-70s48,30.748,48,70S149.916,325.999,123,325.999z M123,205.999
	c-14.916,0-28,23.364-28,50c0,26.636,13.084,50,28,50s28-23.364,28-50S137.916,205.999,123,205.999z"/>
<path d="M350.046,171.954c-0.006,0-0.012,0-0.019,0c-5.523-0.01-9.992-4.496-9.982-10.018v-0.268c0.01-5.517,4.485-9.982,10-9.982
	c0.006,0,0.012,0,0.019,0c5.523,0.01,9.992,4.496,9.982,10.018v0.268C360.035,167.488,355.56,171.954,350.046,171.954z"/>
<path d="M350.313,360.045c-0.006,0-0.012,0-0.019,0h-0.268c-5.523-0.01-9.992-4.496-9.982-10.018c0.01-5.517,4.485-9.982,10-9.982
	c0.006,0,0.012,0,0.019,0h0.268c5.523,0.01,9.992,4.496,9.982,10.018C360.303,355.58,355.828,360.045,350.313,360.045z"/>
<path d="M161.955,360.312c-0.006,0-0.012,0-0.019,0c-5.523-0.01-9.992-4.496-9.982-10.018v-0.268c0.01-5.517,4.485-9.982,10-9.982
	c0.006,0,0.012,0,0.019,0c5.523,0.01,9.992,4.496,9.982,10.018v0.268C171.944,355.847,167.469,360.312,161.955,360.312z"/>
<path d="M161.955,171.954c-0.006,0-0.012,0-0.019,0h-0.268c-5.523-0.01-9.992-4.496-9.982-10.018c0.01-5.517,4.485-9.982,10-9.982
	c0.006,0,0.012,0,0.019,0h0.268c5.523,0.01,9.992,4.496,9.982,10.018C171.944,167.488,167.469,171.954,161.955,171.954z"/>
<g>
</g>
<g>
</g>
<g>
</g>
<g>
</g>
<g>
</g>
<g>
</g>
<g>
</g>
<g>
</g>
<g>
</g>
<g>
</g>
<g>
</g>
<g>
</g>
<g>
</g>
<g>
</g>
<g>
</g>
</svg>
