<?xml version="1.0" encoding="iso-8859-1"?>
<!-- Generator: Adobe Illustrator 19.0.0, SVG Export Plug-In . SVG Version: 6.00 Build 0)  -->
<svg version="1.1" id="Capa_1" xmlns="http://www.w3.org/2000/svg" xmlns:xlink="http://www.w3.org/1999/xlink" x="0px" y="0px"
	 viewBox="0 0 512 512" style="enable-background:new 0 0 512 512;" xml:space="preserve">
<path style="fill:#657FC9;" d="M447.185,451.127L447.185,451.127c0,18.708-15.165,33.873-33.873,33.873H10.815v-33.873H447.185z"/>
<path style="fill:#F4F4F4;" d="M488,95.127V61.333C488,42.372,472.628,27,453.667,27H58.333C39.372,27,24,42.372,24,61.333v33.794
	H488z"/>
<polygon style="fill:#8CCEEA;" points="201.939,95.127 166.467,59.127 99.181,59.127 63.57,95.127 10,95.127 10,451.127 
	502,451.127 502,95.127 "/>
<circle style="fill:#34BFE0;" cx="101.97" cy="350.04" r="48"/>
<circle style="fill:#D0E6EF;" cx="206.13" cy="233.08" r="40"/>
<circle style="fill:#FDB954;" cx="83.01" cy="164.98" r="29.04"/>
<g>
	<path style="fill:#34BFE0;" d="M501.988,185.976h-191.27c-15.464,0-28-12.536-28-28l0,0c0-15.464,12.536-28,28-28h191.27"/>
	<path style="fill:#34BFE0;" d="M501.988,357h-219.27v-56h219.27"/>
</g>
<path d="M227.342,187.815c-0.093-0.045-0.179-0.098-0.273-0.141L103.47,131.755c-5.954-3.68-12.962-5.81-20.461-5.81
	c-21.525,0-39.037,17.512-39.037,39.036v185.057c0,31.981,26.019,58,58,58c14.782,0,28.282-5.566,38.536-14.703
	c0.419-0.323,0.809-0.691,1.18-1.087c3.894-3.666,7.286-7.855,10.052-12.466l87.89-109.623
	c10.125-9.156,16.498-22.387,16.498-37.081C256.127,213.089,244.333,195.811,227.342,187.815z M101.971,292.038
	c-14.527,0-27.813,5.381-38,14.238V199.044c5.636,3.163,12.127,4.975,19.037,4.975c21.524,0,39.036-17.512,39.036-39.037
	c0-0.985-0.049-1.958-0.121-2.924l60.14,27.209c-15.446,8.518-25.936,24.961-25.936,43.812c0,26.752,21.12,48.662,47.561,49.938
	l-44.802,55.881C153.675,312.229,130.141,292.038,101.971,292.038z M206.127,263.078c-16.542,0-30-13.458-30-30s13.458-30,30-30
	s30,13.458,30,30S222.669,263.078,206.127,263.078z M83.008,145.945c10.496,0,19.036,8.54,19.036,19.036
	c0,10.497-8.54,19.037-19.036,19.037c-10.497,0-19.037-8.54-19.037-19.037C63.971,154.485,72.511,145.945,83.008,145.945z
	 M63.971,350.038c0-20.953,17.047-38,38-38s38,17.047,38,38c0,6.668-1.732,12.937-4.761,18.39l-8.018,10
	c-6.715,5.972-15.549,9.61-25.221,9.61C81.018,388.038,63.971,370.991,63.971,350.038z"/>
<path d="M206.13,223.08c-2.63,0-5.21,1.069-7.07,2.93c-1.87,1.86-2.93,4.44-2.93,7.07s1.06,5.21,2.93,7.069
	c1.86,1.86,4.431,2.931,7.07,2.931c2.63,0,5.21-1.07,7.07-2.931c1.859-1.859,2.93-4.439,2.93-7.069s-1.07-5.21-2.93-7.07
	C211.33,224.149,208.76,223.08,206.13,223.08z"/>
<path d="M83.01,174.979c2.63,0,5.2-1.069,7.07-2.93c1.859-1.86,2.93-4.44,2.93-7.07s-1.07-5.21-2.93-7.069
	c-1.86-1.86-4.44-2.931-7.07-2.931c-2.64,0-5.21,1.07-7.07,2.931c-1.87,1.859-2.93,4.439-2.93,7.069s1.06,5.21,2.93,7.07
	C77.8,173.91,80.38,174.979,83.01,174.979z"/>
<path d="M109.04,342.97c-1.86-1.86-4.431-2.93-7.07-2.93c-2.63,0-5.21,1.069-7.07,2.93c-1.859,1.86-2.93,4.44-2.93,7.07
	s1.07,5.21,2.93,7.069c1.86,1.86,4.44,2.931,7.07,2.931c2.64,0,5.21-1.07,7.07-2.931c1.859-1.869,2.93-4.439,2.93-7.069
	S110.899,344.83,109.04,342.97z"/>
<path d="M502,85.127h-4V61.333C498,36.888,478.112,17,453.667,17H58.333C33.888,17,14,36.888,14,61.333v23.794h-4
	c-5.522,0-10,4.478-10,10V485c0,5.522,5.292,10,10.814,10h402.498c20.751,0,38.17-14.486,42.709-33.873H502c5.522,0,10-4.478,10-10
	v-356C512,89.604,507.522,85.127,502,85.127z M466.956,147.976c-5.522,0-10,4.478-10,10v18h-40.128v-18c0-5.522-4.478-10-10-10
	s-10,4.478-10,10v18h-40.127v-18c0-5.522-4.478-10-10-10s-10,4.478-10,10v18h-25.983c-9.925,0-18-8.075-18-18s8.075-18,18-18H492v36
	h-15.044v-18C476.956,152.453,472.479,147.976,466.956,147.976z M348.26,233.992c5.312-7.584,8.441-16.804,8.441-26.745v-11.271
	h40.127v11.271c0,14.747-11.997,26.745-26.744,26.745H348.26z M416.828,207.247v-11.271h40.128v11.271
	c0,14.747-11.997,26.745-26.744,26.745h-21.825C413.699,226.408,416.828,217.188,416.828,207.247z M492,347H292.718v-36H492V347z
	 M217.5,441.127c-5.522,0-10,4.478-10,10s4.478,10,10,10h217.482c-3.791,8.182-12.075,13.873-21.67,13.873H20.814v-13.873H131
	c5.522,0,10-4.478,10-10s-4.478-10-10-10H20v-336h43.57c2.671,0,5.231-1.068,7.109-2.968l32.675-33.032h58.927l32.535,33.019
	c1.88,1.907,4.445,2.981,7.123,2.981h40.728c5.522,0,10-4.478,10-10s-4.478-10-10-10h-36.542L173.59,52.108
	c-1.88-1.907-4.445-2.981-7.123-2.981H99.181c-2.671,0-5.231,1.068-7.109,2.968L59.396,85.127H34V61.333
	C34,47.916,44.916,37,58.333,37h395.334C467.084,37,478,47.916,478,61.333v23.794H336c-5.522,0-10,4.478-10,10s4.478,10,10,10h156
	v14.849H310.718c-20.953,0-38,17.047-38,38.001c0,20.953,17.047,37.999,38,37.999h25.983v11.271
	c0,14.747-11.998,26.745-26.745,26.745H293c-5.522,0-10,4.478-10,10s4.478,10,10,10h137.212c25.774,0,46.744-20.97,46.744-46.745
	v-11.271H492V291H282.718c-5.522,0-10,4.478-10,10v56c0,5.522,4.478,10,10,10H492v74.127H217.5z"/>
<path d="M173.55,441.13c-2.63,0-5.2,1.06-7.07,2.93c-1.859,1.86-2.92,4.44-2.92,7.07s1.061,5.21,2.92,7.07
	c1.87,1.859,4.44,2.93,7.07,2.93s5.21-1.07,7.08-2.93c1.86-1.86,2.92-4.44,2.92-7.07c0-2.64-1.06-5.21-2.92-7.07
	C178.76,442.189,176.189,441.13,173.55,441.13z"/>
<path d="M290.33,105.13c2.64,0,5.21-1.07,7.069-2.93c1.86-1.86,2.931-4.44,2.931-7.07c0-2.64-1.07-5.21-2.931-7.07
	c-1.859-1.87-4.43-2.93-7.069-2.93c-2.63,0-5.21,1.06-7.07,2.93c-1.86,1.86-2.93,4.431-2.93,7.07c0,2.63,1.069,5.21,2.93,7.07
	C285.12,104.06,287.7,105.13,290.33,105.13z"/>
<path d="M400.333,69.127h0.5c5.522,0,10-4.478,10-10s-4.478-10-10-10h-0.5c-5.522,0-10,4.478-10,10S394.811,69.127,400.333,69.127z"
	/>
<path d="M440.833,69.127h0.5c5.522,0,10-4.478,10-10s-4.478-10-10-10h-0.5c-5.522,0-10,4.478-10,10S435.311,69.127,440.833,69.127z"
	/>
<path d="M359.833,69.127h0.5c5.522,0,10-4.478,10-10s-4.478-10-10-10h-0.5c-5.522,0-10,4.478-10,10S354.311,69.127,359.833,69.127z"
	/>
<path d="M319.333,69.127h0.5c5.522,0,10-4.478,10-10s-4.478-10-10-10h-0.5c-5.522,0-10,4.478-10,10S313.811,69.127,319.333,69.127z"
	/>
<path d="M442.718,379.5c-5.522,0-10,4.478-10,10v24.024c0,5.522,4.478,10,10,10s10-4.478,10-10V389.5
	C452.718,383.978,448.24,379.5,442.718,379.5z"/>
<path d="M402.718,379.5c-5.522,0-10,4.478-10,10v24.024c0,5.522,4.478,10,10,10s10-4.478,10-10V389.5
	C412.718,383.978,408.24,379.5,402.718,379.5z"/>
<path d="M362.718,379.5c-5.522,0-10,4.478-10,10v24.024c0,5.522,4.478,10,10,10s10-4.478,10-10V389.5
	C372.718,383.978,368.24,379.5,362.718,379.5z"/>
<path d="M322.718,379.5c-5.522,0-10,4.478-10,10v24.024c0,5.522,4.478,10,10,10s10-4.478,10-10V389.5
	C332.718,383.978,328.24,379.5,322.718,379.5z"/>
<path d="M282.718,379.5c-5.522,0-10,4.478-10,10v24.024c0,5.522,4.478,10,10,10s10-4.478,10-10V389.5
	C292.718,383.978,288.24,379.5,282.718,379.5z"/>
<path d="M458.854,339h0.5c5.522,0,10-4.478,10-10s-4.478-10-10-10h-0.5c-5.522,0-10,4.478-10,10S453.331,339,458.854,339z"/>
<path d="M418.354,339h0.5c5.522,0,10-4.478,10-10s-4.478-10-10-10h-0.5c-5.522,0-10,4.478-10,10S412.831,339,418.354,339z"/>
<path d="M377.854,339h0.5c5.522,0,10-4.478,10-10s-4.478-10-10-10h-0.5c-5.522,0-10,4.478-10,10S372.331,339,377.854,339z"/>
<g>
</g>
<g>
</g>
<g>
</g>
<g>
</g>
<g>
</g>
<g>
</g>
<g>
</g>
<g>
</g>
<g>
</g>
<g>
</g>
<g>
</g>
<g>
</g>
<g>
</g>
<g>
</g>
<g>
</g>
</svg>
