<?xml version="1.0" encoding="iso-8859-1"?>
<!-- Generator: Adobe Illustrator 19.0.0, SVG Export Plug-In . SVG Version: 6.00 Build 0)  -->
<svg version="1.1" id="Capa_1" xmlns="http://www.w3.org/2000/svg" xmlns:xlink="http://www.w3.org/1999/xlink" x="0px" y="0px"
	 viewBox="0 0 512 512" style="enable-background:new 0 0 512 512;" xml:space="preserve">
<g>
	<polygon style="fill:#8CCEEA;" points="362.818,310.403 201.597,149.183 260.287,128.677 383.324,251.713 	"/>
	<polygon style="fill:#8CCEEA;" points="78.509,297.624 214.376,433.491 164.455,445.795 66.206,347.546 	"/>
</g>
<rect x="100.324" y="201.683" transform="matrix(-0.7071 -0.7071 0.7071 -0.7071 155.3793 659.724)" style="fill:#D0E6EF;" width="227.998" height="191.998"/>
<polygon style="fill:#657FC9;" points="373.983,242.372 269.628,138.018 315.401,121.565 390.435,196.6 "/>
<polygon style="fill:#D0E6EF;" points="380.205,186.371 325.629,131.795 452.646,34.098 477.902,59.355 "/>
<polygon style="fill:#657FC9;" points="66.859,479.859 32.142,445.141 87.434,368.774 143.226,424.566 "/>
<path d="M288.05,314.59c-2.63,0-5.21,1.07-7.07,2.93c-1.859,1.87-2.92,4.44-2.92,7.08c0,2.63,1.061,5.21,2.92,7.07
	c1.86,1.86,4.44,2.92,7.07,2.92c2.64,0,5.21-1.06,7.07-2.92c1.87-1.87,2.939-4.44,2.939-7.07s-1.069-5.21-2.939-7.08
	C293.26,315.66,290.69,314.59,288.05,314.59z"/>
<path d="M288.113,235.698c3.905-3.905,3.905-10.237,0-14.143l-0.745-0.745c-3.906-3.904-10.236-3.904-14.143,0
	c-3.905,3.905-3.905,10.237,0,14.143l0.745,0.745c1.953,1.952,4.512,2.929,7.071,2.929S286.159,237.65,288.113,235.698z"/>
<path d="M509.072,2.929c-3.906-3.904-10.236-3.904-14.143,0l-29.655,29.655l-5.557-5.557c-3.551-3.55-9.187-3.917-13.168-0.855
	l-120.056,92.343l-4.021-4.021c-2.736-2.736-6.807-3.65-10.454-2.339l-39.803,14.307l-4.856-4.856
	c-2.716-2.714-6.745-3.638-10.37-2.369l-58.69,20.506c-1.401,0.49-2.723,1.319-3.772,2.369L58.761,277.876
	c-3.905,3.905-3.905,10.237,0,14.143l8.689,8.689l-10.954,44.445c-0.838,3.398,0.162,6.988,2.638,9.464l15.199,15.199
	l-50.291,69.461c-2.881,3.979-2.445,9.462,1.028,12.936L35.358,462.5L2.929,494.929c-3.905,3.905-3.905,10.237,0,14.143
	C4.882,511.023,7.441,512,10,512s5.118-0.977,7.071-2.929L49.5,476.643l10.287,10.287c1.937,1.937,4.498,2.929,7.074,2.929
	c2.045,0,4.101-0.625,5.861-1.9l69.461-50.291l15.199,15.199c1.898,1.897,4.451,2.929,7.071,2.929c0.797,0,1.601-0.095,2.393-0.291
	l44.445-10.954l8.689,8.689c1.953,1.952,4.512,2.929,7.071,2.929s5.118-0.977,7.071-2.929l135.765-135.765
	c1.053-1.053,1.88-2.365,2.369-3.772l20.506-58.69c1.267-3.625,0.346-7.655-2.369-10.37l-4.856-4.856l14.307-39.803
	c1.311-3.644,0.398-7.716-2.339-10.454l-4.021-4.021l92.343-120.056c3.062-3.981,2.696-9.616-0.855-13.168l-5.557-5.557
	l29.655-29.655C512.977,13.166,512.977,6.834,509.072,2.929C505.165-0.976,512.977,6.834,509.072,2.929
	C505.165-0.976,512.977,6.834,509.072,2.929z M67.901,466.758L45.242,444.1l43.413-59.961l39.207,39.207L67.901,466.758z
	 M167.537,434.736l-90.273-90.273l6.712-27.23l110.792,110.792L167.537,434.736z M227.053,432.025l-16.143-16.143l52.162-52.162
	c3.905-3.905,3.905-10.237,0-14.143c-3.906-3.904-10.236-3.904-14.143,0l-52.162,52.162L79.975,284.947l121.622-121.622
	l37.289,37.289c3.906,3.904,10.236,3.904,14.143,0c3.905-3.905,3.905-10.237,0-14.143l-33.101-33.101l37.729-13.183l4.892,4.892
	c0.002,0.002,0.005,0.006,0.007,0.008L366.91,249.441c0.003,0.003,0.007,0.006,0.01,0.009l4.89,4.89l-13.183,37.729l-37.351-37.351
	c-3.906-3.904-10.236-3.904-14.143,0c-3.905,3.905-3.905,10.237,0,14.143l41.539,41.539L227.053,432.025z M287.848,142.095
	l24.967-8.975l66.065,66.065l-8.975,24.967L287.848,142.095z M379.224,171.245l-38.469-38.469l111.028-85.398l12.839,12.839
	L379.224,171.245z"/>
<g>
</g>
<g>
</g>
<g>
</g>
<g>
</g>
<g>
</g>
<g>
</g>
<g>
</g>
<g>
</g>
<g>
</g>
<g>
</g>
<g>
</g>
<g>
</g>
<g>
</g>
<g>
</g>
<g>
</g>
</svg>
