<?xml version="1.0" encoding="iso-8859-1"?>
<!-- Generator: Adobe Illustrator 19.0.0, SVG Export Plug-In . SVG Version: 6.00 Build 0)  -->
<svg version="1.1" id="Capa_1" xmlns="http://www.w3.org/2000/svg" xmlns:xlink="http://www.w3.org/1999/xlink" x="0px" y="0px"
	 viewBox="0 0 512 512" style="enable-background:new 0 0 512 512;" xml:space="preserve">
<rect x="416" y="220" style="fill:#8CCEEA;" width="86" height="72"/>
<rect x="150" y="164" style="fill:#F25353;" width="266" height="184"/>
<g>
	<rect x="10" y="220" style="fill:#8CCEEA;" width="86" height="72"/>
	<rect x="170" y="72" style="fill:#8CCEEA;" width="72" height="44"/>
	<rect x="170" y="396" style="fill:#8CCEEA;" width="72" height="44"/>
</g>
<polygon style="fill:#FDB954;" points="256,256 287,202.306 349,202.306 380,256 349,309.694 287,309.694 "/>
<circle style="fill:#D0E6EF;" cx="318" cy="256" r="20"/>
<path d="M346.33,174c2.63,0,5.21-1.07,7.08-2.931c1.86-1.859,2.92-4.439,2.92-7.069s-1.06-5.21-2.92-7.07
	c-1.87-1.86-4.44-2.93-7.08-2.93c-2.63,0-5.2,1.069-7.07,2.93c-1.86,1.86-2.93,4.43-2.93,7.07c0,2.63,1.07,5.21,2.93,7.069
	C341.13,172.93,343.71,174,346.33,174z"/>
<path d="M299,338H160V174h139c5.523,0,10-4.478,10-10s-4.477-10-10-10h-63v-28h6h33c5.523,0,10-4.478,10-10s-4.477-10-10-10h-23V72
	c0-5.522-4.477-10-10-10h-72c-5.523,0-10,4.478-10,10v34h-22.045c-2.652,0-5.196,1.054-7.071,2.929l-41.955,41.955
	C87.054,152.76,86,155.303,86,157.955V210H10c-5.523,0-10,4.478-10,10v72c0,5.522,4.477,10,10,10h76v52.521
	c0,2.652,1.054,5.195,2.929,7.071l41.479,41.479c1.875,1.875,4.419,2.929,7.071,2.929H160v34c0,5.522,4.477,10,10,10h72
	c5.523,0,10-4.478,10-10v-34h23c5.523,0,10-4.478,10-10s-4.477-10-10-10h-33h-6v-28h63c5.523,0,10-4.478,10-10S304.523,338,299,338z
	 M216,154h-20v-28h20V154z M232,106h-6h-10V82h16V106z M180,82h16v24h-10h-6V82z M20,282v-52h66v52H20z M106,350.378v-188.28
	L142.097,126H170h6v28h-26c-5.523,0-10,4.478-10,10v184c0,5.522,4.477,10,10,10h26v28h-6h-28.378L106,350.378z M180,406h6h10v24h-16
	V406z M232,430h-16v-24h10h6V430z M216,386h-20v-28h20V386z"/>
<path d="M346.333,338h-0.458c-5.523,0-10,4.478-10,10s4.477,10,10,10h0.458c5.523,0,10-4.478,10-10S351.856,338,346.333,338z"/>
<path d="M502,210h-76v-46c0-5.522-4.477-10-10-10h-27c-5.523,0-10,4.478-10,10s4.477,10,10,10h17v164h-17c-5.523,0-10,4.478-10,10
	s4.477,10,10,10h27c5.523,0,10-4.478,10-10v-46h76c5.523,0,10-4.478,10-10v-72C512,214.478,507.523,210,502,210z M492,282h-66v-52
	h66V282z"/>
<path d="M318,226c-16.542,0-30,13.458-30,30s13.458,30,30,30s30-13.458,30-30S334.542,226,318,226z M318,266
	c-5.514,0-10-4.486-10-10s4.486-10,10-10s10,4.486,10,10S323.514,266,318,266z"/>
<path d="M388.66,251l-31-53.693c-1.786-3.094-5.087-5-8.66-5h-62c-3.573,0-6.874,1.906-8.66,5l-31,53.693
	c-1.787,3.094-1.787,6.906,0,10l31,53.693c1.786,3.094,5.087,5,8.66,5h62c3.573,0,6.874-1.906,8.66-5l31-53.693
	C390.447,257.906,390.447,254.094,388.66,251z M343.227,299.693h-50.453L267.547,256l25.227-43.693h50.453L368.453,256
	L343.227,299.693z"/>
<g>
</g>
<g>
</g>
<g>
</g>
<g>
</g>
<g>
</g>
<g>
</g>
<g>
</g>
<g>
</g>
<g>
</g>
<g>
</g>
<g>
</g>
<g>
</g>
<g>
</g>
<g>
</g>
<g>
</g>
</svg>
