<?xml version="1.0" encoding="iso-8859-1"?>
<!-- Generator: Adobe Illustrator 19.0.0, SVG Export Plug-In . SVG Version: 6.00 Build 0)  -->
<svg version="1.1" id="Capa_1" xmlns="http://www.w3.org/2000/svg" xmlns:xlink="http://www.w3.org/1999/xlink" x="0px" y="0px"
	 viewBox="0 0 512 512" style="enable-background:new 0 0 512 512;" xml:space="preserve">
<rect x="66.732" y="72" style="fill:#D0E6EF;" width="80" height="36"/>
<path style="fill:#FDB954;" d="M161.509,36h-108c-9.941,0-18,8.059-18,18l0,0c0,9.941,8.059,18,18,18h108c9.941,0,18-8.059,18-18
	l0,0C179.509,44.059,171.451,36,161.509,36z"/>
<rect x="10" y="436" style="fill:#657FC9;" width="492" height="40"/>
<polygon style="fill:#AAEBF2;" points="448,64 362.797,64 330.732,108 32.065,108 32.065,436 480.065,436 480.065,108 "/>
<rect x="181.4" y="108" style="fill:#34BFE0;" width="149.33" height="328"/>
<path d="M502,426h-11.935V108c0-2.117-0.672-4.179-1.918-5.89l-32.065-44C454.199,55.527,451.196,54,448,54h-85.203
	c-3.196,0-6.199,1.527-8.082,4.11L325.646,98H156.731V82h4.778c15.439,0,28-12.561,28-28s-12.561-28-28-28h-108
	c-15.439,0-28,12.561-28,28s12.561,28,28,28h3.222v16H32.065c-5.523,0-10,4.478-10,10v318H10c-5.523,0-10,4.478-10,10v40
	c0,5.522,4.477,10,10,10h492c5.523,0,10-4.478,10-10v-40C512,430.478,507.523,426,502,426z M45.509,54c0-4.411,3.589-8,8-8h108
	c4.411,0,8,3.589,8,8s-3.589,8-8,8h-14.778h-80H53.509C49.098,62,45.509,58.411,45.509,54z M76.731,82h60v16h-60V82z M42.065,118
	h129.333v236c0,5.522,4.477,10,10,10s10-4.478,10-10V118H431c5.523,0,10-4.478,10-10s-4.477-10-10-10h-80.607l17.49-24h75.031
	l27.151,37.257V426H340.731V196.359c0-5.522-4.477-10-10-10s-10,4.478-10,10V426H42.065V118z M492,466H20v-20h12.065h448H492V466z"
	/>
<path d="M181.4,386c-2.63,0-5.21,1.069-7.07,2.93c-1.86,1.86-2.93,4.44-2.93,7.07s1.07,5.21,2.93,7.069
	c1.86,1.86,4.44,2.931,7.07,2.931s5.21-1.07,7.07-2.931c1.86-1.859,2.93-4.439,2.93-7.069s-1.07-5.21-2.93-7.07
	C186.61,387.069,184.03,386,181.4,386z"/>
<path d="M330.73,164c2.64,0,5.21-1.07,7.07-2.931c1.86-1.859,2.93-4.439,2.93-7.069s-1.07-5.21-2.93-7.07s-4.43-2.93-7.07-2.93
	c-2.63,0-5.21,1.069-7.07,2.93c-1.86,1.86-2.93,4.44-2.93,7.07s1.07,5.21,2.93,7.069C325.52,162.93,328.1,164,330.73,164z"/>
<path d="M295,144h-77.986c-5.523,0-10,4.478-10,10s4.477,10,10,10H295c5.523,0,10-4.478,10-10S300.523,144,295,144z"/>
<path d="M295,184h-77.986c-5.523,0-10,4.478-10,10s4.477,10,10,10H295c5.523,0,10-4.478,10-10S300.523,184,295,184z"/>
<path d="M295,224h-77.986c-5.523,0-10,4.478-10,10s4.477,10,10,10H295c5.523,0,10-4.478,10-10S300.523,224,295,224z"/>
<path d="M295,264h-77.986c-5.523,0-10,4.478-10,10s4.477,10,10,10H295c5.523,0,10-4.478,10-10S300.523,264,295,264z"/>
<path d="M295,304h-77.986c-5.523,0-10,4.478-10,10s4.477,10,10,10H295c5.523,0,10-4.478,10-10S300.523,304,295,304z"/>
<path d="M295,344h-77.986c-5.523,0-10,4.478-10,10s4.477,10,10,10H295c5.523,0,10-4.478,10-10S300.523,344,295,344z"/>
<path d="M295,384h-77.986c-5.523,0-10,4.478-10,10s4.477,10,10,10H295c5.523,0,10-4.478,10-10S300.523,384,295,384z"/>
<path d="M145.725,144H67.739c-5.523,0-10,4.478-10,10s4.477,10,10,10h77.986c5.523,0,10-4.478,10-10S151.248,144,145.725,144z"/>
<path d="M145.725,184H67.739c-5.523,0-10,4.478-10,10s4.477,10,10,10h77.986c5.523,0,10-4.478,10-10S151.248,184,145.725,184z"/>
<path d="M145.725,224H67.739c-5.523,0-10,4.478-10,10s4.477,10,10,10h77.986c5.523,0,10-4.478,10-10S151.248,224,145.725,224z"/>
<path d="M145.725,264H67.739c-5.523,0-10,4.478-10,10s4.477,10,10,10h77.986c5.523,0,10-4.478,10-10S151.248,264,145.725,264z"/>
<path d="M145.725,304H67.739c-5.523,0-10,4.478-10,10s4.477,10,10,10h77.986c5.523,0,10-4.478,10-10S151.248,304,145.725,304z"/>
<path d="M145.725,344H67.739c-5.523,0-10,4.478-10,10s4.477,10,10,10h77.986c5.523,0,10-4.478,10-10S151.248,344,145.725,344z"/>
<path d="M145.725,384H67.739c-5.523,0-10,4.478-10,10s4.477,10,10,10h77.986c5.523,0,10-4.478,10-10S151.248,384,145.725,384z"/>
<path d="M366.421,164h77.986c5.523,0,10-4.478,10-10s-4.477-10-10-10h-77.986c-5.523,0-10,4.478-10,10S360.898,164,366.421,164z"/>
<path d="M366.421,204h77.986c5.523,0,10-4.478,10-10s-4.477-10-10-10h-77.986c-5.523,0-10,4.478-10,10S360.898,204,366.421,204z"/>
<path d="M366.421,244h77.986c5.523,0,10-4.478,10-10s-4.477-10-10-10h-77.986c-5.523,0-10,4.478-10,10S360.898,244,366.421,244z"/>
<path d="M366.421,284h77.986c5.523,0,10-4.478,10-10s-4.477-10-10-10h-77.986c-5.523,0-10,4.478-10,10S360.898,284,366.421,284z"/>
<path d="M366.421,324h77.986c5.523,0,10-4.478,10-10s-4.477-10-10-10h-77.986c-5.523,0-10,4.478-10,10S360.898,324,366.421,324z"/>
<path d="M366.421,364h77.986c5.523,0,10-4.478,10-10s-4.477-10-10-10h-77.986c-5.523,0-10,4.478-10,10S360.898,364,366.421,364z"/>
<path d="M366.421,404h77.986c5.523,0,10-4.478,10-10s-4.477-10-10-10h-77.986c-5.523,0-10,4.478-10,10S360.898,404,366.421,404z"/>
<g>
</g>
<g>
</g>
<g>
</g>
<g>
</g>
<g>
</g>
<g>
</g>
<g>
</g>
<g>
</g>
<g>
</g>
<g>
</g>
<g>
</g>
<g>
</g>
<g>
</g>
<g>
</g>
<g>
</g>
</svg>
