<?xml version="1.0" encoding="iso-8859-1"?>
<!-- Generator: Adobe Illustrator 19.0.0, SVG Export Plug-In . SVG Version: 6.00 Build 0)  -->
<svg version="1.1" id="Capa_1" xmlns="http://www.w3.org/2000/svg" xmlns:xlink="http://www.w3.org/1999/xlink" x="0px" y="0px"
	 viewBox="0 0 512 512" style="enable-background:new 0 0 512 512;" xml:space="preserve">
<circle style="fill:#AAEBF2;" cx="256" cy="256" r="246"/>
<circle style="fill:#F4F4F4;" cx="256" cy="256" r="200"/>
<path style="fill:#34BFE0;" d="M499.927,288.021l-178.892-35.588C308.356,229.577,283.99,214.1,256,214.1
	s-52.356,15.477-65.035,38.333L12.073,288.021c4.315,33.194,15.252,64.304,31.435,91.976h70.338
	c47.117,0,85.314,38.196,85.314,85.314v30.077C217.406,499.704,236.434,502,256,502c19.591,0,38.642-2.303,56.91-6.63v-30.06
	c0-47.117,38.196-85.314,85.313-85.314h70.269C484.675,352.325,495.612,321.215,499.927,288.021z"/>
<circle style="fill:#657FC9;" cx="256" cy="287.8" r="32"/>
<path d="M256,245.801c-23.159,0-42,18.841-42,42s18.841,42,42,42s42-18.841,42-42S279.159,245.801,256,245.801z M256,309.801
	c-12.131,0-22-9.869-22-22s9.869-22,22-22c12.131,0,22,9.869,22,22S268.131,309.801,256,309.801z"/>
<path d="M437.019,74.98C388.667,26.629,324.38,0,256,0S123.333,26.629,74.981,74.98C26.628,123.333,0,187.62,0,256
	s26.628,132.667,74.981,181.02C123.333,485.371,187.62,512,256,512s132.667-26.629,181.019-74.98
	C485.372,388.667,512,324.38,512,256S485.372,123.333,437.019,74.98z M256,20c130.131,0,236,105.869,236,236
	c0,6.763-0.302,13.456-0.863,20.077L327.36,243.496C311.964,219.079,285.042,204.1,256,204.1c-29.043,0-55.964,14.979-71.36,39.396
	l-163.777,32.58C20.302,269.456,20,262.763,20,256C20,125.869,125.869,20,256,20z M61.844,389.997h52.001
	c41.528,0,75.313,33.785,75.313,75.313v17.034C136.911,466.888,92.168,433.801,61.844,389.997z M209.159,487.324v-22.013
	c0-52.556-42.757-95.313-95.313-95.313H49.42c-12.559-22.668-21.493-47.606-26.02-74.034l169.516-33.722
	c2.883-0.573,5.368-2.386,6.793-4.957C211.065,236.815,232.634,224.1,256,224.1s44.935,12.716,56.291,33.185
	c1.426,2.571,3.911,4.384,6.793,4.957l169.515,33.722c-4.527,26.427-13.461,51.366-26.02,74.034h-64.356
	c-52.556,0-95.313,42.758-95.313,95.313v22C287.744,490.381,272.058,492,256,492C239.966,492,224.303,490.386,209.159,487.324z
	 M322.91,482.324v-17.013c0-41.528,33.786-75.313,75.313-75.313h51.932C419.845,433.781,375.128,466.859,322.91,482.324z"/>
<path d="M56.266,241.448c0.413,0.051,0.823,0.075,1.229,0.075c4.979,0,9.292-3.716,9.913-8.784l0.055-0.445
	c0.676-5.481-3.219-10.473-8.7-11.149c-5.484-0.666-10.473,3.219-11.149,8.7l-0.057,0.461
	C46.885,235.787,50.784,240.776,56.266,241.448z"/>
<path d="M63.175,201.779c5.236,1.759,10.905-1.061,12.663-6.297C101.842,118.035,174.243,66,256,66
	c83.625,0,156.528,53.584,181.41,133.338c1.336,4.28,5.284,7.024,9.543,7.024c0.986,0,1.99-0.147,2.981-0.457
	c5.272-1.645,8.212-7.252,6.568-12.524c-13.047-41.816-39.655-79.358-74.922-105.71C345.095,60.409,301.67,46,256,46
	c-90.359,0-170.38,57.515-199.122,143.117C55.121,194.353,57.94,200.021,63.175,201.779z"/>
<path d="M454.076,225.563c-5.501,0.491-9.563,5.349-9.071,10.85c0.005,0.059,0.02,0.2,0.026,0.259
	c0.55,5.133,4.896,8.981,9.946,8.981c0.352,0,0.708-0.019,1.067-0.058c5.491-0.588,9.471-5.47,8.882-10.962
	C464.434,229.133,459.572,225.058,454.076,225.563z"/>
<g>
</g>
<g>
</g>
<g>
</g>
<g>
</g>
<g>
</g>
<g>
</g>
<g>
</g>
<g>
</g>
<g>
</g>
<g>
</g>
<g>
</g>
<g>
</g>
<g>
</g>
<g>
</g>
<g>
</g>
</svg>
