<?xml version="1.0" encoding="iso-8859-1"?>
<!-- Generator: Adobe Illustrator 19.0.0, SVG Export Plug-In . SVG Version: 6.00 Build 0)  -->
<svg version="1.1" id="Capa_1" xmlns="http://www.w3.org/2000/svg" xmlns:xlink="http://www.w3.org/1999/xlink" x="0px" y="0px"
	 viewBox="0 0 512 512" style="enable-background:new 0 0 512 512;" xml:space="preserve">
<path style="fill:#FDB954;" d="M428,10h-44c-7.732,0-14,6.268-14,14l0,0c0,7.732,6.268,14,14,14h44c7.732,0,14-6.268,14-14l0,0
	C442,16.268,435.732,10,428,10z"/>
<circle style="fill:#D0E6EF;" cx="406" cy="160" r="96"/>
<path style="fill:#657FC9;" d="M156,166H40c-16.569,0-30,13.431-30,30v276c0,16.569,13.431,30,30,30h116c16.569,0,30-13.431,30-30
	V196C186,179.431,172.569,166,156,166z"/>
<path d="M512,160c0-28.313-11.026-54.933-31.047-74.953c-14.363-14.363-32.399-24.246-52.158-28.579
	c-4.236-0.929-8.51-1.58-12.795-1.986V48h12c13.233,0,24-10.767,24-24S441.233,0,428,0h-44c-13.233,0-24,10.767-24,24
	s10.767,24,24,24h12v6.464c-8.465,0.799-16.84,2.615-24.945,5.439c-5.215,1.817-7.971,7.518-6.153,12.733
	c1.816,5.215,7.517,7.971,12.733,6.153c30.984-10.796,65.99-2.787,89.176,20.4C483.055,115.433,492,137.029,492,160
	s-8.945,44.567-25.189,60.811C450.567,237.055,428.971,246,406,246s-44.567-8.945-60.811-25.189
	c-23.829-23.828-31.554-59.611-19.681-91.162c1.945-5.169-0.668-10.937-5.837-12.882c-5.171-1.946-10.938,0.669-12.882,5.837
	c-14.632,38.883-5.11,82.982,24.257,112.35c17.645,17.645,40.415,28.298,64.953,30.579V295c0,15.99-13.01,29-29,29
	c-5.522,0-10,4.478-10,10s4.478,10,10,10c27.019,0,49-21.981,49-49v-29.468c24.538-2.281,47.309-12.935,64.953-30.579
	C500.974,214.933,512,188.313,512,160z M380,24c0-2.206,1.794-4,4-4h44c2.206,0,4,1.794,4,4s-1.794,4-4,4h-44
	C381.794,28,380,26.206,380,24z"/>
<path d="M337.673,102.565c2.57,0,5.14-0.984,7.094-2.952l0.399-0.401c3.918-3.892,3.938-10.224,0.046-14.142
	c-3.891-3.918-10.224-3.94-14.142-0.046l-0.491,0.493c-3.893,3.918-3.872,10.25,0.046,14.142
	C332.575,101.598,335.124,102.565,337.673,102.565z"/>
<path d="M453.071,112.929c-3.906-3.904-10.236-3.904-14.143,0l-23.033,23.033C412.844,134.7,409.502,134,406,134
	c-14.337,0-26,11.663-26,26s11.663,26,26,26s26-11.663,26-26c0-3.503-0.7-6.844-1.961-9.896l23.033-23.033
	C456.977,123.166,456.977,116.834,453.071,112.929z M406,166c-3.309,0-6-2.691-6-6s2.691-6,6-6s6,2.691,6,6S409.309,166,406,166z"/>
<path d="M296.833,324H295c-27.019,0-49,21.981-49,49c0,15.99-13.01,29-29,29h-21V196c0-22.056-17.944-40-40-40H40
	c-22.056,0-40,17.944-40,40v276c0,22.056,17.944,40,40,40h116c22.056,0,40-17.944,40-40v-50h21c27.019,0,49-21.981,49-49
	c0-15.99,13.01-29,29-29h1.833c5.522,0,10-4.478,10-10S302.355,324,296.833,324z M156,176c3.728,0,7.208,1.044,10.198,2.826
	l-42.853,42.852c-3.905,3.905-3.905,10.237,0,14.143c1.953,1.952,4.512,2.929,7.071,2.929c2.559,0,5.118-0.977,7.071-2.929
	L176,197.31v40.127c-1.52,0.462-2.952,1.291-4.154,2.492l-48.5,48.5c-3.905,3.905-3.905,10.237,0,14.143
	c1.953,1.952,4.512,2.929,7.071,2.929c2.559,0,5.118-0.977,7.071-2.929L176,264.06v40.127c-1.52,0.462-2.952,1.291-4.154,2.492
	l-48.5,48.5c-3.905,3.905-3.905,10.237,0,14.143c1.953,1.952,4.512,2.929,7.071,2.929c2.559,0,5.118-0.977,7.071-2.929L176,330.81
	v40.127c-1.52,0.462-2.952,1.291-4.154,2.492l-48.5,48.5c-3.905,3.905-3.905,10.237,0,14.143c1.953,1.952,4.512,2.929,7.071,2.929
	c2.559,0,5.118-0.977,7.071-2.929L176,397.56v40.127c-1.52,0.462-2.952,1.291-4.154,2.492l-48.5,48.5
	c-0.98,0.98-1.713,2.113-2.201,3.321h-46.29c-0.488-1.209-1.221-2.341-2.201-3.321l-48.5-48.5c-1.202-1.201-2.634-2.03-4.154-2.492
	V397.56l38.512,38.512c1.953,1.952,4.512,2.929,7.071,2.929s5.118-0.977,7.071-2.929c3.905-3.905,3.905-10.237,0-14.143l-48.5-48.5
	c-1.202-1.201-2.634-2.03-4.154-2.492V330.81l38.512,38.512c1.953,1.952,4.512,2.929,7.071,2.929s5.118-0.977,7.071-2.929
	c3.905-3.905,3.905-10.237,0-14.143l-48.5-48.5c-1.202-1.201-2.634-2.03-4.154-2.492V264.06l38.512,38.512
	c1.953,1.952,4.512,2.929,7.071,2.929s5.118-0.977,7.071-2.929c3.905-3.905,3.905-10.237,0-14.143l-48.5-48.5
	c-1.202-1.201-2.634-2.03-4.154-2.492V197.31l38.512,38.512c1.953,1.952,4.512,2.929,7.071,2.929s5.118-0.977,7.071-2.929
	c3.905-3.905,3.905-10.237,0-14.143l-42.853-42.852C32.792,177.044,36.272,176,40,176H156z M20,472v-7.69L47.69,492H40
	C28.972,492,20,483.028,20,472z M156,492h-7.69L176,464.31V472C176,483.028,167.028,492,156,492z"/>
<path d="M333,324c-2.63,0-5.21,1.069-7.07,2.93S323,331.37,323,334s1.069,5.21,2.93,7.069c1.86,1.86,4.44,2.931,7.07,2.931
	s5.21-1.07,7.069-2.931C341.93,339.21,343,336.63,343,334c0-2.641-1.07-5.21-2.931-7.07C338.21,325.069,335.63,324,333,324z"/>
<g>
</g>
<g>
</g>
<g>
</g>
<g>
</g>
<g>
</g>
<g>
</g>
<g>
</g>
<g>
</g>
<g>
</g>
<g>
</g>
<g>
</g>
<g>
</g>
<g>
</g>
<g>
</g>
<g>
</g>
</svg>
