<?xml version="1.0" encoding="iso-8859-1"?>
<!-- Generator: Adobe Illustrator 19.0.0, SVG Export Plug-In . SVG Version: 6.00 Build 0)  -->
<svg version="1.1" id="Capa_1" xmlns="http://www.w3.org/2000/svg" xmlns:xlink="http://www.w3.org/1999/xlink" x="0px" y="0px"
	 viewBox="0 0 512 512" style="enable-background:new 0 0 512 512;" xml:space="preserve">
<g>
	<rect x="75" y="46.78" style="fill:#6EA3D3;" width="96" height="50.44"/>
	<rect x="341" y="46.78" style="fill:#6EA3D3;" width="96" height="50.44"/>
	<polygon style="fill:#6EA3D3;" points="313,425.22 502,425.22 502,465.22 10,465.22 10,425.22 203,425.22 	"/>
</g>
<path style="fill:#D0E6EF;" d="M480.065,425.22v-308c0-11.046-8.954-20-20-20h-408c-11.046,0-20,8.954-20,20v308H480.065z"/>
<polygon style="fill:#FE947C;" points="296.953,161.303 234.884,161.303 181.458,292.511 266.805,292.511 239.205,385.22 
	339.827,247.574 258.065,247.574 "/>
<path d="M256.065,107.22h0.373c5.523,0,10-4.477,10-10s-4.477-10-10-10h-0.373c-5.523,0-10,4.477-10,10
	S250.542,107.22,256.065,107.22z"/>
<path d="M502,415.22h-11.935v-298c0-16.542-13.458-30-30-30H447V46.78c0-5.523-4.477-10-10-10h-96c-5.523,0-10,4.477-10,10v40.44
	h-31c-5.523,0-10,4.477-10,10s4.477,10,10,10h160.065c5.514,0,10,4.486,10,10v298H313c-5.523,0-10,4.477-10,10s4.477,10,10,10h179
	v20H20v-20h183c5.523,0,10-4.477,10-10s-4.477-10-10-10H42.065v-298c0-5.514,4.486-10,10-10H212.5c5.523,0,10-4.477,10-10
	s-4.477-10-10-10H181V46.78c0-5.523-4.477-10-10-10H75c-5.523,0-10,4.477-10,10v40.44H52.065c-16.542,0-30,13.458-30,30v298H10
	c-5.523,0-10,4.477-10,10v40c0,5.523,4.477,10,10,10h492c5.523,0,10-4.477,10-10v-40C512,419.698,507.523,415.22,502,415.22z
	 M351,87.22V56.78h76v30.44H351z M85,56.78h76v30.44H85V56.78z"/>
<path d="M248.99,418.15c-1.86,1.86-2.93,4.44-2.93,7.07s1.07,5.21,2.93,7.07c1.87,1.86,4.44,2.93,7.07,2.93
	c2.64,0,5.21-1.07,7.08-2.93c1.86-1.86,2.92-4.44,2.92-7.07s-1.06-5.21-2.92-7.07c-1.86-1.86-4.44-2.93-7.08-2.93
	C253.43,415.22,250.85,416.29,248.99,418.15z"/>
<path d="M123,200.237c5.523,0,10-4.477,10-10v-18.934h18.934c5.523,0,10-4.477,10-10s-4.477-10-10-10H133V132.37
	c0-5.523-4.477-10-10-10s-10,4.477-10,10v18.933H94.066c-5.523,0-10,4.477-10,10s4.477,10,10,10H113v18.934
	C113,195.76,117.477,200.237,123,200.237z"/>
<path d="M417.934,171.303c5.523,0,10-4.477,10-10s-4.477-10-10-10h-57.867c-5.523,0-10,4.477-10,10s4.477,10,10,10H417.934z"/>
<path d="M173.161,298.092c1.858,2.763,4.969,4.419,8.298,4.419h71.936l-23.773,79.856c-1.388,4.664,0.782,9.65,5.143,11.812
	c1.419,0.704,2.937,1.042,4.437,1.042c3.107,0,6.142-1.45,8.078-4.1L347.9,253.476c2.223-3.04,2.549-7.07,0.844-10.428
	c-1.705-3.358-5.151-5.473-8.917-5.473h-66.286l32.528-72.162c1.395-3.094,1.125-6.686-0.717-9.537s-5.005-4.573-8.399-4.573
	h-62.068c-4.066,0-7.728,2.462-9.262,6.229L172.197,288.74C170.941,291.823,171.303,295.329,173.161,298.092z M241.61,171.303
	h39.866l-32.528,72.162c-1.395,3.095-1.125,6.686,0.717,9.537s5.005,4.573,8.399,4.573h62.065l-54.812,74.981l11.072-37.191
	c0.901-3.026,0.319-6.3-1.568-8.831s-4.859-4.022-8.017-4.022h-70.478L241.61,171.303z"/>
<g>
</g>
<g>
</g>
<g>
</g>
<g>
</g>
<g>
</g>
<g>
</g>
<g>
</g>
<g>
</g>
<g>
</g>
<g>
</g>
<g>
</g>
<g>
</g>
<g>
</g>
<g>
</g>
<g>
</g>
</svg>
