<?xml version="1.0" encoding="iso-8859-1"?>
<!-- Generator: Adobe Illustrator 19.0.0, SVG Export Plug-In . SVG Version: 6.00 Build 0)  -->
<svg version="1.1" id="Capa_1" xmlns="http://www.w3.org/2000/svg" xmlns:xlink="http://www.w3.org/1999/xlink" x="0px" y="0px"
	 viewBox="0 0 512 512" style="enable-background:new 0 0 512 512;" xml:space="preserve">
<path style="fill:#FEB756;" d="M502,159.939h-31.512c-27.04,0-53.004-11.268-70.972-31.474
	C364.349,88.916,313.085,64.001,256,64.001s-108.349,24.915-143.516,64.462c-17.969,20.207-43.932,31.474-70.972,31.474H10v192.127
	h31.512c27.04,0,53.004,11.268,70.972,31.474C147.651,423.085,198.915,448,256,448s108.349-24.915,143.516-64.462
	c17.969-20.207,43.932-31.474,70.972-31.474H502V159.939z"/>
<circle style="fill:#D0E6EF;" cx="256" cy="256" r="144"/>
<circle style="fill:#657FC9;" cx="256" cy="256" r="72"/>
<circle style="fill:#D0E6EF;" cx="256" cy="256" r="28"/>
<path d="M256,74.001c0.034,0,0.068,0,0.103-0.001c6.363-0.064,10.127-5.176,10.089-10.079c-0.037-4.888-3.854-9.923-10.183-9.923
	c-0.02,0-0.041,0-0.062,0.001c-6.363,0.032-10.153,5.123-10.141,10.027C245.819,68.93,249.636,74.001,256,74.001z"/>
<path d="M502,149.939h-31.512c-24.464,0-47.608-10.249-63.5-28.12c-28.515-32.065-65.608-53.875-107.271-63.07
	c-5.385-1.187-10.729,2.216-11.92,7.609s2.217,10.729,7.609,11.92c37.523,8.282,70.939,27.934,96.637,56.832
	c19.683,22.134,48.275,34.829,78.445,34.829H492v172.127h-21.512c-30.17,0-58.763,12.695-78.445,34.829
	C357.51,415.729,307.924,438.001,256,438.001s-101.51-22.272-136.043-61.107c-19.683-22.134-48.275-34.829-78.445-34.829H20V169.939
	h21.512c30.17,0,58.763-12.695,78.445-34.829c24.821-27.914,57.01-47.281,93.086-56.01c5.368-1.299,8.667-6.703,7.368-12.071
	c-1.298-5.367-6.702-8.668-12.071-7.368c-40.056,9.691-75.786,31.186-103.328,62.158c-15.892,17.871-39.036,28.12-63.5,28.12H10
	c-5.522,0-10,4.478-10,10v192.127c0,5.522,4.478,10,10,10h31.512c24.464,0,47.608,10.249,63.5,28.12
	c38.325,43.099,93.358,67.816,150.988,67.816s112.663-24.718,150.988-67.816c15.892-17.871,39.036-28.12,63.5-28.12H502
	c5.522,0,10-4.478,10-10V159.939C512,154.417,507.522,149.939,502,149.939z"/>
<path d="M310.085,400.234c29.046-10.897,53.889-30.11,71.841-55.563c18.366-26.038,28.074-56.7,28.074-88.67
	c0-84.916-69.084-154-154-154s-154,69.084-154,154c0,64.653,40.83,122.865,101.6,144.853c1.124,0.406,2.272,0.6,3.401,0.6
	c4.092-0.001,7.932-2.531,9.404-6.601c1.879-5.193-0.808-10.927-6.001-12.806C157.527,362.916,122,312.262,122,256.001
	c0-73.888,60.112-134,134-134s134,60.112,134,134c0,55.561-34.938,105.998-86.94,125.506c-5.171,1.94-7.79,7.705-5.851,12.876
	S304.913,402.172,310.085,400.234z"/>
<path d="M338,256.001c0-45.215-36.785-82-82-82s-82,36.785-82,82s36.785,82,82,82S338,301.216,338,256.001z M256,318.001
	c-34.187,0-62-27.813-62-62s27.813-62,62-62s62,27.813,62,62S290.187,318.001,256,318.001z"/>
<path d="M256,218.002c-20.953,0-38,17.047-38,38s17.047,38,38,38s38-17.047,38-38S276.953,218.002,256,218.002z M256,274.001
	c-9.925,0-18-8.075-18-18c0-9.925,8.075-18,18-18c9.925,0,18,8.075,18,18C274,265.927,265.925,274.001,256,274.001z"/>
<path d="M371.228,263.095l0.154-0.153c3.917-3.894,3.938-10.225,0.045-14.143c-3.894-3.917-10.224-3.937-14.143-0.045l-0.154,0.153
	c-3.917,3.894-3.938,10.225-0.045,14.143c1.955,1.967,4.523,2.951,7.094,2.951C366.728,266.001,369.276,265.033,371.228,263.095z"/>
<path d="M263.247,357.286l-0.153-0.154c-3.895-3.917-10.225-3.936-14.143-0.045c-3.917,3.894-3.938,10.225-0.045,14.143l0.153,0.154
	c1.955,1.967,4.523,2.951,7.094,2.951c2.549,0,5.098-0.969,7.049-2.906C267.119,367.535,267.14,361.204,263.247,357.286z"/>
<path d="M140.772,248.909l-0.154,0.153c-3.917,3.894-3.938,10.225-0.045,14.143c1.955,1.967,4.523,2.951,7.094,2.951
	c2.549,0,5.098-0.969,7.049-2.906l0.154-0.153c3.917-3.894,3.938-10.225,0.045-14.143
	C151.021,245.036,144.69,245.017,140.772,248.909z"/>
<path d="M256,157.824c2.549,0,5.098-0.969,7.049-2.906c3.917-3.894,3.938-10.225,0.045-14.143l-0.153-0.154
	c-3.894-3.917-10.224-3.937-14.143-0.045c-3.917,3.894-3.938,10.225-0.045,14.143l0.153,0.154
	C250.861,156.839,253.43,157.824,256,157.824z"/>
<path d="M332.712,322.496h-0.218c-5.522,0-10,4.478-10,10s4.478,10,10,10h0.218c5.522,0,10-4.478,10-10
	S338.234,322.496,332.712,322.496z"/>
<path d="M179.506,342.714c5.522,0,10-4.478,10-10v-0.218c0-5.522-4.478-10-10-10s-10,4.478-10,10v0.218
	C169.506,338.236,173.983,342.714,179.506,342.714z"/>
<path d="M179.288,189.508h0.218c5.522,0,10-4.478,10-10s-4.478-10-10-10h-0.218c-5.522,0-10,4.478-10,10
	S173.766,189.508,179.288,189.508z"/>
<path d="M332.494,169.29c-5.522,0-10,4.478-10,10v0.218c0,5.522,4.478,10,10,10s10-4.478,10-10v-0.218
	C342.494,173.768,338.017,169.29,332.494,169.29z"/>
<path d="M256.193,410.003c0.034,0,0.068,0,0.103-0.001c6.363-0.064,10.127-5.176,10.089-10.079
	c-0.037-4.888-3.854-9.923-10.183-9.923c-0.02,0-0.041,0-0.062,0.001c-6.363,0.032-10.153,5.123-10.141,10.027
	C246.013,404.932,249.829,410.003,256.193,410.003z"/>
<g>
</g>
<g>
</g>
<g>
</g>
<g>
</g>
<g>
</g>
<g>
</g>
<g>
</g>
<g>
</g>
<g>
</g>
<g>
</g>
<g>
</g>
<g>
</g>
<g>
</g>
<g>
</g>
<g>
</g>
</svg>
