<?xml version="1.0" encoding="iso-8859-1"?>
<!-- Generator: Adobe Illustrator 19.0.0, SVG Export Plug-In . SVG Version: 6.00 Build 0)  -->
<svg version="1.1" id="Capa_1" xmlns="http://www.w3.org/2000/svg" xmlns:xlink="http://www.w3.org/1999/xlink" x="0px" y="0px"
	 viewBox="0 0 512 512" style="enable-background:new 0 0 512 512;" xml:space="preserve">
<g>
	<rect x="475" y="236.44" style="fill:#D0E6EF;" width="27" height="39.13"/>
	<rect x="10" y="236.44" style="fill:#D0E6EF;" width="27" height="39.13"/>
</g>
<g>
	<path style="fill:#6EA3D3;" d="M435.587,356H435V156h0.587C457.354,156,475,173.646,475,195.413v121.174
		C475,338.354,457.354,356,435.587,356z"/>
	<path style="fill:#6EA3D3;" d="M76.427,156h0.587v200h-0.587c-21.767,0-39.413-17.646-39.413-39.413V195.413
		C37.014,173.646,54.66,156,76.427,156z"/>
</g>
<path style="fill:#F4F4F4;" d="M97.014,396H415c11.046,0,20-8.954,20-20V136c0-11.046-8.954-20-20-20H97.014
	c-11.046,0-20,8.954-20,20v240C77.014,387.046,85.968,396,97.014,396z"/>
<rect x="119.18" y="116" style="fill:#D0E6EF;" width="275.82" height="280"/>
<path d="M154.18,163.069c1.86,1.86,4.44,2.931,7.07,2.931s5.21-1.07,7.069-2.931c1.86-1.859,2.931-4.439,2.931-7.069
	s-1.07-5.21-2.931-7.07c-1.859-1.86-4.439-2.93-7.069-2.93c-2.641,0-5.21,1.069-7.07,2.93c-1.87,1.86-2.93,4.44-2.93,7.07
	S152.31,161.21,154.18,163.069z"/>
<path d="M354.069,348.93C352.21,347.07,349.63,346,347,346s-5.21,1.069-7.07,2.93S337,353.37,337,356s1.069,5.21,2.93,7.069
	c1.86,1.86,4.44,2.931,7.07,2.931s5.21-1.07,7.069-2.931C355.93,361.21,357,358.63,357,356S355.93,350.79,354.069,348.93z"/>
<path d="M502,226.437h-17v-31.023c0-24.027-17.242-44.094-40-48.503V136c0-16.542-13.458-30-30-30H97.014c-16.542,0-30,13.458-30,30
	v10.91c-22.758,4.409-40,24.476-40,48.503v31.023H10c-5.522,0-10,4.478-10,10v39.127c0,5.522,4.478,10,10,10h17.014v31.023
	c0,24.027,17.242,44.094,40,48.503V376c0,16.542,13.458,30,30,30H415c16.542,0,30-13.458,30-30v-10.91
	c22.758-4.409,40-24.476,40-48.503v-31.023h17c5.522,0,10-4.478,10-10v-39.127C512,230.914,507.522,226.437,502,226.437z
	 M27,265.563h-7v-19.127h7V265.563z M385,266H127.014v-20H385V266z M127.014,286H385v20H127.014V286z M385,226H127.014v-20H385V226z
	 M127.014,366h177.508c5.522,0,10-4.478,10-10s-4.478-10-10-10H127.014v-20H385v60H127.014V366z M385,146H199.542
	c-5.522,0-10,4.478-10,10s4.478,10,10,10H385v20H127.014v-60H385V146z M47.014,316.587V195.413c0-12.928,8.384-23.935,20-27.869
	v176.912C55.397,340.521,47.014,329.515,47.014,316.587z M87.014,376v-20V156v-20c0-5.514,4.486-10,10-10h10v260h-10
	C91.5,386,87.014,381.514,87.014,376z M425,376c0,5.514-4.486,10-10,10h-10V126h10c5.514,0,10,4.486,10,10v20v200V376z M465,316.587
	c0,12.928-8.384,23.935-20,27.869V167.544c11.616,3.935,20,14.941,20,27.869v41.023v39.127V316.587z M492,265.563h-7v-19.127h7
	V265.563z"/>
<g>
</g>
<g>
</g>
<g>
</g>
<g>
</g>
<g>
</g>
<g>
</g>
<g>
</g>
<g>
</g>
<g>
</g>
<g>
</g>
<g>
</g>
<g>
</g>
<g>
</g>
<g>
</g>
<g>
</g>
</svg>
