<?xml version="1.0" encoding="iso-8859-1"?>
<!-- Generator: Adobe Illustrator 19.0.0, SVG Export Plug-In . SVG Version: 6.00 Build 0)  -->
<svg version="1.1" id="Capa_1" xmlns="http://www.w3.org/2000/svg" xmlns:xlink="http://www.w3.org/1999/xlink" x="0px" y="0px"
	 viewBox="0 0 512 512" style="enable-background:new 0 0 512 512;" xml:space="preserve">
<rect x="221.12" y="384" style="fill:#8CCEEA;" width="70.02" height="64"/>
<g>
	<rect x="10" y="315.96" style="fill:#D0E6EF;" width="70.02" height="132.04"/>
	<rect x="432.11" y="315.96" style="fill:#D0E6EF;" width="70.02" height="132.04"/>
	<rect x="152.02" y="315.96" style="fill:#D0E6EF;" width="69.1" height="186.04"/>
	<rect x="291.14" y="315.96" style="fill:#D0E6EF;" width="69.1" height="186.04"/>
</g>
<g>
	<rect x="80.02" y="290.81" style="fill:#8CCEEA;" width="72" height="108"/>
	<rect x="360.68" y="290.81" style="fill:#8CCEEA;" width="72" height="108"/>
</g>
<path style="fill:#F4F4F4;" d="M182.228,10H49.814c-7.618,0-13.793,6.175-13.793,13.793V170h23.448l6.897-27.031h99.31L172.573,170
	h23.448V23.793C196.021,16.175,189.845,10,182.228,10z"/>
<g>
	<path style="fill:#6EA3D3;" d="M182.228,10H49.814c-7.618,0-13.793,6.175-13.793,13.793V42h160V23.793
		C196.021,16.175,189.845,10,182.228,10z"/>
	<rect x="92.02" y="142.97" style="fill:#6EA3D3;" width="48" height="147.84"/>
</g>
<path style="fill:#F4F4F4;" d="M462.44,10H330.026c-7.618,0-13.793,6.175-13.793,13.793V170h23.448l6.897-27.031h99.31L452.785,170
	h23.448V23.793C476.233,16.175,470.058,10,462.44,10z"/>
<g>
	<path style="fill:#6EA3D3;" d="M462.44,10H330.026c-7.618,0-13.793,6.175-13.793,13.793V42h160V23.793
		C476.233,16.175,470.058,10,462.44,10z"/>
	<rect x="372.23" y="142.97" style="fill:#6EA3D3;" width="48" height="147.84"/>
</g>
<g>
	<circle style="fill:#FDB954;" cx="116.02" cy="92.15" r="22.07"/>
	<circle style="fill:#FDB954;" cx="396.23" cy="92.15" r="22.07"/>
</g>
<path d="M116.021,60.081c-17.683,0-32.068,14.387-32.068,32.069s14.386,32.069,32.068,32.069s32.069-14.387,32.069-32.069
	S133.703,60.081,116.021,60.081z M116.021,104.22c-6.654,0-12.068-5.414-12.068-12.069s5.414-12.069,12.068-12.069
	c6.655,0,12.069,5.414,12.069,12.069S122.676,104.22,116.021,104.22z"/>
<path d="M99.09,258.069c1.86-1.859,2.93-4.439,2.93-7.069s-1.069-5.21-2.93-7.07S94.65,241,92.02,241s-5.21,1.069-7.069,2.93
	c-1.86,1.86-2.931,4.44-2.931,7.07s1.07,5.21,2.931,7.069C86.81,259.93,89.39,261,92.02,261S97.229,259.93,99.09,258.069z"/>
<path d="M396.233,60.081c-17.683,0-32.069,14.387-32.069,32.069s14.387,32.069,32.069,32.069s32.068-14.387,32.068-32.069
	S413.916,60.081,396.233,60.081z M396.233,104.22c-6.655,0-12.069-5.414-12.069-12.069s5.414-12.069,12.069-12.069
	c6.654,0,12.068,5.414,12.068,12.069S402.888,104.22,396.233,104.22z"/>
<path d="M502,305.962h-59.767v-15.151c0-5.522-4.478-10-10-10h-2V152.969h7.887l4.976,19.503c1.13,4.43,5.119,7.528,9.689,7.528
	h23.448c5.522,0,10-4.478,10-10V23.793C486.233,10.674,475.56,0,462.44,0H330.026c-13.119,0-23.793,10.674-23.793,23.793V170
	c0,5.522,4.478,10,10,10h23.448c4.57,0,8.56-3.099,9.689-7.528l4.976-19.503h7.887v52.616c0,5.522,4.478,10,10,10s10-4.478,10-10
	v-52.616h28v127.842h-50c-5.522,0-10,4.478-10,10v15.151h-59.096c-5.522,0-10,4.478-10,10V374h-50.021v-58.038
	c0-5.522-4.478-10-10-10H162.02v-15.151c0-5.522-4.478-10-10-10h-2V152.969h7.887l4.976,19.503c1.13,4.43,5.119,7.528,9.689,7.528
	h23.448c5.522,0,10-4.478,10-10V23.793C206.021,10.674,195.347,0,182.228,0H49.813C36.694,0,26.021,10.674,26.021,23.793V170
	c0,5.522,4.478,10,10,10h23.448c4.57,0,8.56-3.099,9.689-7.528l4.976-19.503h7.887V211c0,5.522,4.478,10,10,10s10-4.478,10-10
	v-58.031h28v127.842h-50c-5.522,0-10,4.478-10,10v15.151H10c-5.522,0-10,4.478-10,10V448c0,5.522,4.478,10,10,10h70.021
	c5.522,0,10-4.478,10-10v-39.189h52V502c0,5.522,4.478,10,10,10h69.096c5.522,0,10-4.478,10-10v-44h50.021v44
	c0,5.522,4.478,10,10,10h69.096c5.522,0,10-4.478,10-10v-93.189h52V448c0,5.522,4.478,10,10,10H502c5.522,0,10-4.478,10-10V315.962
	C512,310.439,507.522,305.962,502,305.962z M330.026,20H462.44c2.092,0,3.793,1.701,3.793,3.793V32h-140v-8.207
	C326.233,21.701,327.935,20,330.026,20z M372.233,132.969h-25.655c-4.57,0-8.56,3.099-9.689,7.528L331.913,160h-5.68V52h140v108
	h-5.68l-4.976-19.503c-1.13-4.43-5.119-7.528-9.689-7.528h-25.655H372.233z M49.813,20h132.414c2.092,0,3.793,1.701,3.793,3.793V32
	h-140v-8.207C46.021,21.701,47.722,20,49.813,20z M92.021,132.969H66.365c-4.57,0-8.56,3.099-9.689,7.528L51.7,160h-5.68V52h140v108
	h-5.68l-4.976-19.503c-1.13-4.43-5.119-7.528-9.689-7.528H140.02H92.021z M70.021,438H20V325.962h50.021
	C70.021,325.962,70.021,438,70.021,438z M90.021,388.811v-72.849v-15.151h52v15.151v72.849H90.021z M211.116,492H162.02V325.962
	h49.096V492z M231.116,438v-44h50.021v44H231.116z M350.233,492h-49.096V325.962h49.096V492z M370.233,388.811v-72.849v-15.151h52
	v15.151v72.849H370.233z M492,438h-49.767V325.962H492V438z"/>
<path d="M379.3,258.069c1.87-1.859,2.93-4.439,2.93-7.069s-1.06-5.21-2.93-7.07c-1.86-1.86-4.44-2.93-7.07-2.93
	s-5.21,1.069-7.069,2.93c-1.86,1.86-2.931,4.44-2.931,7.07s1.07,5.21,2.931,7.069c1.859,1.86,4.439,2.931,7.069,2.931
	S377.439,259.93,379.3,258.069z"/>
<g>
</g>
<g>
</g>
<g>
</g>
<g>
</g>
<g>
</g>
<g>
</g>
<g>
</g>
<g>
</g>
<g>
</g>
<g>
</g>
<g>
</g>
<g>
</g>
<g>
</g>
<g>
</g>
<g>
</g>
</svg>
