<?xml version="1.0" encoding="iso-8859-1"?>
<!-- Generator: Adobe Illustrator 19.0.0, SVG Export Plug-In . SVG Version: 6.00 Build 0)  -->
<svg version="1.1" id="Capa_1" xmlns="http://www.w3.org/2000/svg" xmlns:xlink="http://www.w3.org/1999/xlink" x="0px" y="0px"
	 viewBox="0 0 512.002 512.002" style="enable-background:new 0 0 512.002 512.002;" xml:space="preserve">
<path style="fill:#6EA3D3;" d="M33.319,377.873l100.806,100.806c-1.744,6.181-0.194,13.096,4.67,17.96
	c7.16,7.16,18.77,7.16,25.931,0c4.32-4.32,6.018-10.257,5.121-15.859l61.998-61.998c5.603,0.896,11.539-0.801,15.859-5.121
	c4.32-4.32,6.018-10.257,5.121-15.859l61.998-61.998c5.603,0.896,11.539-0.801,15.859-5.121c4.32-4.32,6.018-10.257,5.121-15.859
	l61.998-61.998c5.603,0.896,11.539-0.801,15.859-5.121c4.32-4.32,6.018-10.257,5.121-15.859l61.998-61.998
	c5.603,0.896,11.539-0.801,15.859-5.121c7.16-7.16,7.16-18.77,0-25.931c-4.864-4.864-11.78-6.414-17.96-4.67L377.877,33.316
	c1.744-6.181,0.194-13.096-4.67-17.96c-7.16-7.16-18.77-7.16-25.931,0c-4.83,4.83-6.388,11.684-4.701,17.832l-60.445,60.445
	c-6.148-1.687-13.001-0.129-17.832,4.701c-4.83,4.83-6.388,11.684-4.701,17.832l-60.445,60.445
	c-6.148-1.687-13.001-0.129-17.832,4.701c-4.83,4.83-6.388,11.684-4.701,17.832l-60.445,60.445
	c-6.148-1.687-13.001-0.129-17.832,4.702c-4.83,4.83-6.388,11.684-4.701,17.832l-60.445,60.445
	c-6.148-1.687-13.001-0.129-17.832,4.702c-7.16,7.16-7.16,18.77,0,25.931C20.224,378.067,27.139,379.617,33.319,377.873z"/>
<g>
	<circle style="fill:#FFFFFF;" cx="380.471" cy="131.535" r="36.672"/>
	<circle style="fill:#FFFFFF;" cx="297.497" cy="214.509" r="36.672"/>
	<circle style="fill:#FFFFFF;" cx="214.512" cy="297.483" r="36.672"/>
	<circle style="fill:#FFFFFF;" cx="131.538" cy="380.467" r="36.672"/>
</g>
<path d="M347.468,98.527c-8.815,8.814-13.671,20.535-13.671,33.003c0,12.467,4.854,24.187,13.67,33.003
	c9.099,9.098,21.05,13.648,33.002,13.648c11.953,0,23.904-4.55,33.003-13.648c18.197-18.198,18.197-47.808,0-66.005
	c-8.815-8.814-20.536-13.671-33.003-13.671C368.003,84.856,356.284,89.713,347.468,98.527z M399.33,150.39
	c-10.4,10.4-27.321,10.4-37.719,0c-5.038-5.037-7.812-11.736-7.812-18.859c0-7.124,2.774-13.822,7.812-18.859
	c5.037-5.038,11.735-7.813,18.859-7.813c7.124,0,13.822,2.774,18.859,7.813C409.728,123.069,409.728,139.99,399.33,150.39z"/>
<path d="M344.164,214.509c0-12.467-4.855-24.188-13.67-33.003c-18.198-18.196-47.806-18.196-66.005,0
	c-8.814,8.814-13.67,20.536-13.67,33.003c0,12.467,4.854,24.188,13.67,33.003l0,0c9.098,9.098,21.05,13.648,33.002,13.648
	c11.952,0,23.903-4.55,33.002-13.648C339.309,238.696,344.164,226.976,344.164,214.509z M316.351,233.368
	c-10.399,10.399-27.319,10.399-37.719,0l0,0c-5.038-5.037-7.812-11.735-7.812-18.859s2.774-13.822,7.811-18.859
	c10.4-10.4,27.32-10.4,37.72,0c5.037,5.037,7.812,11.735,7.812,18.859S321.388,228.331,316.351,233.368z"/>
<path d="M261.185,297.487c0-12.467-4.854-24.188-13.67-33.003c-18.197-18.196-47.807-18.196-66.004,0
	c-8.815,8.814-13.671,20.536-13.671,33.003c0,12.467,4.855,24.188,13.671,33.003l0,0c9.1,9.099,21.049,13.649,33.003,13.648
	c11.951-0.002,23.904-4.551,33.003-13.648C256.33,321.675,261.185,309.954,261.185,297.487z M233.372,316.347
	c-10.4,10.4-27.321,10.4-37.719,0l0,0c-5.037-5.037-7.812-11.735-7.812-18.859c0-7.124,2.774-13.822,7.812-18.859
	c5.199-5.199,12.03-7.799,18.859-7.799c6.829,0,13.66,2.6,18.859,7.799c5.038,5.037,7.812,11.735,7.812,18.859
	C241.184,304.612,238.41,311.31,233.372,316.347z"/>
<path d="M98.531,413.469c8.815,8.814,20.536,13.671,33.003,13.671s24.187-4.855,33.002-13.671
	c8.815-8.814,13.671-20.535,13.671-33.003c0-12.467-4.854-24.187-13.67-33.003c-18.199-18.196-47.807-18.196-66.005,0
	C80.334,365.662,80.334,395.272,98.531,413.469z M112.673,361.607c5.2-5.2,12.03-7.799,18.86-7.799c6.829,0,13.661,2.6,18.859,7.799
	c5.038,5.037,7.812,11.736,7.812,18.859c0,7.124-2.774,13.822-7.812,18.859c-5.037,5.038-11.735,7.813-18.859,7.813
	c-7.124,0-13.822-2.774-18.859-7.813C102.275,388.927,102.275,372.006,112.673,361.607z"/>
<path d="M503.715,131.722c-5.739-5.739-13.604-8.663-21.54-8.249l-19.447-19.447c-3.905-3.904-10.238-3.904-14.143,0
	c-3.905,3.905-3.905,10.238,0,14.144l23.027,23.026c2.56,2.561,6.303,3.535,9.787,2.553c2.912-0.819,6.044-0.012,8.171,2.117
	c3.25,3.25,3.25,8.537,0,11.788c-1.901,1.902-4.529,2.748-7.207,2.318c-3.17-0.511-6.384,0.535-8.651,2.803l-61.999,61.998
	c-2.267,2.268-3.31,5.484-2.803,8.651c0.429,2.679-0.417,5.306-2.318,7.208c-1.902,1.9-4.529,2.746-7.209,2.317
	c-3.165-0.506-6.382,0.536-8.649,2.804l-61.998,61.997c-2.268,2.268-3.31,5.484-2.804,8.651c0.429,2.679-0.416,5.306-2.318,7.207
	c-1.902,1.902-4.529,2.751-7.207,2.319c-3.167-0.514-6.384,0.535-8.651,2.803l-61.998,61.998c-2.268,2.268-3.31,5.485-2.804,8.651
	c0.429,2.679-0.416,5.306-2.318,7.207c-1.901,1.902-4.527,2.749-7.208,2.318c-3.169-0.512-6.384,0.535-8.651,2.803l-61.998,61.998
	c-2.267,2.268-3.31,5.484-2.803,8.65c0.428,2.68-0.417,5.307-2.318,7.208c-3.25,3.25-8.538,3.249-11.788,0.001
	c-2.128-2.129-2.939-5.26-2.117-8.173c0.983-3.484,0.007-7.228-2.553-9.788L40.392,370.802c-2.561-2.561-6.304-3.535-9.788-2.553
	c-2.909,0.822-6.043,0.012-8.171-2.117c-3.25-3.25-3.25-8.537,0-11.788c2.109-2.107,5.217-2.924,8.113-2.129
	c3.463,0.947,7.176-0.031,9.718-2.572l60.445-60.445c2.541-2.542,3.523-6.251,2.572-9.717c-0.795-2.897,0.021-6.007,2.13-8.115
	c2.107-2.107,5.218-2.923,8.113-2.129c3.467,0.953,7.175-0.031,9.716-2.572l60.446-60.445c2.542-2.542,3.523-6.252,2.572-9.718
	c-0.795-2.896,0.021-6.005,2.129-8.113c2.107-2.108,5.216-2.926,8.114-2.129c3.465,0.952,7.175-0.031,9.716-2.572l60.446-60.445
	c2.541-2.542,3.523-6.251,2.572-9.718c-0.795-2.896,0.021-6.006,2.128-8.113c2.108-2.107,5.219-2.924,8.113-2.129
	c3.463,0.948,7.176-0.031,9.719-2.572l60.445-60.445c2.542-2.542,3.524-6.251,2.573-9.717c-0.795-2.897,0.021-6.007,2.129-8.114
	c3.25-3.25,8.538-3.249,11.788-0.001c2.128,2.129,2.939,5.26,2.117,8.173c-0.983,3.483-0.007,7.228,2.553,9.787l18.027,18.027
	c3.906,3.904,10.239,3.904,14.143,0c3.905-3.905,3.906-10.238,0-14.144l-14.447-14.447c0.418-7.932-2.511-15.801-8.25-21.54
	c-11.05-11.049-29.026-11.049-40.074,0c-5.69,5.689-8.622,13.502-8.252,21.383l-53.344,53.344
	c-7.885-0.364-15.693,2.563-21.383,8.253c-5.689,5.69-8.62,13.501-8.251,21.382l-53.345,53.345
	c-7.875-0.368-15.692,2.562-21.382,8.252c-5.69,5.689-8.622,13.501-8.252,21.382l-53.344,53.345
	c-7.888-0.364-15.693,2.562-21.382,8.252c-5.69,5.689-8.622,13.501-8.252,21.383l-53.344,53.344
	c-7.872-0.364-15.692,2.563-21.382,8.252c-11.049,11.049-11.049,29.025,0,40.074c5.74,5.739,13.609,8.666,21.54,8.249l93.647,93.648
	c-0.418,7.932,2.511,15.801,8.25,21.54c5.524,5.523,12.781,8.286,20.037,8.286s14.513-2.763,20.037-8.286
	c5.082-5.082,7.996-11.913,8.259-18.998l55.721-55.722c7.084-0.263,13.917-3.177,18.999-8.26c5.082-5.082,7.996-11.913,8.259-18.997
	l55.722-55.722c7.083-0.264,13.915-3.178,18.997-8.259c5.083-5.082,7.997-11.914,8.26-18.999l55.722-55.721
	c7.084-0.264,13.917-3.179,18.997-8.26c5.083-5.082,7.997-11.914,8.26-18.998l55.721-55.722c7.084-0.263,13.916-3.177,18.998-8.259
	C514.764,160.747,514.764,142.769,503.715,131.722z"/>
<path d="M425.11,90.55c2.64,0,5.21-1.06,7.07-2.93c1.87-1.86,2.93-4.44,2.93-7.07c0-2.63-1.06-5.21-2.93-7.069
	c-1.86-1.86-4.43-2.931-7.07-2.931c-2.63,0-5.21,1.07-7.07,2.931c-1.86,1.859-2.93,4.439-2.93,7.069c0,2.63,1.07,5.21,2.93,7.07
	C419.9,89.49,422.48,90.55,425.11,90.55z"/>
<path d="M134.039,300.175l0.127-0.126c3.92-3.891,3.944-10.223,0.054-14.144c-3.889-3.918-10.222-3.943-14.143-0.055l-0.127,0.126
	c-3.92,3.891-3.944,10.223-0.054,14.144c1.955,1.97,4.526,2.956,7.099,2.956C129.542,303.076,132.089,302.109,134.039,300.175z"/>
<path d="M217.046,217.169l0.127-0.127c3.905-3.905,3.905-10.238,0-14.144c-3.905-3.904-10.238-3.904-14.144,0l-0.127,0.127
	c-3.905,3.905-3.905,10.238,0,14.144c1.953,1.952,4.512,2.929,7.071,2.929C212.532,220.098,215.092,219.121,217.046,217.169z"/>
<path d="M300.025,134.19l0.127-0.127c3.905-3.905,3.905-10.238,0-14.144c-3.905-3.904-10.238-3.904-14.144,0l-0.127,0.127
	c-3.905,3.905-3.905,10.238,0,14.144c1.953,1.952,4.512,2.929,7.071,2.929S298.073,136.142,300.025,134.19z"/>
<path d="M377.964,211.821l-0.127,0.126c-3.92,3.891-3.944,10.223-0.054,14.144c1.955,1.97,4.526,2.956,7.099,2.956
	c2.546,0,5.093-0.967,7.043-2.901l0.127-0.126c3.92-3.891,3.944-10.223,0.054-14.144
	C388.217,207.957,381.886,207.933,377.964,211.821z"/>
<path d="M294.958,294.827l-0.127,0.127c-3.905,3.905-3.905,10.238,0,14.144c1.953,1.952,4.512,2.929,7.071,2.929
	s5.119-0.977,7.071-2.929l0.127-0.127c3.905-3.905,3.905-10.238,0-14.144C305.196,290.923,298.864,290.923,294.958,294.827z"/>
<path d="M211.978,377.806l-0.127,0.127c-3.905,3.905-3.905,10.238,0,14.144c1.953,1.952,4.512,2.929,7.071,2.929
	c2.559,0,5.119-0.977,7.071-2.929l0.127-0.127c3.905-3.905,3.905-10.238,0-14.144C222.216,373.902,215.884,373.902,211.978,377.806z
	"/>
<g>
</g>
<g>
</g>
<g>
</g>
<g>
</g>
<g>
</g>
<g>
</g>
<g>
</g>
<g>
</g>
<g>
</g>
<g>
</g>
<g>
</g>
<g>
</g>
<g>
</g>
<g>
</g>
<g>
</g>
</svg>
