<?xml version="1.0" encoding="iso-8859-1"?>
<!-- Generator: Adobe Illustrator 19.0.0, SVG Export Plug-In . SVG Version: 6.00 Build 0)  -->
<svg version="1.1" id="Capa_1" xmlns="http://www.w3.org/2000/svg" xmlns:xlink="http://www.w3.org/1999/xlink" x="0px" y="0px"
	 viewBox="0 0 511.999 511.999" style="enable-background:new 0 0 511.999 511.999;" xml:space="preserve">
<path style="fill:#D0E6EF;" d="M464.015,180.011c2.241-2.241,4.342-4.57,6.307-6.972l13.553-0.346
	c3.008-4.39,5.644-8.955,7.903-13.659l-6.49-11.935c2.231-5.893,3.846-11.963,4.842-18.117l11.57-7.08
	c0.399-5.263,0.399-10.548,0-15.811l-11.57-7.08c-0.996-6.154-2.611-12.224-4.842-18.117l6.49-11.934
	c-2.259-4.704-4.896-9.269-7.904-13.659l-13.553-0.346c-1.966-2.402-4.066-4.731-6.307-6.972s-4.57-4.342-6.972-6.307l-0.346-13.553
	c-4.39-3.008-8.955-5.644-13.659-7.904l-11.934,6.49c-5.893-2.231-11.963-3.846-18.117-4.842l-7.08-11.57
	c-5.263-0.399-10.548-0.399-15.811,0l-7.08,11.57c-6.154,0.996-12.223,2.611-18.117,4.842l-11.935-6.49
	c-4.704,2.259-9.269,4.896-13.659,7.903l-0.346,13.553c-2.402,1.966-4.731,4.066-6.972,6.307c-2.241,2.241-4.342,4.57-6.307,6.972
	L312.126,55.3c-3.008,4.39-5.644,8.955-7.904,13.659l6.49,11.935c-2.231,5.893-3.846,11.963-4.842,18.117l-11.57,7.08
	c-0.399,5.263-0.399,10.548,0,15.811l11.57,7.08c0.996,6.154,2.611,12.223,4.842,18.117l-6.49,11.935
	c2.259,4.704,4.896,9.269,7.904,13.659l13.553,0.346c1.966,2.402,4.066,4.731,6.307,6.972s4.57,4.342,6.972,6.307l0.346,13.553
	c4.39,3.008,8.955,5.644,13.659,7.904l11.935-6.49c5.893,2.231,11.963,3.846,18.117,4.842l7.08,11.57
	c5.263,0.399,10.548,0.399,15.811,0l7.08-11.57c6.154-0.996,12.223-2.611,18.117-4.842l11.935,6.49
	c4.704-2.259,9.269-4.896,13.659-7.904l0.346-13.553C459.445,184.353,461.774,182.253,464.015,180.011z"/>
<circle style="fill:#F4F4F4;" cx="398" cy="113.997" r="44"/>
<path style="fill:#F25353;" d="M333.725,333.997c0-2.357-0.062-4.698-0.165-7.029l12.44-10.37
	c-0.623-6.091-1.58-12.082-2.833-17.964l-15.009-6.006c-1.254-4.563-2.711-9.042-4.36-13.427l8.616-13.687
	c-2.47-5.56-5.228-10.964-8.262-16.188l-16.155-1.076c-2.591-3.92-5.353-7.716-8.279-11.378l3.964-15.676
	c-4.06-4.521-8.36-8.821-12.881-12.881l-15.676,3.964c-3.661-2.925-7.457-5.688-11.378-8.279l-1.076-16.155
	c-5.225-3.033-10.628-5.792-16.188-8.262l-13.687,8.616c-4.385-1.649-8.864-3.105-13.427-4.36l-6.006-15.009
	c-5.882-1.253-11.873-2.21-17.964-2.833l-10.369,12.44c-2.331-0.104-4.673-0.165-7.029-0.165s-4.698,0.062-7.029,0.165
	l-10.369-12.441c-6.091,0.623-12.082,1.58-17.964,2.833l-6.006,15.009c-4.563,1.254-9.042,2.711-13.427,4.36l-13.687-8.616
	c-5.56,2.47-10.964,5.228-16.188,8.262l-1.076,16.155c-3.92,2.591-7.716,5.353-11.378,8.279l-15.676-3.964
	c-4.521,4.06-8.821,8.36-12.881,12.881l3.964,15.676c-2.925,3.661-5.688,7.457-8.279,11.378l-16.155,1.076
	c-3.033,5.225-5.792,10.628-8.262,16.188l8.616,13.687c-1.649,4.385-3.105,8.864-4.36,13.427l-15.009,6.006
	c-1.253,5.882-2.21,11.873-2.833,17.964l12.441,10.369c-0.104,2.331-0.165,4.673-0.165,7.029s0.062,4.698,0.165,7.029L10,351.395
	c0.623,6.091,1.58,12.082,2.833,17.964l15.009,6.006c1.254,4.563,2.711,9.042,4.36,13.427l-8.616,13.687
	c2.47,5.56,5.228,10.964,8.262,16.188l16.155,1.076c2.591,3.92,5.353,7.716,8.279,11.378l-3.964,15.676
	c4.06,4.521,8.36,8.821,12.881,12.881l15.676-3.964c3.661,2.925,7.458,5.688,11.378,8.279l1.076,16.155
	c5.225,3.033,10.628,5.792,16.188,8.262l13.687-8.616c4.385,1.649,8.864,3.105,13.427,4.36l6.006,15.009
	c5.882,1.253,11.873,2.21,17.964,2.833l10.369-12.441c2.331,0.104,4.673,0.165,7.029,0.165c2.357,0,4.698-0.062,7.029-0.165
	l10.371,12.442c6.091-0.623,12.082-1.58,17.964-2.833l6.006-15.009c4.563-1.254,9.042-2.711,13.427-4.36l13.687,8.616
	c5.56-2.47,10.964-5.228,16.188-8.262l1.076-16.155c3.92-2.591,7.716-5.353,11.378-8.279l15.676,3.964
	c4.521-4.06,8.821-8.36,12.881-12.881l-3.964-15.676c2.925-3.661,5.688-7.457,8.279-11.378l16.155-1.076
	c3.033-5.225,5.792-10.628,8.262-16.188l-8.616-13.687c1.649-4.385,3.105-8.864,4.36-13.427l15.009-6.006
	c1.253-5.882,2.21-11.873,2.833-17.964l-12.441-10.369C333.663,338.695,333.725,336.353,333.725,333.997z"/>
<circle style="fill:#F4F4F4;" cx="178" cy="333.997" r="80"/>
<path d="M234.745,287.624c-2.559,0-5.116-0.979-7.065-2.943c-0.001-0.002-0.044-0.045-0.046-0.047l-0.084-0.085
	c-3.933-3.878-3.978-10.209-0.101-14.142c3.878-3.935,10.21-3.978,14.142-0.101l0.246,0.245c3.888,3.921,3.883,10.271-0.037,14.161
	C239.843,286.653,237.292,287.624,234.745,287.624z"/>
<path d="M178,423.997c-24.04,0-46.641-9.361-63.64-26.36c-35.091-35.091-35.091-92.188,0-127.279
	c22.73-22.73,56.146-31.631,87.208-23.233c5.332,1.441,8.485,6.933,7.043,12.264c-1.442,5.332-6.936,8.484-12.264,7.043
	c-24.168-6.535-50.164,0.389-67.844,18.069c-27.293,27.293-27.293,71.701,0,98.994c13.222,13.22,30.8,20.502,49.497,20.502
	s36.276-7.281,49.497-20.503c17.707-17.706,24.622-43.735,18.047-67.931c-1.448-5.329,1.698-10.824,7.027-12.272
	c5.334-1.447,10.824,1.699,12.272,7.028c8.451,31.096-0.441,64.554-23.204,87.317C224.641,414.635,202.04,423.997,178,423.997z"/>
<path d="M263.59,258.391c-0.007,0-0.014,0-0.021,0c-5.523-0.011-9.991-4.497-9.98-10.021v-0.243c0.011-5.516,4.486-9.979,10-9.979
	c0.007,0,0.014,0,0.021,0c5.523,0.011,9.991,4.497,9.98,10.021v0.243C273.578,253.927,269.103,258.391,263.59,258.391z"/>
<path d="M263.833,429.602h-0.244c-5.523,0-10-4.478-10-10s4.477-10,10-10h0.244c5.523,0,10,4.478,10,10
	S269.356,429.602,263.833,429.602z"/>
<path d="M92.379,429.845c-0.007,0-0.014,0-0.021,0c-5.523-0.011-9.991-4.497-9.98-10.021v-0.243c0.011-5.516,4.486-9.979,10-9.979
	c0.007,0,0.014,0,0.021,0c5.523,0.011,9.991,4.497,9.98,10.021v0.243C102.368,425.381,97.893,429.845,92.379,429.845z"/>
<path d="M92.379,258.391h-0.244c-5.523,0-10-4.478-10-10s4.477-10,10-10h0.244c5.523,0,10,4.478,10,10
	S97.902,258.391,92.379,258.391z"/>
<path d="M299.048,343.997c-2.569,0-5.137-0.983-7.091-2.949c-3.894-3.916-3.876-10.248,0.041-14.142l0.173-0.172
	c3.916-3.895,10.248-3.877,14.142,0.04c3.894,3.916,3.876,10.248-0.041,14.142l-0.173,0.172
	C304.148,343.028,301.598,343.997,299.048,343.997z"/>
<path d="M178.156,465.233c-2.569,0-5.137-0.983-7.091-2.949l-0.172-0.173c-3.895-3.916-3.876-10.248,0.04-14.142
	c3.916-3.896,10.248-3.877,14.142,0.04l0.172,0.173c3.895,3.916,3.876,10.248-0.04,14.142
	C183.256,464.264,180.706,465.233,178.156,465.233z"/>
<path d="M56.747,344.168c-2.569,0-5.137-0.983-7.091-2.949c-3.894-3.916-3.876-10.248,0.041-14.142l0.173-0.172
	c3.916-3.896,10.248-3.877,14.142,0.04c3.894,3.916,3.876,10.248-0.041,14.142l-0.173,0.172
	C61.848,343.2,59.297,344.168,56.747,344.168z"/>
<path d="M177.984,222.933c-2.569,0-5.137-0.983-7.091-2.949l-0.172-0.173c-3.895-3.916-3.876-10.248,0.04-14.142
	c3.916-3.896,10.248-3.877,14.142,0.04l0.172,0.173c3.895,3.916,3.876,10.248-0.04,14.142
	C183.084,221.964,180.534,222.933,177.984,222.933z"/>
<path d="M195.398,511.997c-2.95,0-5.77-1.306-7.681-3.598l-7.25-8.698c-1.672,0.027-3.263,0.027-4.935,0l-7.25,8.698
	c-2.129,2.555-5.386,3.878-8.699,3.546c-6.312-0.646-12.715-1.655-19.03-3.001c-3.261-0.694-5.962-2.969-7.201-6.064l-4.197-10.488
	c-1.587-0.489-3.17-1.003-4.744-1.54l-9.568,6.022c-2.822,1.775-6.341,2.027-9.386,0.676c-5.857-2.601-11.627-5.546-17.15-8.752
	c-2.877-1.671-4.736-4.664-4.957-7.983l-0.753-11.306c-1.346-0.949-2.677-1.918-3.992-2.904l-10.956,2.771
	c-3.23,0.813-6.654-0.028-9.133-2.256c-4.767-4.281-9.355-8.87-13.639-13.638c-2.227-2.479-3.072-5.903-2.255-9.134l2.77-10.956
	c-0.987-1.316-1.957-2.648-2.905-3.993l-11.305-0.753c-3.32-0.221-6.313-2.079-7.983-4.956c-3.204-5.519-6.149-11.288-8.752-17.149
	c-1.353-3.046-1.1-6.565,0.675-9.387l6.023-9.568c-0.537-1.573-1.051-3.155-1.54-4.744l-10.488-4.197
	c-3.095-1.239-5.37-3.939-6.064-7.2c-1.344-6.307-2.354-12.71-3.001-19.029c-0.338-3.31,0.99-6.57,3.546-8.7l8.698-7.25
	c-0.013-0.834-0.02-1.654-0.02-2.467s0.007-1.633,0.02-2.467l-8.698-7.25c-2.556-2.13-3.884-5.391-3.546-8.7
	c0.647-6.319,1.657-12.723,3.001-19.029c0.695-3.261,2.969-5.961,6.064-7.2l10.489-4.197c0.489-1.589,1.003-3.172,1.54-4.744
	l-6.023-9.568c-1.775-2.821-2.028-6.341-0.676-9.387c2.601-5.856,5.546-11.626,8.752-17.149c1.671-2.878,4.664-4.736,7.984-4.957
	l11.304-0.753c0.948-1.344,1.917-2.677,2.905-3.992l-2.77-10.956c-0.817-3.23,0.029-6.655,2.255-9.134
	c4.283-4.768,8.872-9.356,13.639-13.638c2.479-2.228,5.904-3.069,9.133-2.256l10.956,2.771c1.314-0.986,2.646-1.955,3.992-2.904
	l0.753-11.306c0.221-3.319,2.08-6.313,4.957-7.983c5.523-3.206,11.293-6.151,17.15-8.752c3.046-1.353,6.565-1.1,9.386,0.676
	l9.568,6.022c1.573-0.537,3.157-1.051,4.744-1.54l4.197-10.488c1.239-3.096,3.939-5.37,7.201-6.064
	c6.315-1.346,12.717-2.355,19.029-3.001c3.313-0.334,6.569,0.991,8.699,3.546l7.25,8.698c1.666-0.027,3.27-0.027,4.936,0l7.25-8.698
	c2.129-2.555,5.388-3.888,8.699-3.546c6.312,0.646,12.714,1.655,19.029,3.001c3.261,0.694,5.962,2.969,7.201,6.064l4.197,10.488
	c1.587,0.489,3.17,1.003,4.744,1.54l9.568-6.022c2.821-1.776,6.34-2.028,9.386-0.676c5.857,2.601,11.627,5.546,17.15,8.752
	c2.877,1.671,4.736,4.664,4.957,7.983l0.753,11.306c1.346,0.949,2.678,1.918,3.992,2.904l10.956-2.771
	c3.23-0.813,6.655,0.029,9.133,2.256c4.767,4.281,9.355,8.87,13.639,13.638c2.227,2.479,3.072,5.903,2.255,9.134l-2.77,10.956
	c0.987,1.315,1.957,2.648,2.905,3.992l11.304,0.753c3.32,0.221,6.313,2.079,7.984,4.957c3.207,5.523,6.151,11.293,8.752,17.149
	c1.353,3.046,1.099,6.565-0.676,9.387l-6.023,9.568c0.537,1.572,1.051,3.155,1.54,4.744l10.488,4.197
	c3.095,1.239,5.37,3.939,6.064,7.2c1.344,6.307,2.354,12.71,3.001,19.029c0.338,3.31-0.99,6.57-3.546,8.7l-8.698,7.25
	c0.013,0.834,0.02,1.654,0.02,2.467s-0.007,1.633-0.02,2.467l8.698,7.25c2.556,2.13,3.884,5.391,3.546,8.7
	c-0.647,6.319-1.657,12.723-3.001,19.029c-0.695,3.261-2.969,5.961-6.064,7.2l-10.488,4.197c-0.489,1.589-1.003,3.172-1.54,4.744
	l6.023,9.568c1.775,2.821,2.028,6.341,0.675,9.387c-2.604,5.861-5.548,11.631-8.752,17.149c-1.671,2.877-4.664,4.735-7.983,4.956
	l-11.305,0.753c-0.948,1.345-1.917,2.677-2.905,3.993l2.77,10.956c0.817,3.23-0.029,6.655-2.255,9.134
	c-4.283,4.768-8.872,9.356-13.639,13.638c-2.479,2.228-5.906,3.068-9.133,2.256l-10.956-2.771c-1.314,0.986-2.646,1.955-3.992,2.904
	l-0.753,11.306c-0.221,3.319-2.08,6.313-4.957,7.983c-5.523,3.206-11.293,6.151-17.15,8.752c-3.045,1.354-6.564,1.101-9.386-0.676
	l-9.568-6.022c-1.574,0.537-3.156,1.051-4.744,1.54l-4.197,10.488c-1.239,3.096-3.939,5.37-7.201,6.064
	c-6.315,1.346-12.718,2.355-19.03,3.001C196.076,511.979,195.736,511.997,195.398,511.997z M185.031,479.555
	c2.959,0,5.776,1.313,7.681,3.598l6.894,8.271c2.162-0.296,4.331-0.638,6.495-1.025l3.985-9.959
	c1.163-2.904,3.618-5.098,6.635-5.927c4.221-1.16,8.446-2.531,12.558-4.077c2.926-1.1,6.2-0.769,8.846,0.897l9.084,5.718
	c1.969-0.954,3.921-1.95,5.847-2.983l0.715-10.737c0.208-3.115,1.858-5.954,4.463-7.677c3.661-2.42,7.244-5.027,10.65-7.749
	c2.443-1.954,5.66-2.648,8.694-1.884l10.407,2.632c1.588-1.524,3.148-3.084,4.672-4.672l-2.631-10.407
	c-0.767-3.032-0.07-6.249,1.882-8.693c2.73-3.417,5.337-7,7.748-10.648c1.722-2.606,4.563-4.258,7.679-4.465l10.737-0.716
	c1.033-1.925,2.029-3.876,2.983-5.846l-5.718-9.085c-1.666-2.646-1.998-5.92-0.897-8.847c1.542-4.103,2.914-8.327,4.078-12.559
	c0.829-3.016,3.022-5.471,5.926-6.633l9.958-3.985c0.387-2.164,0.729-4.332,1.025-6.495l-8.27-6.894
	c-2.399-2-3.727-5.005-3.588-8.125c0.104-2.352,0.155-4.506,0.155-6.586s-0.051-4.234-0.155-6.586
	c-0.139-3.12,1.188-6.125,3.588-8.125l8.27-6.894c-0.296-2.163-0.638-4.331-1.025-6.495l-9.958-3.985
	c-2.904-1.162-5.097-3.617-5.926-6.633c-1.164-4.231-2.535-8.456-4.078-12.559c-1.101-2.927-0.769-6.2,0.897-8.847l5.718-9.085
	c-0.955-1.969-1.951-3.921-2.984-5.847l-10.737-0.715c-3.117-0.207-5.957-1.858-7.679-4.465c-2.411-3.648-5.018-7.231-7.748-10.648
	c-1.953-2.444-2.649-5.661-1.882-8.693l2.631-10.407c-1.524-1.588-3.084-3.147-4.672-4.672l-10.407,2.632
	c-3.031,0.764-6.25,0.069-8.694-1.884c-3.406-2.722-6.989-5.329-10.65-7.749c-2.605-1.723-4.255-4.562-4.463-7.677l-0.715-10.737
	c-1.925-1.033-3.877-2.029-5.847-2.983l-9.084,5.718c-2.646,1.666-5.918,1.999-8.846,0.897c-4.112-1.546-8.338-2.917-12.559-4.077
	c-3.017-0.829-5.472-3.022-6.635-5.927l-3.985-9.959c-2.164-0.388-4.333-0.729-6.495-1.025l-6.894,8.271
	c-2,2.4-5.013,3.722-8.129,3.588c-4.683-0.211-8.48-0.211-13.163,0c-3.132,0.144-6.129-1.188-8.129-3.588l-6.894-8.271
	c-2.162,0.296-4.331,0.638-6.495,1.025l-3.985,9.959c-1.163,2.904-3.618,5.098-6.635,5.927c-4.221,1.16-8.446,2.531-12.559,4.077
	c-2.927,1.103-6.2,0.769-8.846-0.897l-9.084-5.718c-1.969,0.954-3.921,1.95-5.847,2.983l-0.715,10.737
	c-0.208,3.115-1.858,5.954-4.463,7.677c-3.661,2.42-7.244,5.027-10.65,7.749c-2.444,1.953-5.661,2.646-8.694,1.884l-10.407-2.632
	c-1.588,1.524-3.148,3.084-4.672,4.672l2.631,10.407c0.767,3.032,0.07,6.249-1.882,8.693c-2.73,3.417-5.337,7-7.748,10.648
	c-1.722,2.606-4.563,4.258-7.679,4.465l-10.737,0.715c-1.033,1.926-2.029,3.878-2.984,5.847l5.718,9.085
	c1.666,2.646,1.998,5.92,0.897,8.847c-1.541,4.099-2.913,8.324-4.077,12.559c-0.829,3.016-3.022,5.471-5.926,6.633l-9.959,3.985
	c-0.387,2.164-0.729,4.332-1.025,6.495l8.27,6.894c2.399,2,3.727,5.005,3.588,8.125c-0.104,2.352-0.155,4.506-0.155,6.586
	s0.051,4.234,0.155,6.586c0.139,3.12-1.188,6.125-3.588,8.125l-8.27,6.894c0.296,2.163,0.638,4.331,1.025,6.495l9.959,3.985
	c2.904,1.162,5.098,3.617,5.927,6.634c1.162,4.229,2.534,8.454,4.077,12.558c1.101,2.927,0.769,6.2-0.897,8.847l-5.718,9.085
	c0.955,1.97,1.95,3.921,2.983,5.846l10.737,0.716c3.116,0.207,5.957,1.858,7.679,4.465c2.411,3.648,5.018,7.231,7.748,10.648
	c1.953,2.444,2.649,5.661,1.882,8.693l-2.631,10.407c1.524,1.588,3.084,3.147,4.672,4.672l10.407-2.632
	c3.032-0.764,6.25-0.069,8.694,1.884c3.408,2.723,6.991,5.33,10.648,7.747c2.605,1.723,4.257,4.563,4.464,7.678l0.715,10.738
	c1.926,1.033,3.877,2.029,5.847,2.983l9.084-5.718c2.647-1.666,5.92-1.998,8.846-0.897c4.112,1.546,8.337,2.917,12.558,4.077
	c3.017,0.829,5.472,3.022,6.635,5.927l3.985,9.959c2.164,0.388,4.333,0.729,6.495,1.025l6.894-8.271
	c2-2.398,4.997-3.723,8.125-3.588c4.732,0.211,8.438,0.211,13.171,0C184.734,479.558,184.883,479.555,185.031,479.555z"/>
<path d="M402.283,167.789c-5.086,0-9.438-3.863-9.941-9.031c-0.536-5.496,3.486-10.387,8.982-10.923
	c7.803-0.76,15.161-4.239,20.718-9.797c6.422-6.422,9.958-14.959,9.958-24.041s-3.537-17.619-9.958-24.041
	c-6.421-6.422-14.96-9.959-24.042-9.959s-17.62,3.537-24.042,9.959c-5.596,5.595-9.08,13.006-9.811,20.866
	c-0.512,5.5-5.387,9.542-10.883,9.031c-5.499-0.512-9.542-5.384-9.031-10.883c1.163-12.496,6.697-24.271,15.583-33.157
	c10.2-10.199,23.761-15.816,38.184-15.816s27.985,5.617,38.184,15.816S452,99.573,452,113.997s-5.617,27.984-15.816,38.184
	c-8.825,8.825-20.517,14.352-32.919,15.561C402.935,167.773,402.607,167.789,402.283,167.789z"/>
<path d="M367.223,155.439c-2.489,0-4.981-0.924-6.92-2.782l-0.081-0.077c-0.179-0.172-0.179-0.172-0.309-0.303l-0.097-0.097
	c-3.905-3.905-3.905-10.237,0-14.143c3.905-3.904,10.237-3.904,14.143,0l0.187,0.184c3.986,3.823,4.119,10.153,0.296,14.14
	C372.478,154.408,369.852,155.439,367.223,155.439z"/>
<path d="M398,227.996c-2.894,0-5.787-0.108-8.661-0.326c-3.205-0.243-6.097-2.011-7.775-4.752l-4.756-7.772
	c-3.729-0.779-7.418-1.766-11.039-2.951l-8.03,4.366c-2.822,1.535-6.209,1.621-9.105,0.229c-5.171-2.483-10.212-5.399-14.983-8.669
	c-2.646-1.813-4.263-4.786-4.344-7.994l-0.233-9.108c-1.427-1.278-2.818-2.593-4.16-3.935c-1.341-1.341-2.656-2.732-3.936-4.161
	l-9.11-0.232c-3.207-0.082-6.18-1.698-7.993-4.345c-3.27-4.771-6.186-9.813-8.669-14.983c-1.391-2.896-1.305-6.283,0.229-9.105
	l4.366-8.029c-1.185-3.62-2.172-7.311-2.951-11.039l-7.772-4.757c-2.741-1.677-4.509-4.569-4.751-7.773
	c-0.436-5.747-0.436-11.575,0-17.322c0.243-3.204,2.011-6.097,4.751-7.773l7.772-4.757c0.779-3.729,1.765-7.418,2.951-11.039
	l-4.366-8.029c-1.535-2.822-1.62-6.21-0.229-9.105c2.483-5.171,5.399-10.212,8.669-14.983c1.813-2.646,4.786-4.263,7.993-4.345
	l9.11-0.232c1.279-1.429,2.595-2.819,3.935-4.16c1.343-1.342,2.733-2.657,4.161-3.936l0.233-9.108
	c0.082-3.208,1.698-6.182,4.345-7.995c4.772-3.27,9.813-6.186,14.982-8.668c2.896-1.392,6.284-1.305,9.105,0.229l8.03,4.366
	c3.62-1.186,7.311-2.172,11.039-2.951l4.756-7.772c1.678-2.741,4.57-4.509,7.775-4.752c5.747-0.436,11.574-0.436,17.321,0
	c3.205,0.243,6.097,2.011,7.775,4.752l4.756,7.772c3.729,0.779,7.419,1.766,11.039,2.951l8.03-4.366
	c2.821-1.534,6.209-1.621,9.105-0.229c5.169,2.482,10.21,5.398,14.982,8.668c2.647,1.813,4.263,4.787,4.345,7.995l0.233,9.108
	c1.427,1.278,2.818,2.593,4.16,3.935c1.341,1.341,2.656,2.732,3.936,4.161l9.11,0.232c3.207,0.082,6.18,1.698,7.993,4.345
	c3.27,4.771,6.186,9.813,8.669,14.983c1.391,2.896,1.305,6.283-0.229,9.105l-4.366,8.029c1.186,3.621,2.172,7.311,2.951,11.039
	l7.772,4.757c2.741,1.677,4.509,4.569,4.751,7.773c0.436,5.747,0.436,11.575,0,17.322c-0.243,3.204-2.011,6.097-4.751,7.773
	l-7.772,4.757c-0.779,3.729-1.765,7.418-2.951,11.039l4.366,8.029c1.535,2.822,1.62,6.211,0.229,9.106
	c-2.484,5.173-5.401,10.214-8.668,14.982c-1.813,2.646-4.786,4.263-7.993,4.345l-9.11,0.232c-1.279,1.429-2.595,2.819-3.935,4.16
	c0,0,0,0-0.001,0.001c-1.342,1.342-2.733,2.656-4.16,3.935l-0.233,9.108c-0.082,3.208-1.698,6.182-4.345,7.995
	c-4.772,3.27-9.813,6.186-14.982,8.668c-2.896,1.392-6.284,1.306-9.105-0.229l-8.03-4.366c-3.621,1.186-7.311,2.172-11.039,2.951
	l-4.756,7.772c-1.678,2.741-4.57,4.509-7.775,4.752C403.788,227.887,400.894,227.996,398,227.996z M395.867,207.972
	c1.422,0.031,2.846,0.031,4.268,0l4.322-7.064c1.522-2.487,4.054-4.186,6.932-4.651c5.51-0.893,10.952-2.347,16.175-4.323
	c2.723-1.029,5.759-0.824,8.316,0.567l7.292,3.965c1.235-0.679,2.457-1.386,3.663-2.121l0.212-8.28
	c0.074-2.909,1.412-5.642,3.664-7.484c2.17-1.775,4.268-3.673,6.235-5.64c1.961-1.962,3.859-4.06,5.64-6.234
	c1.843-2.251,4.574-3.588,7.482-3.663l8.281-0.212c0.735-1.206,1.442-2.428,2.121-3.663l-3.965-7.291
	c-1.391-2.558-1.598-5.595-0.567-8.317c1.977-5.223,3.431-10.664,4.323-16.174c0.466-2.879,2.165-5.411,4.652-6.933l7.064-4.323
	c0.032-1.422,0.032-2.844,0-4.266l-7.064-4.323c-2.487-1.521-4.186-4.054-4.652-6.933c-0.892-5.51-2.346-10.951-4.323-16.174
	c-1.031-2.723-0.823-5.76,0.567-8.317l3.965-7.291c-0.678-1.235-1.385-2.457-2.121-3.663l-8.281-0.212
	c-2.908-0.075-5.639-1.412-7.482-3.663c-1.781-2.176-3.679-4.273-5.641-6.234c-1.966-1.966-4.064-3.864-6.234-5.64
	c-2.252-1.843-3.589-4.575-3.664-7.484l-0.212-8.28c-1.207-0.735-2.428-1.442-3.663-2.121l-7.292,3.965
	c-2.558,1.391-5.592,1.597-8.317,0.567c-5.222-1.977-10.664-3.431-16.174-4.323c-2.878-0.466-5.41-2.164-6.932-4.651l-4.322-7.064
	c-1.422-0.031-2.846-0.031-4.268,0l-4.322,7.064c-1.522,2.487-4.054,4.186-6.932,4.651c-5.511,0.893-10.953,2.347-16.174,4.323
	c-2.723,1.029-5.76,0.823-8.317-0.567l-7.292-3.965c-1.235,0.679-2.457,1.386-3.663,2.121l-0.212,8.28
	c-0.074,2.909-1.412,5.642-3.664,7.484c-2.17,1.775-4.268,3.674-6.235,5.641c-1.96,1.96-3.858,4.058-5.64,6.233
	c-1.843,2.251-4.574,3.588-7.482,3.663l-8.281,0.212c-0.735,1.206-1.443,2.428-2.121,3.663l3.965,7.291
	c1.391,2.558,1.598,5.595,0.567,8.317c-1.977,5.223-3.431,10.664-4.323,16.174c-0.466,2.879-2.165,5.411-4.652,6.933l-7.064,4.323
	c-0.032,1.422-0.032,2.845,0,4.266l7.064,4.323c2.487,1.521,4.186,4.054,4.652,6.932c0.892,5.511,2.346,10.953,4.323,16.175
	c1.031,2.723,0.823,5.76-0.567,8.317l-3.965,7.291c0.678,1.235,1.385,2.457,2.121,3.663l8.281,0.212
	c2.908,0.075,5.639,1.412,7.482,3.663c1.781,2.176,3.679,4.273,5.641,6.234c1.966,1.966,4.064,3.864,6.234,5.64
	c2.252,1.843,3.589,4.575,3.664,7.484l0.212,8.28c1.206,0.735,2.428,1.443,3.663,2.121l7.292-3.965
	c2.557-1.392,5.593-1.597,8.316-0.567c5.223,1.977,10.665,3.431,16.175,4.323c2.878,0.466,5.41,2.164,6.932,4.651L395.867,207.972z
	 M464.016,180.011h0.01H464.016z"/>
<g>
</g>
<g>
</g>
<g>
</g>
<g>
</g>
<g>
</g>
<g>
</g>
<g>
</g>
<g>
</g>
<g>
</g>
<g>
</g>
<g>
</g>
<g>
</g>
<g>
</g>
<g>
</g>
<g>
</g>
</svg>
