<?xml version="1.0" encoding="iso-8859-1"?>
<!-- Generator: Adobe Illustrator 19.0.0, SVG Export Plug-In . SVG Version: 6.00 Build 0)  -->
<svg version="1.1" id="Capa_1" xmlns="http://www.w3.org/2000/svg" xmlns:xlink="http://www.w3.org/1999/xlink" x="0px" y="0px"
	 viewBox="0 0 512 512" style="enable-background:new 0 0 512 512;" xml:space="preserve">
<rect x="10" y="37" style="fill:#D0E6EF;" width="492" height="438"/>
<path d="M313.36,485H10c-5.523,0-10-4.478-10-10V37c0-5.522,4.477-10,10-10h106.387c5.523,0,10,4.478,10,10s-4.477,10-10,10H20v418
	h293.36c5.523,0,10,4.478,10,10S318.883,485,313.36,485z"/>
<path d="M160.14,47c-2.62,0-5.2-1.07-7.07-2.931c-1.86-1.859-2.92-4.439-2.92-7.069s1.06-5.21,2.92-7.07
	c1.87-1.86,4.44-2.93,7.07-2.93c2.64,0,5.21,1.069,7.08,2.93c1.86,1.86,2.92,4.44,2.92,7.07s-1.06,5.21-2.92,7.069
	C165.35,45.93,162.78,47,160.14,47z"/>
<path d="M502,485H396.027c-5.523,0-10-4.478-10-10s4.477-10,10-10H492V47H207.387c-5.523,0-10-4.478-10-10s4.477-10,10-10H502
	c5.523,0,10,4.478,10,10v438C512,480.522,507.523,485,502,485z"/>
<path d="M357.53,485c-2.64,0-5.21-1.07-7.07-2.931c-1.87-1.859-2.93-4.439-2.93-7.069s1.06-5.21,2.93-7.07
	c1.85-1.86,4.43-2.93,7.07-2.93c2.63,0,5.21,1.069,7.07,2.93c1.86,1.86,2.93,4.44,2.93,7.07s-1.07,5.21-2.93,7.069
	C362.74,483.93,360.16,485,357.53,485z"/>
<path d="M463.936,85.757h-0.179c-5.523,0-10-4.478-10-10s4.477-10,10-10h0.179c5.523,0,10,4.478,10,10
	S469.458,85.757,463.936,85.757z"/>
<path d="M48.09,85.757h-0.179c-5.523,0-10-4.478-10-10s4.477-10,10-10h0.179c5.523,0,10,4.478,10,10S53.613,85.757,48.09,85.757z"/>
<path d="M48.244,446.243h-0.179c-5.523,0-10-4.478-10-10s4.477-10,10-10h0.179c5.523,0,10,4.478,10,10
	S53.767,446.243,48.244,446.243z"/>
<path style="fill:#44C5CB;" d="M463.994,133.067c0-17.673-14.327-32-32-32s-32,14.327-32,32c0,11.842,6.438,22.175,16,27.708v76.35
	h-84.989v-76.35c9.562-5.534,16-15.866,16-27.708c0-17.673-14.327-32-32-32s-32,14.327-32,32c0,11.843,6.438,22.175,16,27.708v76.35
	h-85.941v-76.393c9.521-5.544,15.925-15.854,15.925-27.666c0-17.673-14.327-32-32-32s-32,14.327-32,32
	c0,11.873,6.471,22.228,16.075,27.751v76.307h-84.99v-76.35c9.562-5.534,16-15.866,16-27.708c0-17.673-14.327-32-32-32
	s-32,14.327-32,32c0,11.843,6.438,22.175,16,27.709v92.35c0,8.837,7.163,16,16,16h100.989v82.061
	c-9.6,5.524-16.068,15.877-16.068,27.748c0,17.673,14.327,32,32,32s32-14.327,32-32c0-11.814-6.407-22.126-15.932-27.669v-82.139
	h85.941v82.104c-9.559,5.535-15.994,15.865-15.994,27.705c0,17.673,14.327,32,32,32s32-14.327,32-32
	c0-11.845-6.441-22.179-16.006-27.712v-82.096h100.989c8.837,0,16-7.163,16-16v-92.35
	C457.556,155.241,463.994,144.909,463.994,133.067z"/>
<path d="M463.846,446.243h-0.179c-5.523,0-10-4.478-10-10s4.477-10,10-10h0.179c5.523,0,10,4.478,10,10
	S469.369,446.243,463.846,446.243z"/>
<path d="M315.011,420.934c-23.159,0-42-18.841-42-42c0-12.906,6.007-25.065,15.994-32.967v-66.842h-65.941v66.892
	c9.948,7.902,15.932,20.043,15.932,32.917c0,23.159-18.841,42-42,42s-42-18.841-42-42c0-12.946,6.035-25.128,16.068-33.026v-66.782
	h-90.99c-14.336,0-26-11.663-26-26V166.04c-9.991-7.901-16-20.063-16-32.973c0-23.159,18.841-42,42-42s42,18.841,42,42
	c0,12.91-6.009,25.071-16,32.972v61.087h64.989v-61.027c-10.038-7.898-16.075-20.081-16.075-33.031c0-23.159,18.841-42,42-42
	s42,18.841,42,42c0,12.869-5.981,25.01-15.925,32.913v61.146h65.941V166.04c-9.991-7.9-16-20.062-16-32.972
	c0-23.159,18.841-42,42-42s42,18.841,42,42c0,12.91-6.009,25.071-16,32.972v61.087h64.989V166.04c-9.991-7.9-16-20.062-16-32.972
	c0-23.159,18.841-42,42-42s42,18.841,42,42c0,12.91-6.009,25.071-16,32.973v87.086c0,14.337-11.664,26-26,26h-90.989v66.832
	c9.995,7.899,16.006,20.063,16.006,32.977C357.011,402.093,338.17,420.934,315.011,420.934z M213.063,259.125h85.941
	c5.523,0,10,4.478,10,10v82.104c0,3.568-1.901,6.866-4.989,8.653c-6.788,3.932-11.005,11.231-11.005,19.052c0,12.131,9.869,22,22,22
	s22-9.869,22-22c0-7.825-4.22-15.127-11.013-19.056c-3.09-1.787-4.994-5.086-4.994-8.656v-82.097c0-5.522,4.477-10,10-10h100.989
	c3.309,0,6-2.691,6-6v-92.35c0-3.569,1.902-6.867,4.991-8.655c6.791-3.93,11.009-11.231,11.009-19.054c0-12.131-9.869-22-22-22
	s-22,9.869-22,22c0,7.822,4.218,15.124,11.009,19.054c3.089,1.788,4.991,5.086,4.991,8.655v76.35c0,5.522-4.477,10-10,10h-84.989
	c-5.523,0-10-4.478-10-10v-76.35c0-3.569,1.902-6.867,4.991-8.655c6.791-3.93,11.009-11.231,11.009-19.054c0-12.131-9.869-22-22-22
	s-22,9.869-22,22c0,7.822,4.218,15.124,11.009,19.054c3.089,1.788,4.991,5.086,4.991,8.655v76.35c0,5.522-4.477,10-10,10h-85.941
	c-5.523,0-10-4.478-10-10v-76.393c0-3.56,1.892-6.851,4.967-8.642c6.759-3.937,10.958-11.226,10.958-19.024c0-12.131-9.869-22-22-22
	s-22,9.869-22,22c0,7.847,4.238,15.159,11.06,19.082c3.102,1.784,5.015,5.09,5.015,8.669v76.308c0,5.522-4.477,10-10,10H96.074
	c-5.523,0-10-4.478-10-10v-76.351c0-3.569,1.902-6.868,4.992-8.655c6.79-3.93,11.008-11.229,11.008-19.053c0-12.131-9.869-22-22-22
	s-22,9.869-22,22c0,7.822,4.219,15.124,11.01,19.054c3.089,1.788,4.991,5.086,4.991,8.655v92.35c0,3.309,2.691,6,6,6h100.989
	c5.523,0,10,4.478,10,10v82.061c0,3.578-1.911,6.883-5.012,8.667c-6.82,3.925-11.056,11.236-11.056,19.081c0,12.131,9.869,22,22,22
	s22-9.869,22-22c0-7.801-4.2-15.091-10.961-19.026c-3.077-1.79-4.97-5.082-4.97-8.643v-82.14
	C203.063,263.603,207.541,259.125,213.063,259.125z"/>
<g>
</g>
<g>
</g>
<g>
</g>
<g>
</g>
<g>
</g>
<g>
</g>
<g>
</g>
<g>
</g>
<g>
</g>
<g>
</g>
<g>
</g>
<g>
</g>
<g>
</g>
<g>
</g>
<g>
</g>
</svg>
