<?xml version="1.0" encoding="iso-8859-1"?>
<!-- Generator: Adobe Illustrator 19.0.0, SVG Export Plug-In . SVG Version: 6.00 Build 0)  -->
<svg version="1.1" id="Capa_1" xmlns="http://www.w3.org/2000/svg" xmlns:xlink="http://www.w3.org/1999/xlink" x="0px" y="0px"
	 viewBox="0 0 512 512" style="enable-background:new 0 0 512 512;" xml:space="preserve">
<path style="fill:#D0E6EF;" d="M256,251.951c50.608,0,97.668,15.164,136.911,41.175L501.988,184.05
	C454.976,96.359,362.459,36.713,256,36.713S57.025,96.359,10.013,184.05L119.09,293.127
	C158.333,267.115,205.393,251.951,256,251.951z"/>
<g>
	<path style="fill:#6EA3D3;" d="M164.16,137.137L201.449,252.2h-74.578L164.16,137.137z"/>
	<path style="fill:#6EA3D3;" d="M256,81.797l37.288,115.062h-74.578L256,81.797z"/>
	<path style="fill:#6EA3D3;" d="M347.84,139.329l37.288,115.062H310.55L347.84,139.329z"/>
</g>
<path d="M173.685,134.05c-1.338-4.129-5.185-6.926-9.525-6.926c-4.341,0-8.187,2.797-9.525,6.926l-37.288,115.062
	c-0.988,3.048-0.458,6.384,1.427,8.976c1.884,2.591,4.894,4.124,8.099,4.124h22.98c-10.447,33.995-8.746,73.169,5.107,105.476
	c13.708,31.966,13.707,71.682,0,103.65c-2.179,5.082,0.174,10.969,5.257,13.148c1.287,0.553,2.624,0.814,3.941,0.814
	c3.884,0,7.58-2.274,9.208-6.07c15.795-36.836,15.795-82.599,0-119.433c-12.853-29.974-13.654-66.761-2.404-97.584h30.49
	c3.204,0,6.214-1.533,8.099-4.124c1.884-2.591,2.415-5.928,1.427-8.976L173.685,134.05z M140.643,242.187l23.518-72.57l23.518,72.57
	H140.643z"/>
<path d="M394.653,249.113L357.365,134.05c-1.338-4.129-5.185-6.926-9.525-6.926c-4.341,0-8.187,2.797-9.525,6.926l-37.288,115.062
	c-0.988,3.048-0.458,6.384,1.427,8.976c1.884,2.591,4.894,4.124,8.099,4.124h22.98c-10.447,33.995-8.746,73.169,5.107,105.476
	c13.708,31.966,13.707,71.682,0,103.65c-2.179,5.082,0.174,10.969,5.257,13.148c1.287,0.553,2.624,0.814,3.941,0.814
	c3.884,0,7.58-2.274,9.208-6.07c15.795-36.836,15.795-82.599,0-119.433c-12.853-29.974-13.654-66.761-2.404-97.584h30.49
	c3.204,0,6.214-1.533,8.099-4.124C395.112,255.498,395.642,252.161,394.653,249.113z M347.952,242.187c-0.043,0-23.63,0-23.63,0
	l23.518-72.57l23.518,72.57H347.952z"/>
<path d="M293.289,206.873c3.204,0,6.214-1.533,8.099-4.124c1.884-2.591,2.415-5.928,1.427-8.976L265.525,78.71
	c-1.338-4.129-5.185-6.926-9.525-6.926c-4.341,0-8.187,2.797-9.525,6.926l-37.288,115.062c-0.988,3.048-0.458,6.384,1.427,8.976
	c1.884,2.591,4.894,4.124,8.099,4.124h22.98c-10.447,33.995-8.746,73.168,5.107,105.475c13.707,31.967,13.707,71.683,0,103.651
	c-2.179,5.082,0.174,10.969,5.257,13.148c1.287,0.553,2.624,0.814,3.941,0.814c3.884,0,7.58-2.274,9.208-6.07
	c15.795-36.835,15.795-82.6,0-119.435c-12.853-29.972-13.654-66.759-2.404-97.582L293.289,206.873L293.289,206.873z M256,114.278
	l23.518,72.57h-47.036L256,114.278z"/>
<path d="M424.125,271.925c-2.563,0-5.125-0.978-7.08-2.933c-3.91-3.91-3.91-10.25,0-14.161l72.53-72.53
	C441.659,98.485,352.839,46.725,256,46.725S70.341,98.486,22.426,182.302l72.365,72.365c3.91,3.91,3.91,10.25,0,14.161
	c-3.91,3.909-10.251,3.909-14.16,0L2.933,191.13c-3.122-3.122-3.83-7.92-1.744-11.811C51.657,85.18,149.295,26.7,256,26.7
	s204.342,58.48,254.812,152.62c2.086,3.891,1.377,8.689-1.745,11.811l-77.862,77.862
	C429.25,270.947,426.687,271.925,424.125,271.925z"/>
<path d="M119.093,303.14c-2.643,0-5.217-1.071-7.079-2.935c-1.872-1.861-2.934-4.445-2.934-7.078s1.061-5.217,2.934-7.079
	c1.862-1.862,4.436-2.934,7.079-2.934c2.633,0,5.217,1.07,7.079,2.934c1.862,1.863,2.934,4.446,2.934,7.079
	s-1.071,5.217-2.934,7.078C124.309,302.068,121.726,303.14,119.093,303.14z"/>
<path d="M392.908,303.14c-2.633,0-5.217-1.071-7.079-2.935c-1.862-1.861-2.934-4.445-2.934-7.078s1.071-5.217,2.934-7.079
	c1.862-1.862,4.446-2.934,7.079-2.934c2.643,0,5.217,1.07,7.079,2.934c1.872,1.862,2.934,4.446,2.934,7.079
	s-1.061,5.217-2.934,7.078C398.125,302.068,395.551,303.14,392.908,303.14z"/>
<g>
</g>
<g>
</g>
<g>
</g>
<g>
</g>
<g>
</g>
<g>
</g>
<g>
</g>
<g>
</g>
<g>
</g>
<g>
</g>
<g>
</g>
<g>
</g>
<g>
</g>
<g>
</g>
<g>
</g>
</svg>
