<?xml version="1.0" encoding="iso-8859-1"?>
<!-- Generator: Adobe Illustrator 19.0.0, SVG Export Plug-In . SVG Version: 6.00 Build 0)  -->
<svg version="1.1" id="Capa_1" xmlns="http://www.w3.org/2000/svg" xmlns:xlink="http://www.w3.org/1999/xlink" x="0px" y="0px"
	 viewBox="0 0 512 512" style="enable-background:new 0 0 512 512;" xml:space="preserve">
<circle style="fill:#F25353;" cx="42" cy="42" r="32"/>
<circle style="fill:#657FC9;" cx="42" cy="184.67" r="32"/>
<circle style="fill:#FDB954;" cx="42" cy="327.33" r="32"/>
<circle style="fill:#44C5CB;" cx="42" cy="470" r="32"/>
<rect x="310" y="10" style="fill:#AAEBF2;" width="192" height="492"/>
<rect x="310" y="85.71" style="fill:#34BFE0;" width="86.94" height="340.44"/>
<path d="M502,0H310c-5.523,0-10,4.478-10,10v65.707H181.85l-40.779-40.778C139.196,33.054,136.652,32,134,32H82.787
	C78.288,13.655,61.713,0,42,0C18.841,0,0,18.841,0,42s18.841,42,42,42c19.713,0,36.288-13.655,40.787-32h47.07l40.778,40.778
	c1.875,1.875,4.419,2.929,7.071,2.929H300v78.96H182.714c-5.523,0-10,4.478-10,10s4.477,10,10,10H300v122.666h-43.121
	c-5.523,0-10,4.478-10,10s4.477,10,10,10H300v78.813H177.708c-2.652,0-5.196,1.054-7.071,2.929l-40.778,40.778H82.754
	C78.203,441.581,61.661,428,42,428c-23.159,0-42,18.841-42,42s18.841,42,42,42c19.765,0,36.375-13.728,40.821-32.146H134
	c2.652,0,5.196-1.054,7.071-2.929l40.779-40.778H300V502c0,5.522,4.477,10,10,10h192c5.523,0,10-4.478,10-10V10
	C512,4.478,507.523,0,502,0z M42,64c-12.131,0-22-9.869-22-22s9.869-22,22-22s22,9.869,22,22S54.131,64,42,64z M42,492
	c-12.131,0-22-9.869-22-22s9.869-22,22-22s22,9.869,22,22S54.131,492,42,492z M320,95.707h67.063v78.96H320V95.707z M320,194.667
	h67.063v122.666H320V194.667z M320,337.333h67.063v78.813H320V337.333z M492,492H320v-55.854h67.063v1.229c0,5.522,4.477,10,10,10
	s10-4.478,10-10V74.625c0-5.522-4.477-10-10-10s-10,4.478-10,10v1.082H320V20h172V492z"/>
<path d="M345.895,60.999L346.056,61c0.021,0,0.041,0,0.062,0c5.494,0,9.965-4.438,9.999-9.939
	c0.033-5.522-4.417-10.027-9.939-10.061l-0.162-0.001c-0.021,0-0.041,0-0.062,0c-5.494,0-9.965,4.438-9.999,9.939
	C335.922,56.461,340.372,60.966,345.895,60.999z"/>
<path d="M465.733,60.999L465.895,61c0.021,0,0.041,0,0.062,0c5.494,0,9.965-4.438,9.999-9.939
	c0.033-5.522-4.417-10.027-9.939-10.061l-0.162-0.001c-0.021,0-0.041,0-0.062,0c-5.494,0-9.965,4.438-9.999,9.939
	C455.76,56.461,460.21,60.966,465.733,60.999z"/>
<path d="M346.177,451l-0.162-0.001c-0.021,0-0.041,0-0.062,0c-5.494,0-9.965,4.438-9.999,9.939
	c-0.033,5.522,4.417,10.027,9.939,10.061l0.162,0.001c0.021,0,0.041,0,0.062,0c5.494,0,9.965-4.438,9.999-9.939
	C356.15,455.538,351.7,451.033,346.177,451z"/>
<path d="M465.733,470.999l0.162,0.001c0.021,0,0.041,0,0.062,0c5.494,0,9.965-4.438,9.999-9.939
	c0.033-5.522-4.417-10.027-9.939-10.061l-0.162-0.001c-0.021,0-0.041,0-0.062,0c-5.494,0-9.965,4.438-9.999,9.939
	C455.76,466.461,460.21,470.966,465.733,470.999z"/>
<path d="M42,226.667c23.159,0,42-18.841,42-42s-18.841-42-42-42s-42,18.841-42,42S18.841,226.667,42,226.667z M42,162.667
	c12.131,0,22,9.869,22,22s-9.869,22-22,22s-22-9.869-22-22S29.869,162.667,42,162.667z"/>
<path d="M42,369.333c19.713,0,36.288-13.655,40.787-32h84.927c5.523,0,10-4.478,10-10s-4.477-10-10-10H82.787
	c-4.499-18.345-21.075-32-40.787-32c-23.159,0-42,18.841-42,42S18.841,369.333,42,369.333z M42,305.333c12.131,0,22,9.869,22,22
	s-9.869,22-22,22s-22-9.869-22-22S29.869,305.333,42,305.333z"/>
<path d="M222.51,334.399c1.86-1.859,2.93-4.439,2.93-7.069s-1.07-5.21-2.93-7.07s-4.44-2.93-7.07-2.93s-5.21,1.069-7.07,2.93
	c-1.86,1.86-2.93,4.44-2.93,7.07s1.07,5.21,2.93,7.069c1.86,1.87,4.44,2.931,7.07,2.931S220.65,336.27,222.51,334.399z"/>
<path d="M131.65,194.67c-2.63,0-5.21-1.07-7.07-2.93c-1.86-1.87-2.93-4.44-2.93-7.07s1.07-5.21,2.93-7.07
	c1.86-1.87,4.44-2.93,7.07-2.93c2.64,0,5.21,1.06,7.07,2.93c1.87,1.86,2.93,4.44,2.93,7.07s-1.06,5.2-2.93,7.07
	C136.86,193.6,134.29,194.67,131.65,194.67z"/>
<g>
</g>
<g>
</g>
<g>
</g>
<g>
</g>
<g>
</g>
<g>
</g>
<g>
</g>
<g>
</g>
<g>
</g>
<g>
</g>
<g>
</g>
<g>
</g>
<g>
</g>
<g>
</g>
<g>
</g>
</svg>
