<?xml version="1.0" encoding="iso-8859-1"?>
<!-- Generator: Adobe Illustrator 19.0.0, SVG Export Plug-In . SVG Version: 6.00 Build 0)  -->
<svg version="1.1" id="Capa_1" xmlns="http://www.w3.org/2000/svg" xmlns:xlink="http://www.w3.org/1999/xlink" x="0px" y="0px"
	 viewBox="0 0 512 512" style="enable-background:new 0 0 512 512;" xml:space="preserve">
<circle style="fill:#D0E6EF;" cx="242.087" cy="269.909" r="232.093"/>
<circle style="fill:#F4F4F4;" cx="242.087" cy="269.909" r="112.045"/>
<g>
	<circle style="fill:#FE947C;" cx="292.128" cy="269.909" r="20.008"/>
	<circle style="fill:#FE947C;" cx="192.047" cy="269.909" r="20.008"/>
	<circle style="fill:#FE947C;" cx="242.087" cy="319.949" r="20.008"/>
	<circle style="fill:#FE947C;" cx="242.087" cy="219.869" r="20.008"/>
</g>
<path style="fill:#F25353;" d="M242.088,20.015v137.85c61.881,0,112.045,50.164,112.045,112.045h137.851
	c5.69,0,10.227-4.742,10.003-10.428c-5.337-135.357-114.113-244.134-249.471-249.47C246.83,9.787,242.088,14.324,242.088,20.015z"/>
<path d="M84.978,426.882c-3.897-3.918-10.231-3.934-14.148-0.039c-3.918,3.897-3.935,10.23-0.039,14.148l0.178,0.179
	c1.956,1.966,4.524,2.949,7.093,2.949c2.551,0,5.103-0.97,7.055-2.911c3.918-3.897,3.935-10.23,0.039-14.148L84.978,426.882z"/>
<path d="M292.129,239.899c-16.549,0-30.012,13.463-30.012,30.012s13.463,30.012,30.012,30.012c16.549,0,30.012-13.463,30.012-30.012
	S308.677,239.899,292.129,239.899z M292.129,279.915c-5.516,0-10.004-4.488-10.004-10.004s4.488-10.004,10.004-10.004
	c5.516,0,10.004,4.488,10.004,10.004S297.645,279.915,292.129,279.915z"/>
<path d="M222.06,269.911c0-16.549-13.463-30.012-30.012-30.012s-30.012,13.463-30.012,30.012s13.463,30.012,30.012,30.012
	S222.06,286.459,222.06,269.911z M192.048,279.915c-5.516,0-10.004-4.488-10.004-10.004s4.488-10.004,10.004-10.004
	c5.516,0,10.004,4.488,10.004,10.004S197.564,279.915,192.048,279.915z"/>
<path d="M242.088,289.939c-16.549,0-30.012,13.463-30.012,30.012c0,16.549,13.463,30.012,30.012,30.012S272.1,336.5,272.1,319.951
	C272.1,303.402,258.637,289.939,242.088,289.939z M242.088,329.955c-5.516,0-10.004-4.488-10.004-10.004
	c0-5.516,4.488-10.004,10.004-10.004c5.516,0,10.004,4.488,10.004,10.004C252.092,325.467,247.605,329.955,242.088,329.955z"/>
<path d="M242.088,249.883c16.549,0,30.012-13.463,30.012-30.012s-13.463-30.012-30.012-30.012s-30.012,13.463-30.012,30.012
	S225.54,249.883,242.088,249.883z M242.088,209.867c5.516,0,10.004,4.488,10.004,10.004c0,5.516-4.488,10.004-10.004,10.004
	c-5.516,0-10.004-4.488-10.004-10.004C232.084,214.354,236.572,209.867,242.088,209.867z"/>
<path d="M433.084,78.915c-48.199-48.198-112.186-76.219-180.173-78.9c-5.426-0.213-10.774,1.82-14.685,5.578
	c-3.961,3.808-6.141,8.929-6.141,14.422v8.019C171.176,30.503,114.222,55.399,70.9,98.722
	c-39.536,39.536-64.306,91.9-69.748,147.448c-5.368,54.788,8.167,110.195,38.114,156.016c1.919,2.937,5.119,4.532,8.383,4.532
	c1.877,0,3.776-0.527,5.463-1.631c4.625-3.022,5.923-9.222,2.901-13.847c-57.103-87.372-44.892-204.444,29.035-278.37
	c39.546-39.546,91.474-62.356,147.037-64.811v100.215c-62.636,5.106-112.045,57.707-112.045,121.637
	c0,67.298,54.751,122.049,122.049,122.049c63.93,0,116.531-49.409,121.637-112.045h100.215
	c-2.456,55.562-25.267,107.492-64.812,147.037c-74.182,74.184-191.518,86.22-278.997,28.622c-4.615-3.038-10.818-1.761-13.858,2.854
	c-3.038,4.614-1.761,10.818,2.854,13.857C148.532,498.23,195.065,512,242.253,512c7.717,0,15.46-0.369,23.183-1.112
	c55.7-5.366,108.205-30.151,147.84-69.787c43.321-43.321,68.219-100.277,70.688-161.185h8.019c5.492,0,10.613-2.181,14.421-6.141
	c3.759-3.911,5.792-9.263,5.578-14.685C509.303,191.101,481.283,127.114,433.084,78.915z M242.088,371.952
	c-56.266,0-102.041-45.775-102.041-102.041S185.823,167.87,242.088,167.87s102.041,45.775,102.041,102.041
	S298.354,371.952,242.088,371.952z M363.731,259.907l-0.005,0.011c-4.832-59.345-52.3-106.813-111.645-111.645l0.011-0.005V20.015
	l0.03-0.007c129.404,5.102,234.766,110.465,239.863,239.899L363.731,259.907L363.731,259.907z"/>
<path d="M73.331,225.892c1.021,0.33,2.058,0.487,3.077,0.487c4.224,0,8.149-2.696,9.518-6.932l0.293-0.897
	c1.726-5.249-1.131-10.902-6.38-12.628c-5.251-1.726-10.902,1.131-12.628,6.38l-0.324,0.995
	C65.188,218.555,68.074,224.194,73.331,225.892z"/>
<path d="M71.548,306.294c5.46-0.842,9.204-5.952,8.361-11.413l-0.137-0.913c-0.801-5.467-5.882-9.25-11.349-8.448
	c-5.466,0.8-9.25,5.881-8.448,11.349l0.16,1.064c0.762,4.943,5.023,8.48,9.875,8.48C70.517,306.412,71.031,306.374,71.548,306.294z"
	/>
<path d="M108.359,364.982l-0.536-0.757c-3.177-4.52-9.418-5.607-13.938-2.43c-4.52,3.177-5.607,9.418-2.43,13.938l0.621,0.876
	c1.953,2.734,5.028,4.192,8.149,4.192c2.012,0,4.044-0.605,5.805-1.864C110.526,375.726,111.569,369.479,108.359,364.982z"/>
<path d="M118.082,157.756c2.584,0,5.168-0.995,7.126-2.981l0.66-0.666c3.903-3.912,3.897-10.245-0.015-14.148
	c-3.912-3.904-10.245-3.897-14.149,0.014l-0.747,0.754c-3.879,3.936-3.833,10.269,0.103,14.148
	C113.009,156.797,115.546,157.756,118.082,157.756z"/>
<path d="M315.881,437.621c1.42,0,2.861-0.304,4.232-0.944l0.971-0.458c4.988-2.376,7.105-8.346,4.728-13.334
	c-2.376-4.987-8.346-7.104-13.334-4.728l-0.841,0.397c-5.005,2.341-7.164,8.295-4.823,13.3
	C308.513,435.487,312.118,437.621,315.881,437.621z"/>
<path d="M238.048,453.942c0.07,0.001,0.14,0.002,0.209,0.002c5.429,0,9.886-4.345,9.998-9.798
	c0.113-5.523-4.273-10.094-9.796-10.208l-0.923-0.022c-5.506-0.176-10.125,4.198-10.279,9.721s4.198,10.125,9.721,10.279
	L238.048,453.942z"/>
<path d="M186.078,115.055c1.064,0,2.148-0.171,3.212-0.532l0.907-0.305c5.241-1.75,8.071-7.417,6.322-12.657
	c-1.751-5.241-7.418-8.07-12.657-6.322l-0.995,0.334c-5.232,1.774-8.036,7.454-6.263,12.686
	C178.018,112.427,181.908,115.055,186.078,115.055z"/>
<path d="M155.874,432.586c1.496,0.793,3.099,1.169,4.682,1.169c3.583,0,7.048-1.931,8.846-5.315
	c2.59-4.88,0.733-10.936-4.147-13.526l-0.833-0.445c-4.867-2.616-10.932-0.792-13.548,4.075s-0.792,10.932,4.075,13.548
	L155.874,432.586z"/>
<path d="M412.651,314.908c4.657,0,8.828-3.27,9.793-8.01l0.206-1.024c1.077-5.419-2.442-10.685-7.861-11.763
	c-5.419-1.079-10.685,2.442-11.763,7.861l-0.188,0.934c-1.102,5.414,2.393,10.696,7.807,11.799
	C411.318,314.842,411.99,314.908,412.651,314.908z"/>
<path d="M378.772,387.704c2.954,0,5.879-1.303,7.854-3.8l0.667-0.851c3.391-4.362,2.604-10.647-1.759-14.038
	c-4.361-3.39-10.647-2.603-14.038,1.759l-0.566,0.721c-3.426,4.335-2.691,10.625,1.643,14.052
	C374.412,387,376.599,387.704,378.772,387.704z"/>
<path d="M426.164,177.138c1.772,3.455,5.276,5.441,8.91,5.441c1.537,0,3.095-0.355,4.557-1.104c4.917-2.521,6.858-8.55,4.337-13.466
	l-0.041-0.081c-2.471-4.942-8.478-6.944-13.422-4.474c-4.942,2.471-6.945,8.48-4.474,13.422L426.164,177.138z"/>
<path d="M302.678,52.03c-5.325-1.48-10.837,1.641-12.315,6.965c-1.478,5.324,1.641,10.837,6.965,12.315
	c43.013,11.937,81.677,38.189,108.868,73.923c1.969,2.587,4.951,3.947,7.968,3.947c2.112,0,4.241-0.666,6.05-2.043
	c4.397-3.346,5.249-9.623,1.903-14.02C392.296,93.925,349.878,65.128,302.678,52.03z"/>
<g>
</g>
<g>
</g>
<g>
</g>
<g>
</g>
<g>
</g>
<g>
</g>
<g>
</g>
<g>
</g>
<g>
</g>
<g>
</g>
<g>
</g>
<g>
</g>
<g>
</g>
<g>
</g>
<g>
</g>
</svg>
