<?xml version="1.0" encoding="iso-8859-1"?>
<!-- Generator: Adobe Illustrator 19.0.0, SVG Export Plug-In . SVG Version: 6.00 Build 0)  -->
<svg version="1.1" id="Capa_1" xmlns="http://www.w3.org/2000/svg" xmlns:xlink="http://www.w3.org/1999/xlink" x="0px" y="0px"
	 viewBox="0 0 512 512" style="enable-background:new 0 0 512 512;" xml:space="preserve">
<path style="fill:#8CCEEA;" d="M95,255.537H52.5c-23.472,0-42.5-19.028-42.5-42.5v-115c0-23.472,19.028-42.5,42.5-42.5h407
	c23.472,0,42.5,19.028,42.5,42.5v115c0,23.472-19.028,42.5-42.5,42.5H448H95z"/>
<path style="fill:#34BFE0;" d="M502,378.461h-40.297l-32.071-226.298c-1.681-11.833-11.811-20.626-23.762-20.626h-45
	c-13.255,0-24,10.745-24,24s10.745,24,24,24h24.168l28.183,198.924H311.833l-32.071-226.298
	c-1.681-11.833-11.811-20.626-23.762-20.626h-45c-13.255,0-24,10.745-24,24s10.745,24,24,24h24.168l28.183,198.924h-98.518
	l-32.071-226.298c-1.681-11.833-11.811-20.626-23.762-20.626H64c-13.255,0-24,10.745-24,24s10.745,24,24,24h24.167l32.071,226.298
	c1.681,11.833,11.811,20.626,23.762,20.626h358V378.461z"/>
<path d="M512,213.037v-115c0-28.949-23.552-52.5-52.5-52.5H220c-5.522,0-10,4.477-10,10s4.478,10,10,10h239.5
	c17.921,0,32.5,14.58,32.5,32.5v115c0,17.92-14.579,32.5-32.5,32.5h-6.535l-13.433-94.78c-2.366-16.658-16.837-29.22-33.662-29.22
	h-45c-18.748,0-34,15.252-34,34s15.252,34,34,34h15.485l7.934,56h-81.194l-13.433-94.78c-2.365-16.658-16.837-29.22-33.662-29.22
	h-45c-18.748,0-34,15.252-34,34s15.252,34,34,34h15.484l7.934,56h-78.324l-13.433-94.78c-2.365-16.658-16.837-29.22-33.662-29.22H64
	c-18.748,0-34,15.252-34,34s15.252,34,34,34h15.484l7.937,56H52.5c-17.921,0-32.5-14.58-32.5-32.5v-115
	c0-17.92,14.579-32.5,32.5-32.5h58.833c5.522,0,10-4.477,10-10s-4.478-10-10-10H52.5c-28.948,0-52.5,23.551-52.5,52.5v115
	c0,28.949,23.552,52.5,52.5,52.5h37.755l20.083,141.704c2.365,16.658,16.837,29.22,33.662,29.22h248c5.522,0,10-4.478,10-10
	c0-5.522-4.478-10-10-10H144c-6.928,0-12.887-5.173-13.86-12.029L98.068,178.134c-0.699-4.931-4.921-8.597-9.901-8.597H64
	c-7.72,0-14-6.28-14-14s6.28-14,14-14h45c6.928,0,12.887,5.173,13.86,12.029l32.071,226.298c0.699,4.932,4.921,8.597,9.901,8.597
	h98.518c2.896,0,5.651-1.256,7.551-3.443c1.9-2.187,2.757-5.091,2.351-7.959l-28.183-198.924c-0.699-4.932-4.921-8.597-9.901-8.597
	H211c-7.72,0-14-6.28-14-14s6.28-14,14-14h45c6.928,0,12.887,5.173,13.86,12.029l32.071,226.298
	c0.699,4.932,4.921,8.597,9.901,8.597H413.22c2.896,0,5.651-1.256,7.551-3.443c1.9-2.187,2.757-5.091,2.351-7.959l-28.183-198.924
	c-0.699-4.932-4.921-8.597-9.901-8.597H360.87c-7.72,0-14-6.28-14-14s6.28-14,14-14h45c6.928,0,12.887,5.173,13.86,12.029
	l32.071,226.298c0.699,4.932,4.921,8.597,9.901,8.597H492v68c0,5.522,4.478,10,10,10s10-4.478,10-10V346.949c0-5.522-4.478-10-10-10
	s-10,4.478-10,10v21.512h-21.614l-14.587-102.924h3.701C488.448,265.537,512,241.986,512,213.037z M173.516,368.461l-14.587-102.924
	h78.323l14.582,102.924H173.516z M320.516,368.461l-14.587-102.924h81.194l14.582,102.924H320.516z"/>
<path d="M166.542,65.537h0.875c5.522,0,10-4.477,10-10s-4.478-10-10-10h-0.875c-5.522,0-10,4.477-10,10
	S161.019,65.537,166.542,65.537z"/>
<path d="M445,416.459c-2.63,0-5.21,1.07-7.07,2.93c-1.86,1.86-2.93,4.44-2.93,7.07s1.069,5.21,2.93,7.07
	c1.86,1.859,4.44,2.93,7.07,2.93s5.21-1.07,7.069-2.93c1.86-1.86,2.931-4.44,2.931-7.07s-1.07-5.21-2.931-7.07
	C450.21,417.529,447.63,416.459,445,416.459z"/>
<path d="M48.879,84.567c-0.01,0-0.019,0-0.028,0c-5.51,0-9.984,4.459-9.999,9.973c-0.015,5.523,4.45,10.012,9.973,10.027h0.18
	c0.01,0,0.019,0,0.028,0c5.51,0,9.984-4.459,9.999-9.973c0.015-5.523-4.45-10.012-9.973-10.027H48.879z"/>
<path d="M463.973,104.568c0.01,0,0.019,0,0.028,0c5.51,0,9.984-4.459,9.999-9.973c0.015-5.523-4.45-10.012-9.973-10.027h-0.179
	c-0.01,0-0.019,0-0.028,0c-5.51,0-9.984,4.459-9.999,9.973c-0.015,5.523,4.45,10.012,9.973,10.027H463.973z"/>
<path d="M255.973,104.568c0.01,0,0.019,0,0.028,0c5.51,0,9.984-4.459,9.999-9.973c0.015-5.523-4.45-10.012-9.973-10.027h-0.179
	c-0.01,0-0.019,0-0.028,0c-5.51,0-9.984,4.459-9.999,9.973c-0.015,5.523,4.45,10.012,9.973,10.027H255.973z"/>
<path d="M49.004,227.537c0.01,0,0.019,0,0.028,0c5.51,0,9.984-4.459,9.999-9.973c0.015-5.523-4.45-10.012-9.973-10.027h-0.18
	c-0.01,0-0.019,0-0.028,0c-5.51,0-9.984,4.459-9.999,9.973c-0.015,5.523,4.45,10.012,9.973,10.027H49.004z"/>
<path d="M463.794,227.537h0.179c0.01,0,0.019,0,0.028,0c5.51,0,9.984-4.459,9.999-9.973c0.015-5.523-4.45-10.012-9.973-10.027
	h-0.179c-0.01,0-0.019,0-0.028,0c-5.51,0-9.984,4.459-9.999,9.973C453.807,223.032,458.271,227.521,463.794,227.537z"/>
<g>
</g>
<g>
</g>
<g>
</g>
<g>
</g>
<g>
</g>
<g>
</g>
<g>
</g>
<g>
</g>
<g>
</g>
<g>
</g>
<g>
</g>
<g>
</g>
<g>
</g>
<g>
</g>
<g>
</g>
</svg>
