<?xml version="1.0" encoding="iso-8859-1"?>
<!-- Generator: Adobe Illustrator 19.0.0, SVG Export Plug-In . SVG Version: 6.00 Build 0)  -->
<svg version="1.1" id="Capa_1" xmlns="http://www.w3.org/2000/svg" xmlns:xlink="http://www.w3.org/1999/xlink" x="0px" y="0px"
	 viewBox="0 0 512 512" style="enable-background:new 0 0 512 512;" xml:space="preserve">
<rect x="10" y="428" style="fill:#657FC9;" width="492" height="40"/>
<path style="fill:#FE947C;" d="M172.333,44H83.667C72.805,44,64,52.805,64,63.667V100h128V63.667C192,52.805,183.195,44,172.333,44z
	"/>
<path style="fill:#D0E6EF;" d="M32.065,428h448V120c0-11.046-8.954-20-20-20h-408c-11.046,0-20,8.954-20,20
	C32.065,120,32.065,428,32.065,428z"/>
<circle style="fill:#FDB954;" cx="256.06" cy="264" r="20.802"/>
<g>
	<path style="fill:#6EA3D3;" d="M277.286,266.358l16.634,5.175c14.95,4.651,26.234,16.997,29.526,32.304l0,0
		c4.065,18.904,29.999,21.446,37.658,3.691l0,0c18.964-43.963-27.572-87.499-70.175-65.651l-18.172,9.319L277.286,266.358z"/>
	<path style="fill:#6EA3D3;" d="M253.63,285.143l-5.175,16.634c-4.651,14.95-16.997,26.234-32.304,29.526l0,0
		c-18.904,4.065-21.446,29.999-3.691,37.658l0,0c43.963,18.964,87.499-27.572,65.651-70.175l-9.319-18.172L253.63,285.143z"/>
	<path style="fill:#6EA3D3;" d="M234.844,261.487l-16.634-5.175c-14.95-4.651-26.234-16.997-29.526-32.304l0,0
		c-4.065-18.904-29.999-21.446-37.658-3.691l0,0c-18.964,43.963,27.572,87.499,70.175,65.651l18.172-9.319L234.844,261.487z"/>
	<path style="fill:#6EA3D3;" d="M258.501,242.701l5.175-16.634c4.651-14.95,16.997-26.234,32.304-29.526l0,0
		c18.904-4.065,21.446-29.999,3.691-37.658l0,0c-43.963-18.964-87.499,27.572-65.651,70.175l9.319,18.172L258.501,242.701z"/>
</g>
<path d="M502,418h-11.935V120c0-16.542-13.458-30-30-30H202V63.667C202,47.308,188.692,34,172.333,34H83.667
	C67.308,34,54,47.308,54,63.667V90h-1.935c-16.542,0-30,13.458-30,30v298H10c-5.523,0-10,4.478-10,10v40c0,5.522,4.477,10,10,10h492
	c5.523,0,10-4.478,10-10v-40C512,422.478,507.523,418,502,418z M74,63.667C74,58.336,78.336,54,83.667,54h88.667
	c5.33,0,9.667,4.336,9.667,9.667V90H74V63.667z M42.065,120c0-5.514,4.486-10,10-10h408c5.514,0,10,4.486,10,10v298h-428
	C42.065,418,42.065,120,42.065,120z M492,458H20v-20h472V458z"/>
<path d="M280.875,282.263c0.852-1.152,1.615-2.356,2.292-3.603l7.782,2.421c11.485,3.573,20.191,13.098,22.72,24.857
	c2.785,12.949,13.101,22.15,26.283,23.442c1.04,0.103,2.071,0.152,3.092,0.152c11.925,0,22.41-6.843,27.242-18.045
	c10.333-23.953,4.7-50.946-14.35-68.768c-19.05-17.823-46.358-21.646-69.57-9.742l-12.069,6.189
	c-1.128-0.832-2.307-1.58-3.527-2.244l2.453-7.886c3.574-11.485,13.099-20.191,24.858-22.72
	c12.949-2.785,22.15-13.101,23.442-26.282c1.292-13.182-5.731-25.088-17.893-30.334c-23.953-10.332-50.947-4.7-68.768,14.35
	c-17.822,19.05-21.646,46.358-9.742,69.571l6.18,12.05c-0.84,1.13-1.592,2.312-2.263,3.535l-7.857-2.444
	c-11.485-3.573-20.191-13.098-22.72-24.857c-2.784-12.948-13.101-22.149-26.282-23.442c-13.178-1.292-25.089,5.731-30.335,17.893
	c-10.333,23.953-4.7,50.946,14.35,68.768c11.685,10.932,26.474,16.597,41.522,16.596c9.484-0.001,19.075-2.252,28.049-6.854
	l11.949-6.128c1.158,0.861,2.365,1.625,3.608,2.302l-2.416,7.767c-3.573,11.484-13.098,20.19-24.858,22.72
	c-12.949,2.784-22.15,13.102-23.442,26.283s5.731,25.088,17.893,30.333c7.963,3.436,16.26,5.106,24.447,5.106
	c16.438-0.001,32.424-6.739,44.321-19.456c17.822-19.05,21.646-46.357,9.742-69.57L280.875,282.263z M245.262,264
	c0-2.886,1.124-5.598,3.165-7.638c2.04-2.041,4.753-3.165,7.638-3.165c2.886,0,5.598,1.124,7.639,3.165
	c2.04,2.041,3.164,4.752,3.164,7.638s-1.124,5.599-3.164,7.639c-4.213,4.212-11.066,4.211-15.277,0
	C246.386,269.599,245.262,266.886,245.262,264z M295.492,250.775c18.946-9.713,36.587-2.985,46.781,6.55
	c10.194,9.537,18.082,26.693,9.649,46.242c-2.646,6.135-8.337,6.077-10.019,5.909c-1.681-0.165-7.276-1.21-8.681-7.743
	c-4.044-18.805-17.966-34.035-36.332-39.75l-10.48-3.26c-0.172-0.998-0.391-1.983-0.659-2.954L295.492,250.775z M249.468,177.715
	c6.715-7.178,17.205-13.211,29.649-13.211c5.23,0,10.808,1.067,16.592,3.562c6.135,2.646,6.074,8.337,5.909,10.019
	c-0.165,1.681-1.21,7.276-7.743,8.681c-18.805,4.044-34.036,17.966-39.75,36.332l-3.281,10.547c-0.982,0.167-1.952,0.38-2.908,0.64
	l-5.02-9.789C233.203,205.551,239.932,187.909,249.468,177.715z M216.638,277.069c-18.946,9.717-36.587,2.986-46.781-6.551
	c-10.194-9.536-18.082-26.692-9.649-46.241c2.254-5.226,6.717-5.956,9.029-5.956c0.403,0,0.741,0.022,0.99,0.047
	c1.681,0.165,7.276,1.21,8.681,7.743c4.044,18.805,17.966,34.036,36.332,39.75l10.451,3.251c0.167,1.008,0.384,2.003,0.649,2.983
	L216.638,277.069z M262.662,350.13c-9.537,10.193-26.693,18.083-46.242,9.648c-6.135-2.646-6.074-8.337-5.909-10.019
	c0.165-1.681,1.21-7.275,7.743-8.681c18.805-4.044,34.036-17.966,39.75-36.331l3.236-10.403c1.013-0.171,2.018-0.393,3.013-0.666
	l4.959,9.67C278.927,322.294,272.198,339.936,262.662,350.13z"/>
<path d="M203.768,388.239c-22.06-9.292-41.333-24.378-55.734-43.626c-3.309-4.422-9.576-5.324-13.998-2.016
	c-4.422,3.309-5.325,9.575-2.016,13.998c16.528,22.089,38.653,39.405,63.984,50.075c1.268,0.534,2.583,0.787,3.877,0.787
	c3.902,0,7.61-2.299,9.22-6.121C211.246,396.247,208.858,390.383,203.768,388.239z"/>
<path d="M132.385,317.704l-0.117-0.269c-2.202-5.064-8.093-7.386-13.158-5.184s-7.386,8.094-5.184,13.158l0.117,0.269
	c1.638,3.767,5.315,6.016,9.176,6.016c1.331,0,2.684-0.268,3.982-0.832C132.266,328.66,134.587,322.769,132.385,317.704z"/>
<path d="M308.362,139.761c19.954,8.405,37.826,21.71,51.685,38.478c1.978,2.392,4.834,3.629,7.713,3.629
	c2.244,0,4.501-0.751,6.366-2.292c4.257-3.519,4.855-9.822,1.337-14.079c-15.905-19.243-36.423-34.516-59.337-44.167
	c-5.089-2.144-10.954,0.244-13.098,5.334C300.884,131.753,303.272,137.617,308.362,139.761z"/>
<path d="M379.852,210.541c1.631,3.78,5.315,6.04,9.186,6.04c1.322,0,2.667-0.264,3.958-0.821c5.071-2.189,7.407-8.074,5.218-13.144
	l-0.194-0.447c-2.211-5.062-8.107-7.371-13.167-5.161c-5.061,2.211-7.372,8.106-5.161,13.167L379.852,210.541z"/>
<path d="M118.729,217.037c1.268,0.534,2.583,0.787,3.877,0.787c3.902,0,7.61-2.299,9.22-6.121
	c13.371-31.745,39.173-57.804,70.79-71.495c5.068-2.195,7.397-8.083,5.203-13.15c-2.195-5.068-8.083-7.396-13.15-5.203
	c-36.833,15.95-65.697,45.102-81.274,82.084C111.25,209.029,113.639,214.893,118.729,217.037z"/>
<path d="M393.402,310.963c-5.088-2.144-10.954,0.244-13.098,5.334c-13.372,31.746-39.174,57.805-70.791,71.494
	c-5.068,2.194-7.397,8.082-5.203,13.15c1.634,3.773,5.315,6.029,9.182,6.029c1.326,0,2.674-0.266,3.969-0.826
	c36.832-15.948,65.696-45.1,81.275-82.084C400.88,318.971,398.492,313.106,393.402,310.963z"/>
<g>
</g>
<g>
</g>
<g>
</g>
<g>
</g>
<g>
</g>
<g>
</g>
<g>
</g>
<g>
</g>
<g>
</g>
<g>
</g>
<g>
</g>
<g>
</g>
<g>
</g>
<g>
</g>
<g>
</g>
</svg>
