<?xml version="1.0" encoding="iso-8859-1"?>
<!-- Generator: Adobe Illustrator 19.0.0, SVG Export Plug-In . SVG Version: 6.00 Build 0)  -->
<svg version="1.1" id="Capa_1" xmlns="http://www.w3.org/2000/svg" xmlns:xlink="http://www.w3.org/1999/xlink" x="0px" y="0px"
	 viewBox="0 0 512 512" style="enable-background:new 0 0 512 512;" xml:space="preserve">
<polygon style="fill:#44C5CB;" points="502,455.476 502,56.524 501.986,56.538 455.448,10 56.538,10 10,56.538 10,455.462 
	56.538,502 455.448,502 501.986,455.462 "/>
<g>
	<circle style="fill:#F4F4F4;" cx="256" cy="256" r="198"/>
	<circle style="fill:#F4F4F4;" cx="78.07" cy="78.08" r="20"/>
	<circle style="fill:#F4F4F4;" cx="77.906" cy="433.26" r="20"/>
	<circle style="fill:#F4F4F4;" cx="434.26" cy="78.08" r="20"/>
	<circle style="fill:#F4F4F4;" cx="434.09" cy="433.26" r="20"/>
</g>
<g>
	<path style="fill:#FDB954;" d="M256.098,224.098V89.667l0,0c-35.521,0-60.434,35.034-48.773,68.586l26.142,75.214L256.098,224.098z
		"/>
	<path style="fill:#FDB954;" d="M255.902,287.902v134.432l0,0c35.521,0,60.434-35.034,48.773-68.586l-26.142-75.214L255.902,287.902
		z"/>
	<path style="fill:#FDB954;" d="M228.323,271.866l-116.421,67.216l0,0c17.761,30.762,60.558,34.821,83.784,7.945l52.067-60.247
		L228.323,271.866z"/>
	<path style="fill:#FDB954;" d="M283.677,240.134l116.421-67.216l0,0c-17.761-30.762-60.558-34.821-83.784-7.945l-52.067,60.247
		L283.677,240.134z"/>
	<path style="fill:#FDB954;" d="M283.578,272.036L400,339.252l0,0c17.761-30.762-0.123-69.855-35.011-76.532l-78.208-14.968
		L283.578,272.036z"/>
	<path style="fill:#FDB954;" d="M228.422,239.964L112,172.748l0,0c-17.761,30.762,0.123,69.855,35.011,76.532l78.208,14.968
		L228.422,239.964z"/>
</g>
<circle style="fill:#F25353;" cx="256.1" cy="256.1" r="32"/>
<path d="M508.706,49.116L462.519,2.929C460.644,1.054,458.1,0,455.448,0H56.539c-2.652,0-5.196,1.054-7.071,2.929L2.929,49.468
	C1.054,51.343,0,53.886,0,56.539v398.923c0,2.652,1.054,5.195,2.929,7.071l46.539,46.538c1.875,1.875,4.418,2.929,7.071,2.929
	h398.909c2.652,0,5.196-1.054,7.071-2.929l46.094-46.095c2.115-1.865,3.387-4.579,3.387-7.501V56.524
	C512,53.646,510.763,50.976,508.706,49.116z M492,451.306L451.306,492H60.681L20,451.319V60.681L60.681,20h390.625L492,60.694
	V451.306z"/>
<path d="M78.071,108.085c16.542,0,30-13.458,30-30s-13.458-30-30-30s-30,13.458-30,30S61.529,108.085,78.071,108.085z
	 M78.071,68.085c5.514,0,10,4.486,10,10s-4.486,10-10,10s-10-4.486-10-10S72.557,68.085,78.071,68.085z"/>
<path d="M77.906,403.264c-16.542,0-30,13.458-30,30s13.458,30,30,30s30-13.458,30-30S94.448,403.264,77.906,403.264z
	 M77.906,443.264c-5.514,0-10-4.486-10-10s4.486-10,10-10s10,4.486,10,10S83.42,443.264,77.906,443.264z"/>
<path d="M404.258,78.085c0,16.542,13.458,30,30,30s30-13.458,30-30s-13.458-30-30-30S404.258,61.543,404.258,78.085z
	 M444.258,78.085c0,5.514-4.486,10-10,10s-10-4.486-10-10s4.486-10,10-10S444.258,72.571,444.258,78.085z"/>
<path d="M434.094,403.264c-16.542,0-30,13.458-30,30s13.458,30,30,30s30-13.458,30-30S450.636,403.264,434.094,403.264z
	 M434.094,443.264c-5.514,0-10-4.486-10-10s4.486-10,10-10s10,4.486,10,10S439.608,443.264,434.094,443.264z"/>
<path d="M389.605,123.736c1.956,1.976,4.531,2.966,7.108,2.966c2.542,0,5.084-0.963,7.034-2.893
	c3.926-3.885,3.958-10.216,0.073-14.142l-0.734-0.739c-3.901-3.91-10.232-3.915-14.143-0.015
	c-3.909,3.901-3.916,10.233-0.015,14.143L389.605,123.736z"/>
<path d="M436.698,152.883c-2.74-4.794-8.849-6.459-13.644-3.721c-4.795,2.74-6.461,8.849-3.721,13.644
	c41.906,73.339,29.407,166.327-30.396,226.13c-73.302,73.301-192.572,73.301-265.873,0C87.555,353.428,68,306.217,68,256
	c0-50.216,19.555-97.428,55.064-132.936c60.014-60.017,153.229-72.384,226.682-30.08c4.785,2.757,10.9,1.112,13.656-3.675
	c2.756-4.786,1.111-10.9-3.675-13.656c-81.273-46.808-184.409-33.127-250.806,33.269C69.636,148.208,48,200.441,48,256
	s21.636,107.792,60.921,147.078c40.55,40.55,93.814,60.824,147.079,60.824s106.529-20.274,147.078-60.824
	C469.241,336.915,483.066,234.031,436.698,152.883z"/>
<path d="M409.757,175.507c0.687-2.562,0.327-5.292-0.999-7.588c-10.105-17.502-27.439-28.634-47.559-30.542
	c-20.117-1.904-39.237,5.768-52.452,21.058l-42.649,49.35V89.667c0-5.523-4.477-10-10-10c-20.209,0-38.517,9.446-50.229,25.916
	s-14.624,36.864-7.989,55.954l21.414,61.611L117,164.088c-4.781-2.761-10.898-1.123-13.66,3.66
	c-10.105,17.502-11.079,38.08-2.671,56.458s24.613,31.097,44.462,34.896l64.064,12.26l-102.294,59.059
	c-4.783,2.762-6.422,8.877-3.66,13.66c10.105,17.502,27.439,28.635,47.559,30.543c2.024,0.191,4.037,0.286,6.036,0.286
	c17.87,0,34.531-7.592,46.416-21.345l42.649-49.35v118.117c0,5.522,4.477,10,10,10c20.209,0,38.518-9.446,50.229-25.916
	s14.624-36.864,7.989-55.953l-21.413-61.611L395,347.912c1.534,0.886,3.26,1.34,5,1.34c0.866,0,1.736-0.112,2.588-0.341
	c2.562-0.687,4.746-2.362,6.072-4.659c10.105-17.502,11.079-38.08,2.671-56.458c-8.407-18.377-24.613-31.097-44.462-34.896
	l-64.064-12.26l102.293-59.059C407.395,180.252,409.071,178.068,409.757,175.507z M256.099,278.099c-12.131,0-22-9.869-22-22
	s9.869-22,22-22c12.131,0,22,9.869,22,22C278.099,268.23,268.229,278.099,256.099,278.099z M222.168,117.173
	c5.923-8.329,14.344-13.999,23.931-16.323v114.462c-2.586,0.634-5.077,1.51-7.451,2.6l-21.876-62.941
	C212.29,142.075,214.256,128.298,222.168,117.173z M118.856,215.886c-4.252-9.294-4.952-19.421-2.171-28.886l99.131,57.233
	c-0.736,2.494-1.253,5.081-1.513,7.743l-65.412-12.518C135.483,236.892,124.536,228.3,118.856,215.886z M188.12,340.487
	c-8.927,10.329-21.846,15.516-35.432,14.226c-10.175-0.965-19.295-5.423-26.102-12.563l99.047-57.185
	c1.819,1.918,3.814,3.665,5.964,5.215L188.12,340.487z M289.832,394.826c-5.923,8.33-14.343,14-23.931,16.323V296.932
	c2.616-0.628,5.136-1.502,7.537-2.595l21.79,62.694C299.71,369.925,297.744,383.701,289.832,394.826z M393.144,296.114
	c4.251,9.294,4.951,19.421,2.17,28.886l-98.913-57.108c0.739-2.521,1.251-5.137,1.505-7.829l65.203,12.478
	C376.518,275.108,387.465,283.7,393.144,296.114z M286.372,227.031c-1.832-1.907-3.84-3.64-6-5.176l43.508-50.344
	c8.927-10.329,21.842-15.517,35.432-14.225c10.175,0.965,19.295,5.422,26.102,12.563L286.372,227.031z"/>
<g>
</g>
<g>
</g>
<g>
</g>
<g>
</g>
<g>
</g>
<g>
</g>
<g>
</g>
<g>
</g>
<g>
</g>
<g>
</g>
<g>
</g>
<g>
</g>
<g>
</g>
<g>
</g>
<g>
</g>
</svg>
