<?xml version="1.0" encoding="iso-8859-1"?>
<!-- Generator: Adobe Illustrator 19.0.0, SVG Export Plug-In . SVG Version: 6.00 Build 0)  -->
<svg version="1.1" id="Capa_1" xmlns="http://www.w3.org/2000/svg" xmlns:xlink="http://www.w3.org/1999/xlink" x="0px" y="0px"
	 viewBox="0 0 512.002 512.002" style="enable-background:new 0 0 512.002 512.002;" xml:space="preserve">
<path style="fill:#A0E892;" d="M10,488.519l4.591,4.591c11.051,11.051,28.967,11.051,40.018,0l9.182-9.182
	c11.051-11.051,28.967-11.051,40.018,0l9.182,9.182c11.051,11.051,28.967,11.051,40.018,0l9.182-9.182
	c11.051-11.051,28.967-11.051,40.018,0l9.182,9.182c11.051,11.051,28.967,11.051,40.018,0l9.182-9.182
	c11.051-11.051,28.967-11.051,40.018,0l9.182,9.182c11.051,11.051,28.967,11.051,40.018,0l9.182-9.182
	c11.051-11.051,28.967-11.051,40.018,0l9.182,9.182c11.051,11.051,28.967,11.051,40.018,0l4.591-4.591
	c13.586-13.586,35.614-13.586,49.2,0v-72.964c-13.586-13.586-35.614-13.586-49.2,0l-4.591,4.591
	c-11.051,11.051-28.967,11.051-40.018,0l-9.182-9.182c-11.051-11.051-28.967-11.051-40.018,0l-9.182,9.182
	c-11.051,11.051-28.967,11.051-40.018,0l-9.182-9.182c-11.051-11.051-28.967-11.051-40.018,0l-9.182,9.182
	c-11.051,11.051-28.967,11.051-40.018,0l-9.182-9.182c-11.051-11.051-28.967-11.051-40.018,0l-9.182,9.182
	c-11.051,11.051-28.967,11.051-40.018,0l-9.182-9.182c-11.051-11.051-28.967-11.051-40.018,0l-9.182,9.182
	c-11.051,11.051-28.967,11.051-40.018,0L10,415.555V488.519z"/>
<path d="M428.2,512.001c-10.229,0-19.846-3.983-27.08-11.217l-9.182-9.182c-3.456-3.456-8.051-5.359-12.938-5.359
	s-9.482,1.903-12.938,5.359l-9.183,9.182c-14.932,14.933-39.228,14.931-54.16,0l-9.182-9.182c-7.135-7.135-18.742-7.135-25.876,0
	l-9.182,9.182c-14.933,14.933-39.229,14.931-54.16,0l-9.182-9.182c-7.135-7.135-18.742-7.135-25.876,0l-9.183,9.182
	c-7.231,7.234-16.849,11.217-27.078,11.217s-19.847-3.983-27.08-11.217l-9.182-9.182c-7.135-7.135-18.742-7.135-25.876,0
	l-9.183,9.182c-7.232,7.234-16.849,11.217-27.079,11.217s-19.847-3.983-27.08-11.217l-4.591-4.591
	c-3.905-3.905-3.906-10.236,0-14.142c3.904-3.906,10.237-3.907,14.142-0.001l4.591,4.591c3.456,3.457,8.051,5.36,12.938,5.36
	s9.482-1.903,12.938-5.359l9.183-9.182c7.233-7.233,16.85-11.217,27.08-11.217c10.229,0,19.846,3.983,27.08,11.217l9.182,9.182
	c3.455,3.456,8.05,5.359,12.937,5.359s9.482-1.903,12.938-5.359l9.183-9.182c14.932-14.933,39.228-14.931,54.16,0l9.182,9.182
	c7.135,7.135,18.742,7.135,25.876,0l9.182-9.182c14.933-14.933,39.229-14.931,54.16,0l9.182,9.182
	c7.135,7.135,18.742,7.135,25.876,0l9.183-9.182c7.233-7.233,16.85-11.217,27.08-11.217s19.847,3.983,27.08,11.217l9.182,9.182
	c7.135,7.135,18.742,7.135,25.876,0l4.591-4.591c17.464-17.463,45.879-17.463,63.342,0c3.905,3.905,3.906,10.237,0,14.143
	c-3.905,3.904-10.237,3.904-14.142,0c-9.666-9.666-25.393-9.666-35.059,0l-4.59,4.591C448.047,508.018,438.43,512.001,428.2,512.001
	z"/>
<path d="M133,438.435c-10.229,0-19.847-3.983-27.08-11.217l-9.182-9.183c-3.456-3.456-8.05-5.359-12.938-5.359
	c-4.888,0-9.482,1.903-12.938,5.359l-9.182,9.183c-7.233,7.233-16.851,11.217-27.08,11.217s-19.847-3.983-27.08-11.217l-4.591-4.593
	c-3.905-3.905-3.905-10.236,0-14.142c3.906-3.904,10.237-3.904,14.142,0.001l4.591,4.592c3.456,3.455,8.05,5.358,12.938,5.358
	s9.482-1.903,12.938-5.359l9.182-9.183c7.233-7.233,16.851-11.217,27.081-11.217c10.229,0,19.846,3.983,27.08,11.217l9.182,9.183
	c3.456,3.456,8.05,5.359,12.938,5.359s9.482-1.903,12.938-5.359c3.905-3.904,10.237-3.904,14.142,0
	c3.905,3.905,3.906,10.237,0,14.143C152.847,434.451,143.229,438.435,133,438.435z"/>
<path d="M428.2,438.435c-10.229,0-19.846-3.983-27.08-11.217l-9.182-9.183c-3.456-3.456-8.05-5.359-12.938-5.359
	s-9.482,1.903-12.938,5.359c-3.905,3.904-10.237,3.904-14.142,0c-3.905-3.905-3.906-10.237,0-14.143
	c7.233-7.233,16.851-11.217,27.08-11.217s19.847,3.983,27.08,11.217l9.182,9.183c3.456,3.456,8.05,5.359,12.938,5.359
	s9.482-1.903,12.938-5.359l4.59-4.591c17.464-17.463,45.88-17.464,63.343-0.001c3.905,3.905,3.906,10.237,0,14.143
	c-3.905,3.904-10.237,3.904-14.142,0c-9.666-9.666-25.393-9.666-35.059,0l-4.59,4.591
	C448.047,434.451,438.429,438.435,428.2,438.435z"/>
<path style="fill:#AAEBF2;" d="M296,279.205V50.001c0-22.091-17.909-40-40-40s-40,17.909-40,40v229.204
	c-26.206,14.218-44,41.972-44,73.882c0,46.392,37.608,84,84,84s84-37.608,84-84C340,321.177,322.206,293.423,296,279.205z"/>
<circle style="fill:#FDB954;" cx="256" cy="353.091" r="52"/>
<path d="M350.5,110.695h-17.583c-5.523,0-10-4.477-10-10s4.477-10,10-10H350.5c5.523,0,10,4.477,10,10
	S356.023,110.695,350.5,110.695z"/>
<path d="M350.5,62.695h-17.583c-5.523,0-10-4.477-10-10s4.477-10,10-10H350.5c5.523,0,10,4.477,10,10S356.023,62.695,350.5,62.695z"
	/>
<path d="M350.5,158.695h-17.583c-5.523,0-10-4.477-10-10s4.477-10,10-10H350.5c5.523,0,10,4.477,10,10
	S356.023,158.695,350.5,158.695z"/>
<path d="M350.5,206.695h-17.583c-5.523,0-10-4.477-10-10s4.477-10,10-10H350.5c5.523,0,10,4.477,10,10
	S356.023,206.695,350.5,206.695z"/>
<path d="M350.5,254.695h-17.583c-5.523,0-10-4.477-10-10s4.477-10,10-10H350.5c5.523,0,10,4.477,10,10
	S356.023,254.695,350.5,254.695z"/>
<path d="M303.327,376.858c-4.376-3.368-10.655-2.553-14.024,1.823c-8.027,10.426-20.165,16.405-33.303,16.405
	c-23.159,0-42-18.841-42-42s18.841-42,42-42c13.464,0,25.784,6.22,33.801,17.064c3.283,4.442,9.544,5.381,13.986,2.097
	c4.441-3.282,5.38-9.544,2.097-13.985c-9.646-13.049-24.089-21.726-39.884-24.335V50.001c0-5.523-4.477-10-10-10s-10,4.477-10,10
	v241.904c-29.448,4.797-52,30.4-52,61.182c0,34.187,27.813,62,62,62c19.393,0,37.307-8.822,49.15-24.204
	C308.52,386.507,307.703,380.228,303.327,376.858z"/>
<path d="M308,363.234c-5.523,0-10-4.478-10-10v-0.148c0-5.522,4.477-10,10-10s10,4.478,10,10v0.148
	C318,358.757,313.523,363.234,308,363.234z"/>
<path d="M256,447.087c-51.832,0-94-42.168-94-94c0-32.491,16.711-62.465,44-79.613v-49.93c0-5.523,4.477-10,10-10s10,4.477,10,10
	v55.661c0,3.668-2.008,7.041-5.231,8.79C196.855,300.969,182,325.91,182,353.087c0,40.804,33.196,74,74,74s74-33.196,74-74
	c0-27.177-14.855-52.118-38.769-65.092c-3.224-1.749-5.231-5.122-5.231-8.79V50.001c0-16.542-13.458-30-30-30s-30,13.458-30,30v73
	c0,5.523-4.477,10-10,10s-10-4.477-10-10v-73c0-27.57,22.43-50,50-50s50,22.43,50,50v223.473c27.289,17.148,44,47.122,44,79.613
	C350,404.919,307.832,447.087,256,447.087z"/>
<path d="M216,183.668c-5.523,0-10-4.477-10-10v-1.167c0-5.523,4.477-10,10-10s10,4.477,10,10v1.168
	C226,179.191,221.523,183.668,216,183.668z"/>
<g>
</g>
<g>
</g>
<g>
</g>
<g>
</g>
<g>
</g>
<g>
</g>
<g>
</g>
<g>
</g>
<g>
</g>
<g>
</g>
<g>
</g>
<g>
</g>
<g>
</g>
<g>
</g>
<g>
</g>
</svg>
