<?xml version="1.0" encoding="iso-8859-1"?>
<!-- Generator: Adobe Illustrator 19.0.0, SVG Export Plug-In . SVG Version: 6.00 Build 0)  -->
<svg version="1.1" id="Capa_1" xmlns="http://www.w3.org/2000/svg" xmlns:xlink="http://www.w3.org/1999/xlink" x="0px" y="0px"
	 viewBox="0 0 512.001 512.001" style="enable-background:new 0 0 512.001 512.001;" xml:space="preserve">
<g>
	<rect x="134" y="214.03" style="fill:#8CCEEA;" width="32" height="83.938"/>
	<rect x="346" y="214.03" style="fill:#8CCEEA;" width="32" height="83.938"/>
</g>
<path style="fill:#D0E6EF;" d="M346,228.042h-68v-1.254c0-11.481-9.307-20.788-20.788-20.788h-2.424
	C243.307,206,234,215.307,234,226.788v1.254h-68v55.917h68v1.254c0,11.481,9.307,20.788,20.788,20.788h2.424
	c11.481,0,20.788-9.307,20.788-20.788v-1.254h68V228.042z"/>
<g>
	<path style="fill:#8CCEEA;" d="M112.571,136H31.429C19.594,136,10,145.594,10,157.429v197.143C10,366.406,19.594,376,31.429,376
		h81.143c11.835,0,21.429-9.594,21.429-21.429V157.429C134,145.594,124.406,136,112.571,136z"/>
	<path style="fill:#8CCEEA;" d="M480.531,136h-81.143c-11.835,0-21.429,9.594-21.429,21.429v197.143
		c0,11.835,9.594,21.429,21.429,21.429h81.143c11.835,0,21.429-9.594,21.429-21.429V157.429C501.96,145.594,492.366,136,480.531,136
		z"/>
</g>
<path d="M71.563,146H72c5.523,0,10-4.477,10-10c0-5.523-4.477-10-10-10h-0.437c-5.523,0-10,4.477-10,10
	C61.563,141.523,66.041,146,71.563,146z"/>
<path d="M480.571,126c-5.523,0-10,4.477-10,10c0,5.523,4.477,10,10,10c5.245,0,9.666,3.557,11.004,8.382
	c-0.604,0.385-1.178,0.835-1.706,1.363l-34.643,34.643c-3.905,3.905-3.905,10.237,0,14.142c1.953,1.953,4.512,2.929,7.071,2.929
	s5.119-0.977,7.071-2.929L492,181.898v19.911c-0.761,0.433-1.482,0.964-2.131,1.613l-34.643,34.643
	c-3.905,3.905-3.905,10.237,0,14.143c1.953,1.952,4.512,2.929,7.071,2.929s5.119-0.977,7.071-2.929L492,229.577v19.911
	c-0.761,0.433-1.482,0.964-2.131,1.613l-34.643,34.643c-3.905,3.905-3.905,10.237,0,14.143c1.953,1.952,4.512,2.929,7.071,2.929
	s5.119-0.977,7.071-2.929L492,277.256v19.911c-0.761,0.433-1.482,0.964-2.131,1.613l-34.643,34.643
	c-3.905,3.905-3.905,10.237,0,14.143c1.953,1.952,4.512,2.929,7.071,2.929s5.119-0.977,7.071-2.929L492,324.935v29.637
	c0,6.302-5.127,11.429-11.429,11.429h-81.143c-6.302,0-11.429-5.127-11.429-11.429v-29.637l22.631,22.631
	c1.953,1.952,4.512,2.929,7.071,2.929s5.119-0.977,7.071-2.929c3.905-3.905,3.905-10.237,0-14.143l-34.643-34.643
	c-0.649-0.649-1.37-1.18-2.131-1.613v-19.911l22.631,22.631c1.953,1.952,4.512,2.929,7.071,2.929s5.119-0.977,7.071-2.929
	c3.905-3.905,3.905-10.237,0-14.143l-34.643-34.643c-0.649-0.649-1.37-1.18-2.131-1.613v-19.911l22.631,22.631
	c1.953,1.952,4.512,2.929,7.071,2.929s5.119-0.977,7.071-2.929c3.905-3.905,3.905-10.237,0-14.143l-34.643-34.643
	c-0.649-0.649-1.37-1.18-2.131-1.613v-19.911l22.631,22.631c1.953,1.953,4.512,2.929,7.071,2.929c2.559,0,5.119-0.977,7.071-2.929
	c3.905-3.905,3.906-10.237,0-14.142l-34.643-34.643c-0.527-0.527-1.102-0.977-1.706-1.362c1.338-4.825,5.758-8.382,11.004-8.382
	c5.523,0,10-4.477,10-10c0-5.523-4.477-10-10-10C382.099,126,368,140.099,368,157.429v46.603h-22c-5.523,0-10,4.477-10,10v4.01
	h-49.265C282.957,205.312,271.151,196,257.212,196h-2.424c-13.939,0-25.745,9.312-29.523,22.042H176v-4.01c0-5.523-4.477-10-10-10
	h-22v-46.603c0-17.33-14.099-31.429-31.429-31.429c-5.523,0-10,4.477-10,10c0,5.523,4.477,10,10,10
	c5.245,0,9.666,3.557,11.004,8.382c-0.604,0.385-1.178,0.835-1.706,1.363l-34.643,34.643c-3.905,3.905-3.905,10.237,0,14.142
	c1.953,1.953,4.512,2.929,7.071,2.929s5.119-0.977,7.071-2.929L124,181.898v19.911c-0.761,0.433-1.482,0.964-2.131,1.613
	l-34.643,34.643c-3.905,3.905-3.905,10.237,0,14.143c1.953,1.952,4.512,2.929,7.071,2.929s5.119-0.977,7.071-2.929L124,229.577
	v19.911c-0.761,0.433-1.482,0.964-2.131,1.613l-34.643,34.643c-3.905,3.905-3.905,10.237,0,14.143
	c1.953,1.952,4.512,2.929,7.071,2.929s5.119-0.977,7.071-2.929L124,277.256v19.911c-0.761,0.433-1.482,0.964-2.131,1.613
	l-34.643,34.643c-3.905,3.905-3.905,10.237,0,14.143c1.953,1.952,4.512,2.929,7.071,2.929s5.119-0.977,7.071-2.929L124,324.935
	v29.637c0,6.302-5.127,11.429-11.429,11.429H31.429C25.127,366,20,360.873,20,354.571v-29.637l22.631,22.631
	c1.953,1.952,4.512,2.929,7.071,2.929s5.119-0.977,7.071-2.929c3.905-3.905,3.905-10.237,0-14.143L22.131,298.78
	c-0.649-0.649-1.37-1.18-2.131-1.613v-19.911l22.631,22.631c1.953,1.952,4.512,2.929,7.071,2.929s5.119-0.977,7.071-2.929
	c3.905-3.905,3.905-10.237,0-14.143L22.13,251.101c-0.649-0.649-1.37-1.18-2.131-1.613v-19.911l22.631,22.631
	c1.953,1.952,4.512,2.929,7.071,2.929s5.119-0.977,7.071-2.929c3.905-3.905,3.905-10.237,0-14.143l-34.643-34.643
	c-0.649-0.649-1.37-1.18-2.131-1.613v-19.911l22.631,22.631c1.953,1.953,4.512,2.929,7.071,2.929c2.559,0,5.119-0.977,7.071-2.929
	c3.905-3.905,3.906-10.237,0-14.142l-34.643-34.643c-0.527-0.527-1.102-0.977-1.706-1.362C21.76,149.557,26.18,146,31.426,146
	c5.523,0,10-4.477,10-10c0-5.523-4.477-10-10-10C14.099,126,0,140.099,0,157.429v197.143C0,371.901,14.099,386,31.429,386h81.143
	c17.33,0,31.429-14.099,31.429-31.429v-46.603h22c5.523,0,10-4.478,10-10v-4.011h49.265C229.043,306.688,240.849,316,254.788,316
	h2.424c13.939,0,25.745-9.313,29.523-22.042H336v4.011c0,5.522,4.477,10,10,10h22v46.603c0,17.33,14.099,31.429,31.429,31.429
	h81.143c17.33,0,31.429-14.099,31.429-31.429V157.429C512,140.099,497.901,126,480.571,126z M156,287.969h-12v-63.938h12v4.01
	v55.917V287.969z M278,273.958c-5.523,0-10,4.478-10,10v1.254c0,5.948-4.839,10.788-10.788,10.788h-2.424
	c-5.949,0-10.788-4.84-10.788-10.788v-1.254c0-5.522-4.477-10-10-10h-58v-35.917h58c5.523,0,10-4.477,10-10v-1.253
	c0-5.949,4.839-10.788,10.788-10.788h2.424c5.949,0,10.788,4.839,10.788,10.788v1.253c0,5.523,4.477,10,10,10h58v35.917H278z
	 M356,287.969v-4.011v-55.917v-4.01h12v63.938L356,287.969L356,287.969z"/>
<path d="M440.98,146c2.63,0,5.21-1.07,7.07-2.93s2.93-4.44,2.93-7.07s-1.07-5.21-2.93-7.07c-1.86-1.86-4.44-2.93-7.07-2.93
	s-5.21,1.07-7.07,2.93c-1.86,1.86-2.93,4.44-2.93,7.07s1.07,5.21,2.93,7.07C435.77,144.93,438.35,146,440.98,146z"/>
<g>
</g>
<g>
</g>
<g>
</g>
<g>
</g>
<g>
</g>
<g>
</g>
<g>
</g>
<g>
</g>
<g>
</g>
<g>
</g>
<g>
</g>
<g>
</g>
<g>
</g>
<g>
</g>
<g>
</g>
</svg>
