<?xml version="1.0" encoding="iso-8859-1"?>
<!-- Generator: Adobe Illustrator 19.0.0, SVG Export Plug-In . SVG Version: 6.00 Build 0)  -->
<svg version="1.1" id="Capa_1" xmlns="http://www.w3.org/2000/svg" xmlns:xlink="http://www.w3.org/1999/xlink" x="0px" y="0px"
	 viewBox="0 0 512 512" style="enable-background:new 0 0 512 512;" xml:space="preserve">
<circle style="fill:#F25353;" cx="256.156" cy="420.994" r="59.999"/>
<circle style="fill:#FDB954;" cx="256.156" cy="420.994" r="20"/>
<polygon style="fill:#8CCEEA;" points="234.931,360.995 344.309,169.854 393.101,198.024 291.02,368.808 "/>
<path style="fill:#F4F4F4;" d="M134.154,32.89L17.053,100.499c-6.737,3.89-9.045,12.504-5.156,19.241l74.651,129.299l20.737-11.973
	l-7.903-27.774l87.826-50.706l20.101,20.731l20.737-11.973l-74.65-129.299C149.505,31.308,140.891,29,134.154,32.89z"/>
<path style="fill:#6EA3D3;" d="M134.154,32.89L17.053,100.498c-5.824,3.363-8.329,10.256-6.39,16.415l10.388,18.68l0.002,0.003
	l139.668-80.637L148.55,33.072C144.291,30.471,138.78,30.219,134.154,32.89z"/>
<polygon style="fill:#D0E6EF;" points="277.068,360.995 167.69,169.854 118.899,198.024 220.981,368.808 "/>
<circle style="fill:#FDB954;" cx="117.548" cy="139.348" r="22.537"/>
<path style="fill:#F4F4F4;" d="M377.846,32.89l117.101,67.609c6.737,3.89,9.045,12.504,5.156,19.241l-74.651,129.299l-20.737-11.973
	l7.903-27.774l-87.826-50.706l-20.101,20.731l-20.737-11.973l74.651-129.299C362.494,31.308,371.109,29,377.846,32.89z"/>
<path style="fill:#6EA3D3;" d="M377.846,32.89l117.101,67.608c5.824,3.363,8.329,10.256,6.39,16.415l-10.388,18.68l-0.002,0.003
	L351.28,54.958l12.171-21.887C367.709,30.471,373.22,30.219,377.846,32.89z"/>
<circle style="fill:#FDB954;" cx="394.454" cy="139.348" r="22.537"/>
<path d="M109.127,170.772c2.803,0.751,5.647,1.123,8.474,1.123c5.638,0,11.202-1.479,16.215-4.373
	c7.526-4.345,12.91-11.361,15.16-19.756s1.095-17.163-3.25-24.689c-4.345-7.526-11.361-12.91-19.756-15.16
	c-8.396-2.249-17.163-1.095-24.689,3.25c-7.526,4.345-12.911,11.361-15.16,19.756c-2.25,8.395-1.095,17.163,3.25,24.689
	S100.733,168.522,109.127,170.772z M105.438,136.099c0.867-3.234,2.941-5.938,5.841-7.612c1.932-1.115,4.075-1.685,6.248-1.685
	c1.089,0,2.186,0.144,3.265,0.433c3.234,0.867,5.938,2.941,7.612,5.841c1.674,2.9,2.119,6.278,1.252,9.513
	c-0.867,3.235-2.941,5.938-5.841,7.612c-2.9,1.674-6.28,2.117-9.513,1.252c-3.234-0.867-5.938-2.941-7.612-5.842
	C105.017,142.712,104.572,139.334,105.438,136.099z"/>
<path d="M511.169,106.463c-1.665-6.214-5.65-11.408-11.222-14.625L382.846,24.23c-11.501-6.641-26.261-2.686-32.9,8.815
	l-74.651,129.299c-2.762,4.783-1.123,10.899,3.66,13.66l20.737,11.973c3.969,2.292,8.989,1.591,12.179-1.699l14.674-15.133
	l4.138,2.389l-23.203,40.548c-2.743,4.793-1.081,10.903,3.712,13.646c4.793,2.742,10.903,1.08,13.646-3.712l23.165-40.481
	l31.307,18.075L301.06,332.52c-2.833,4.741-1.288,10.881,3.453,13.715c1.607,0.96,3.375,1.418,5.121,1.418
	c3.402-0.001,6.72-1.738,8.593-4.871l78.404-131.171l4.235,2.445l-5.77,20.275c-1.254,4.408,0.649,9.105,4.618,11.397l20.737,11.972
	c1.575,0.909,3.294,1.342,4.991,1.342c3.456,0,6.817-1.794,8.669-5.002c0,0,65.495-113.44,65.496-113.441s0.001-0.003,0.002-0.004
	l9.153-15.854C511.979,119.167,512.834,112.676,511.169,106.463z M372.846,41.55l117.101,67.608c1.275,0.736,1.74,1.87,1.903,2.48
	c0.163,0.61,0.328,1.825-0.408,3.1l-4.156,7.198L363.11,50.242l4.155-7.198C368.392,41.095,370.896,40.426,372.846,41.55z
	 M421.792,235.378l-5.325-3.074l5.77-20.275c1.254-4.408-0.649-9.105-4.618-11.397l-19.511-11.265
	c-0.002-0.001-0.004-0.003-0.006-0.004l-48.792-28.17c-0.002-0.001-0.004-0.002-0.005-0.003l-19.512-11.265
	c-3.97-2.292-8.989-1.593-12.179,1.699l-14.674,15.133l-5.325-3.074l55.496-96.121l124.177,71.694L421.792,235.378z"/>
<path d="M425.879,130.923c-2.249-8.395-7.633-15.411-15.16-19.756c-7.526-4.346-16.293-5.5-24.689-3.25
	c-8.395,2.25-15.411,7.633-19.756,15.16c-4.346,7.526-5.5,16.294-3.25,24.689c2.25,8.395,7.633,15.411,15.16,19.756
	c5.014,2.895,10.577,4.374,16.215,4.373c2.826,0,5.671-0.372,8.474-1.123c8.395-2.25,15.411-7.633,19.756-15.159
	C426.974,148.086,428.128,139.318,425.879,130.923z M405.309,145.612c-1.674,2.9-4.378,4.975-7.612,5.841
	c-3.233,0.866-6.612,0.423-9.513-1.252c-2.9-1.674-4.975-4.378-5.841-7.612c-0.866-3.234-0.422-6.613,1.252-9.513
	c1.674-2.9,4.378-4.975,7.612-5.841c1.08-0.289,2.176-0.433,3.265-0.433c2.172,0,4.316,0.57,6.248,1.685
	c2.9,1.674,4.975,4.378,5.841,7.612C407.427,139.333,406.983,142.712,405.309,145.612z"/>
<path d="M295.669,265.996c2.63,0,5.2-1.07,7.07-2.931c1.86-1.859,2.93-4.439,2.93-7.069c0-2.63-1.07-5.21-2.93-7.07
	s-4.44-2.93-7.07-2.93c-2.64,0-5.21,1.07-7.07,2.93c-1.87,1.86-2.93,4.44-2.93,7.07c0,2.63,1.06,5.21,2.93,7.069
	C290.46,264.926,293.04,265.996,295.669,265.996z"/>
<path d="M256.159,390.994c-16.542,0-30,13.458-30,30c0,16.542,13.458,30,30,30c16.542,0,30-13.458,30-30
	C286.159,404.452,272.701,390.994,256.159,390.994z M256.159,430.993c-5.514,0-10-4.486-10-10s4.486-10,10-10
	c5.514,0,10,4.486,10,10S261.673,430.993,256.159,430.993z"/>
<path d="M286.597,357.969c-0.211-0.662-0.49-1.313-0.849-1.94l-18.296-31.971c0.274-0.356,0.527-0.735,0.757-1.136l15.91-27.803
	c2.743-4.794,1.081-10.903-3.712-13.646c-4.794-2.745-10.904-1.08-13.646,3.713l-10.776,18.831l-74.668-130.483l4.138-2.389
	l14.674,15.133c3.19,3.292,8.209,3.99,12.179,1.699l20.737-11.973c4.783-2.761,6.422-8.877,3.66-13.66l-74.65-129.299
	c-6.64-11.501-21.399-15.455-32.9-8.815L12.053,91.838c-5.572,3.217-9.557,8.411-11.222,14.625s-0.811,12.705,2.406,18.276
	l9.153,15.854c0.001,0.001,0.001,0.003,0.002,0.004c0.001,0.001,65.496,113.441,65.496,113.441c1.852,3.208,5.213,5.002,8.669,5.002
	c1.696,0,3.416-0.433,4.991-1.342l20.737-11.972c3.969-2.292,5.873-6.989,4.618-11.397l-5.77-20.275l4.235-2.445l50.834,85.048
	c2.833,4.74,8.974,6.284,13.714,3.453c4.741-2.834,6.287-8.974,3.453-13.715l-50.679-84.788l31.309-18.074l95.885,167.562
	c-1.233-0.065-2.474-0.101-3.723-0.101c-38.597,0-69.999,31.402-69.999,69.999s31.402,69.999,69.999,69.999
	s69.999-31.402,69.999-69.999C326.158,393.299,309.989,369.311,286.597,357.969z M20.149,111.638c0.164-0.61,0.628-1.744,1.903-2.48
	L139.154,41.55c1.95-1.126,4.455-0.456,5.581,1.495l4.155,7.198L24.713,121.936l-4.156-7.198
	C19.821,113.463,19.986,112.248,20.149,111.638z M90.208,235.378l-55.495-96.122L158.89,67.562l55.496,96.122l-5.325,3.074
	l-14.674-15.133c-3.19-3.292-8.211-3.99-12.179-1.699l-19.512,11.265c-0.002,0.001-0.004,0.002-0.005,0.003l-48.792,28.17
	c-0.002,0.001-0.004,0.003-0.006,0.004l-19.511,11.265c-3.969,2.292-5.873,6.989-4.618,11.397l5.77,20.275L90.208,235.378z
	 M256.159,470.993c-27.57,0-49.999-22.43-49.999-49.999s22.43-49.999,49.999-49.999s49.999,22.43,49.999,49.999
	S283.729,470.993,256.159,470.993z"/>
<path d="M203.231,334.355c1.86-1.859,2.93-4.439,2.93-7.069c0-2.63-1.07-5.21-2.93-7.07c-1.86-1.86-4.44-2.93-7.07-2.93
	c-2.63,0-5.21,1.069-7.07,2.93s-2.93,4.44-2.93,7.07c0,2.63,1.07,5.21,2.93,7.069c1.86,1.86,4.44,2.931,7.07,2.931
	C198.791,337.285,201.371,336.215,203.231,334.355z"/>
<g>
</g>
<g>
</g>
<g>
</g>
<g>
</g>
<g>
</g>
<g>
</g>
<g>
</g>
<g>
</g>
<g>
</g>
<g>
</g>
<g>
</g>
<g>
</g>
<g>
</g>
<g>
</g>
<g>
</g>
</svg>
