<?xml version="1.0" encoding="iso-8859-1"?>
<!-- Generator: Adobe Illustrator 19.0.0, SVG Export Plug-In . SVG Version: 6.00 Build 0)  -->
<svg version="1.1" id="Capa_1" xmlns="http://www.w3.org/2000/svg" xmlns:xlink="http://www.w3.org/1999/xlink" x="0px" y="0px"
	 viewBox="0 0 512.003 512.003" style="enable-background:new 0 0 512.003 512.003;" xml:space="preserve">
<circle style="fill:#6EA3D3;" cx="256" cy="382" r="120"/>
<circle style="fill:#44C5CB;" cx="256" cy="72" r="62"/>
<circle style="fill:#F4F4F4;" cx="256" cy="72" r="24"/>
<circle style="fill:#A0E892;" cx="50" cy="222.01" r="40"/>
<circle style="fill:#AAEBF2;" cx="468" cy="154.01" r="34"/>
<circle style="fill:#6EA3D3;" cx="468" cy="382" r="34"/>
<polygon style="fill:#F4F4F4;" points="267.97,459.963 271.386,446.249 290.338,438.395 302.485,445.696 319.437,428.847 
	312.096,416.636 319.95,397.684 333.916,394.205 334.002,370.416 319.95,366.916 312.096,347.964 319.625,335.439 302.927,318.638 
	290.338,326.206 271.386,318.352 267.821,304.039 244.183,304.039 240.618,318.352 221.666,326.206 209.077,318.638 
	192.379,335.439 199.908,347.964 192.054,366.916 178.002,370.416 178.088,394.205 192.053,397.684 199.908,416.636 
	192.567,428.847 209.519,445.696 221.666,438.395 240.618,446.249 244.034,459.963 "/>
<circle style="fill:#AAEBF2;" cx="256" cy="382" r="21.667"/>
<path d="M256.002,106.001c18.748,0,34-15.252,34-34s-15.252-34-34-34s-34,15.252-34,34S237.254,106.001,256.002,106.001z
	 M256.002,58.001c7.72,0,14,6.28,14,14s-6.28,14-14,14s-14-6.28-14-14S248.282,58.001,256.002,58.001z"/>
<path d="M488.377,115.036L287.86,7.428c-0.006,0.007-0.013,0.012-0.019,0.019c-9.607-4.758-20.413-7.445-31.84-7.445
	c-20.632,0-39.25,8.736-52.39,22.688l-63.453,55.04c-4.172,3.619-4.62,9.935-1.001,14.107c1.978,2.28,4.76,3.447,7.558,3.447
	c2.323,0,4.656-0.805,6.549-2.446l30.589-26.534l-55.72,292.158c-0.011,0.059-0.015,0.118-0.024,0.177
	c-1.382,7.582-2.107,15.389-2.107,23.363c0,2.319,0.064,4.623,0.185,6.913L47.471,271.951c0.838,0.042,1.681,0.064,2.529,0.064
	c27.57,0,50-22.43,50-50c0-23.915-16.88-43.951-39.348-48.846l31.354-27.197c4.172-3.619,4.62-9.935,1.001-14.107
	c-3.62-4.172-9.935-4.619-14.106-1.001l-63.475,55.058c0.003,0.006,0.006,0.011,0.009,0.017C5.934,195.046,0,207.847,0,222.016
	c0,10.664,3.367,20.551,9.078,28.677c0.077,0.121,134.733,196.921,134.733,196.921c0.007,0.01,0.02,0.027,0.027,0.037
	c22.602,38.468,64.414,64.35,112.165,64.35c19.526,0,38.056-4.335,54.69-12.081c0.006,0.012,0.011,0.019,0.016,0.031l174.319-77.379
	c0.944-0.398,1.923-0.8,2.81-1.314c14.321-7.266,24.165-22.129,24.165-39.256V154.016
	C512.002,137.104,502.406,122.399,488.377,115.036z M50,192.016c16.542,0,30,13.458,30,30s-13.458,30-30,30s-30-13.458-30-30
	c0-8.34,3.423-15.893,8.935-21.335l2.94-2.551C36.915,194.297,43.195,192.016,50,192.016z M468.002,130.016
	c3.841,0,7.472,0.912,10.694,2.523l0.957,0.514c0.025,0.013,0.051,0.022,0.076,0.035c7.316,4.116,12.273,11.952,12.273,20.928
	c0,13.233-10.767,24-24,24s-24-10.767-24-24S454.769,130.016,468.002,130.016z M279.365,25.567l2.259,1.212
	c15.735,8.951,26.378,25.862,26.378,45.222c0,28.673-23.327,52-52,52s-52-23.327-52-52s23.327-52,52-52
	C264.401,20.001,272.335,22.015,279.365,25.567z M195.653,111.197c12.856,19.727,35.098,32.804,60.349,32.804
	c25.255,0,47.5-13.082,60.355-32.814l10.14,53.166c0.914,4.792,5.106,8.128,9.813,8.128c0.621,0,1.251-0.058,1.884-0.179
	c5.426-1.035,8.984-6.271,7.95-11.696l-18.782-98.479c-0.03-0.156-0.075-0.306-0.112-0.459c-0.59-4.085-1.526-8.058-2.774-11.893
	l122.374,65.672c-13.605,7.492-22.847,21.969-22.847,38.568c0,24.262,19.738,44,44,44c8.85,0,17.092-2.636,24-7.15v154.286
	c-6.908-4.514-15.15-7.15-24-7.15c-24.262,0-44,19.738-44,44c0,15.431,7.991,29.022,20.045,36.879l-80.165,35.585
	c13.962-20.718,22.12-45.656,22.12-72.464c0-7.923-0.715-15.681-2.079-23.216c-0.017-0.108-0.024-0.215-0.045-0.324l-21.055-110.396
	c-1.035-5.424-6.273-8.988-11.696-7.949c-5.426,1.035-8.984,6.271-7.95,11.696l7.95,41.684
	c-23.75-25.509-57.603-41.494-95.125-41.494c-37.516,0-71.364,15.98-95.115,41.483L195.653,111.197z M478.284,403.682l-1.122,0.498
	c-2.824,1.171-5.917,1.821-9.16,1.821c-13.233,0-24-10.767-24-24s10.767-24,24-24s24,10.767,24,24
	C492.002,391.557,486.387,399.824,478.284,403.682z M146.002,382.001c0-60.654,49.346-110,110-110s110,49.346,110,110
	s-49.346,110-110,110S146.002,442.655,146.002,382.001z"/>
<path d="M256.002,350.334c-17.461,0-31.667,14.206-31.667,31.667s14.206,31.667,31.667,31.667s31.667-14.206,31.667-31.667
	S273.463,350.334,256.002,350.334z M256.002,393.667c-6.434,0-11.667-5.233-11.667-11.667s5.233-11.667,11.667-11.667
	s11.667,5.233,11.667,11.667S262.436,393.667,256.002,393.667z"/>
<path d="M323.266,415.806l3.993-9.637l9.075-2.261c4.442-1.107,7.565-5.089,7.582-9.667l0.086-23.789
	c0.017-4.605-3.114-8.626-7.583-9.74l-9.16-2.282l-3.993-9.637l4.931-8.203c2.359-3.926,1.75-8.953-1.479-12.201l-16.698-16.8
	c-3.246-3.265-8.3-3.891-12.244-1.521l-8.268,4.969l-9.637-3.994l-2.348-9.421c-1.109-4.456-5.111-7.583-9.703-7.583h-23.637
	c-4.592,0-8.594,3.127-9.703,7.583l-2.348,9.421l-9.637,3.994l-8.268-4.969c-3.944-2.371-8.999-1.744-12.244,1.521l-16.698,16.8
	c-3.229,3.249-3.838,8.275-1.479,12.201l4.931,8.203l-3.993,9.637l-9.16,2.282c-4.469,1.113-7.6,5.134-7.583,9.74l0.086,23.789
	c0.017,4.578,3.14,8.561,7.582,9.667l9.075,2.261l3.993,9.637l-4.741,7.889c-2.372,3.945-1.744,9,1.521,12.244l16.951,16.849
	c3.249,3.23,8.278,3.837,12.201,1.479l7.826-4.704l9.637,3.994l2.198,8.823c1.109,4.456,5.111,7.583,9.703,7.583h23.936
	c4.592,0,8.594-3.127,9.703-7.583l2.198-8.823l9.637-3.994l7.826,4.704c3.923,2.36,8.952,1.751,12.201-1.479l16.951-16.849
	c3.265-3.245,3.893-8.299,1.521-12.244L323.266,415.806z M310.712,393.856l-7.854,18.952c-1.214,2.93-0.967,6.262,0.667,8.98
	l3.302,5.493l-5.866,5.832l-5.472-3.289c-2.715-1.632-6.049-1.882-8.979-0.667l-18.952,7.854c-2.93,1.214-5.109,3.745-5.875,6.821
	l-1.527,6.131h-8.307l-1.527-6.131c-0.766-3.077-2.945-5.607-5.875-6.821l-18.952-7.854c-2.93-1.216-6.265-0.966-8.979,0.667
	l-5.472,3.289l-5.866-5.832l3.302-5.493c1.634-2.718,1.881-6.05,0.667-8.98l-7.854-18.952c-1.214-2.929-3.744-5.109-6.82-5.875
	l-6.412-1.598l-0.029-8.16l6.44-1.604c3.077-0.767,5.607-2.946,6.821-5.875l7.854-18.952c1.214-2.93,0.967-6.262-0.667-8.98
	l-3.516-5.848l5.681-5.716l5.871,3.528c2.718,1.634,6.053,1.882,8.979,0.667l18.952-7.854c2.929-1.214,5.109-3.745,5.875-6.821
	l1.677-6.729h8.008l1.677,6.729c0.766,3.077,2.946,5.607,5.875,6.821l18.952,7.854c2.929,1.213,6.261,0.966,8.979-0.667l5.871-3.528
	l5.681,5.716l-3.516,5.848c-1.634,2.718-1.881,6.05-0.667,8.98l7.854,18.952c1.214,2.929,3.744,5.109,6.821,5.875l6.44,1.604
	l-0.029,8.16l-6.412,1.598C314.456,388.748,311.926,390.927,310.712,393.856z"/>
<path d="M344.932,217.621c2.63,0,5.21-1.07,7.07-2.93c1.859-1.87,2.93-4.44,2.93-7.07s-1.07-5.21-2.93-7.07s-4.44-2.93-7.07-2.93
	c-2.64,0-5.21,1.07-7.07,2.93c-1.859,1.86-2.93,4.43-2.93,7.07c0,2.63,1.07,5.21,2.93,7.07
	C339.722,216.551,342.292,217.621,344.932,217.621z"/>
<path d="M116.702,121.311c2.63,0,5.199-1.06,7.069-2.92c1.86-1.87,2.931-4.44,2.931-7.08c0-2.63-1.07-5.2-2.931-7.07
	c-1.87-1.86-4.439-2.93-7.069-2.93c-2.641,0-5.21,1.07-7.07,2.93c-1.87,1.86-2.93,4.44-2.93,7.07c0,2.64,1.06,5.22,2.93,7.08
	C111.492,120.251,114.071,121.311,116.702,121.311z"/>
<g>
</g>
<g>
</g>
<g>
</g>
<g>
</g>
<g>
</g>
<g>
</g>
<g>
</g>
<g>
</g>
<g>
</g>
<g>
</g>
<g>
</g>
<g>
</g>
<g>
</g>
<g>
</g>
<g>
</g>
</svg>
