<?xml version="1.0" encoding="iso-8859-1"?>
<!-- Generator: Adobe Illustrator 19.0.0, SVG Export Plug-In . SVG Version: 6.00 Build 0)  -->
<svg version="1.1" id="Capa_1" xmlns="http://www.w3.org/2000/svg" xmlns:xlink="http://www.w3.org/1999/xlink" x="0px" y="0px"
	 viewBox="0 0 512 512" style="enable-background:new 0 0 512 512;" xml:space="preserve">
<polygon style="fill:#44C5CB;" points="10,79.007 48.446,79.007 101.862,25.007 202.792,25.007 256,79.007 502,79.007 502,435.995 
	10,435.995 "/>
<path style="fill:#F4F4F4;" d="M502,161.007v72H280c-19.882,0-36-16.118-36-36l0,0c0-19.882,16.118-36,36-36h213.067"/>
<polygon style="fill:#AAEBF2;" points="420.988,435.995 369.988,486.995 109.256,486.995 58.318,436.058 "/>
<circle style="fill:#F4F4F4;" cx="135.25" cy="326.251" r="79.76"/>
<polygon style="fill:#FDB954;" points="143.2,378.067 145.47,368.952 158.067,363.732 166.14,368.585 177.406,357.387 
	172.528,349.271 177.748,336.675 187.03,334.362 187.087,318.552 177.748,316.225 172.528,303.629 177.532,295.304 166.433,284.138 
	158.067,289.168 145.47,283.948 143.101,274.435 127.391,274.435 125.021,283.948 112.425,289.168 104.058,284.138 92.959,295.304 
	97.963,303.629 92.743,316.225 83.404,318.552 83.461,334.362 92.743,336.675 97.963,349.271 93.085,357.387 104.351,368.585 
	112.425,363.732 125.021,368.952 127.291,378.067 "/>
<circle style="fill:#AAEBF2;" cx="135.25" cy="120.211" r="41.21"/>
<path d="M502,69.007H260.186l-50.271-51.019c-1.88-1.908-4.445-2.981-7.123-2.981h-100.93c-2.671,0-5.231,1.068-7.109,2.967
	l-50.48,51.033H10c-5.522,0-10,4.477-10,10v356.987c0,5.523,4.478,10,10,10h44.113l48.072,48.071
	c1.876,1.875,4.419,2.929,7.071,2.929h260.731c2.652,0,5.195-1.054,7.071-2.929l48.071-48.071H502c5.522,0,10-4.477,10-10V79.007
	C512,73.484,507.522,69.007,502,69.007z M309,425.995c-5.522,0-10,4.477-10,10s4.478,10,10,10h87.845l-31,31H113.398l-31-31H199
	c5.522,0,10-4.477,10-10s-4.478-10-10-10H20V89.007h28.446c2.671,0,5.231-1.068,7.109-2.967l50.48-51.033h92.57l50.271,51.019
	c1.88,1.907,4.445,2.981,7.123,2.981h236v134h-26v-20c0-5.523-4.478-10-10-10s-10,4.477-10,10v20h-52v-20c0-5.523-4.478-10-10-10
	s-10,4.477-10,10v20h-52v-20c0-5.523-4.478-10-10-10s-10,4.477-10,10v20h-22c-14.337,0-26-11.664-26-26s11.663-26,26-26h132
	c5.522,0,10-4.477,10-10s-4.478-10-10-10H280c-25.364,0-46,20.636-46,46s20.636,46,46,46h22v19c0,18.748-15.252,34-34,34
	c-5.522,0-10,4.477-10,10s4.478,10,10,10c29.775,0,54-24.224,54-54v-19h52v19c0,18.748-15.252,34-34,34c-5.522,0-10,4.477-10,10
	s4.478,10,10,10c29.775,0,54-24.224,54-54v-19h52v19c0,18.748-15.252,34-34,34c-5.522,0-10,4.477-10,10s4.478,10,10,10
	c29.775,0,54-24.224,54-54v-19h26v182.987H309V425.995z"/>
<path d="M135.245,300.251c-14.337,0-26,11.664-26,26s11.663,26,26,26s26-11.664,26-26S149.582,300.251,135.245,300.251z
	 M135.245,332.251c-3.309,0-6-2.691-6-6s2.691-6,6-6s6,2.691,6,6S138.554,332.251,135.245,332.251z"/>
<path d="M161.282,275.567l-4.046,2.432l-3.281-1.36l-1.151-4.622c-1.109-4.456-5.111-7.583-9.703-7.583h-15.71
	c-4.592,0-8.594,3.127-9.703,7.583l-1.151,4.622l-3.281,1.36l-4.046-2.432c-3.944-2.371-9-1.744-12.244,1.521l-11.099,11.166
	c-3.229,3.249-3.838,8.276-1.479,12.202l2.406,4.003l-1.359,3.281l-4.447,1.108c-4.469,1.113-7.6,5.134-7.583,9.739l0.057,15.811
	c0.017,4.579,3.14,8.561,7.583,9.668l4.391,1.094l1.359,3.281l-2.28,3.794c-2.371,3.945-1.743,8.999,1.521,12.244l11.267,11.198
	c3.249,3.229,8.277,3.837,12.202,1.478l3.751-2.255l3.28,1.359l1.053,4.224c1.109,4.456,5.111,7.583,9.703,7.583H143.2
	c4.592,0,8.593-3.127,9.703-7.582l1.053-4.225l3.281-1.36l3.751,2.255c3.926,2.359,8.953,1.751,12.202-1.478l11.267-11.198
	c3.265-3.245,3.893-8.3,1.521-12.245l-2.28-3.793l1.36-3.281l4.391-1.094c4.443-1.107,7.566-5.089,7.583-9.668l0.057-15.811
	c0.017-4.605-3.114-8.626-7.582-9.739l-4.448-1.108l-1.36-3.281l2.406-4.002c2.36-3.926,1.751-8.953-1.478-12.202l-11.099-11.166
	C170.28,273.824,165.228,273.197,161.282,275.567z M177.059,326.359v0.182l-1.728,0.43c-3.076,0.767-5.607,2.946-6.821,5.875
	l-5.221,12.596c-1.214,2.93-0.967,6.263,0.668,8.981l0.84,1.397l-0.182,0.181l-1.396-0.84c-2.717-1.633-6.048-1.883-8.981-0.667
	l-12.596,5.22c-2.928,1.214-5.107,3.744-5.874,6.82l-0.382,1.533h-0.28l-0.382-1.532c-0.766-3.077-2.945-5.607-5.874-6.821
	l-12.596-5.22c-2.931-1.215-6.263-0.967-8.981,0.667l-1.396,0.84l-0.182-0.181l0.84-1.397c1.634-2.718,1.881-6.05,0.667-8.979
	l-5.22-12.596c-1.214-2.929-3.744-5.109-6.821-5.875l-1.728-0.43v-0.182l1.728-0.43c3.077-0.767,5.607-2.946,6.821-5.875
	l5.22-12.596c1.214-2.93,0.967-6.262-0.667-8.98l-0.991-1.648l0.081-0.082l1.649,0.991c2.72,1.636,6.052,1.881,8.979,0.667
	l12.596-5.22c2.929-1.214,5.108-3.745,5.875-6.821l0.481-1.931h0.081l0.481,1.931c0.767,3.076,2.946,5.607,5.875,6.821l12.596,5.22
	c2.929,1.214,6.263,0.965,8.979-0.667l1.649-0.991l0.08,0.082l-0.99,1.648c-1.635,2.718-1.882,6.051-0.668,8.981l5.221,12.596
	c1.214,2.929,3.745,5.108,6.82,5.875L177.059,326.359z"/>
<path d="M223.53,309.977l-37.563-196.953c-0.017-0.087-0.043-0.169-0.062-0.255c-3.617-24.719-24.954-43.762-50.661-43.762
	c-25.721,0-47.065,19.064-50.665,43.803c-0.015,0.072-0.038,0.141-0.052,0.213L46.966,309.977c-0.007,0.037-0.009,0.074-0.016,0.111
	c-0.958,5.245-1.461,10.646-1.461,16.163c0,49.492,40.265,89.756,89.756,89.756c49.492,0,89.757-40.265,89.757-89.756
	c0-5.485-0.497-10.856-1.443-16.072C223.547,310.112,223.543,310.045,223.53,309.977z M135.245,171.422
	c15.183,0,28.837-6.648,38.223-17.179l19.748,103.543c-15.651-13.272-35.89-21.291-57.97-21.291
	c-22.077,0-42.313,8.017-57.963,21.286l19.746-103.534C106.413,164.775,120.064,171.422,135.245,171.422z M135.245,89.007
	c17.208,0,31.208,14,31.208,31.207c0,17.208-14,31.208-31.208,31.208s-31.207-14-31.207-31.208
	C104.038,103.007,118.037,89.007,135.245,89.007z M135.245,396.007c-38.464,0-69.756-31.292-69.756-69.756
	c0-38.463,31.292-69.756,69.756-69.756s69.757,31.292,69.757,69.756S173.709,396.007,135.245,396.007z"/>
<path d="M135.24,130.211c2.64,0,5.21-1.06,7.079-2.93c1.86-1.86,2.931-4.44,2.931-7.07s-1.07-5.2-2.931-7.07
	c-1.869-1.86-4.439-2.93-7.079-2.93c-2.631,0-5.211,1.07-7.07,2.93c-1.86,1.86-2.93,4.44-2.93,7.07c0,2.64,1.069,5.21,2.93,7.07
	C130.029,129.151,132.609,130.211,135.24,130.211z"/>
<path d="M375,131.184h1c5.522,0,10-4.477,10-10s-4.478-10-10-10h-1c-5.522,0-10,4.477-10,10S369.478,131.184,375,131.184z"/>
<path d="M334,131.184h1c5.522,0,10-4.477,10-10s-4.478-10-10-10h-1c-5.522,0-10,4.477-10,10S328.478,131.184,334,131.184z"/>
<path d="M416,131.184h1c5.522,0,10-4.477,10-10s-4.478-10-10-10h-1c-5.522,0-10,4.477-10,10S410.478,131.184,416,131.184z"/>
<path d="M457,131.184h1c5.522,0,10-4.477,10-10s-4.478-10-10-10h-1c-5.522,0-10,4.477-10,10S451.478,131.184,457,131.184z"/>
<path d="M252,131.184h1c5.522,0,10-4.477,10-10s-4.478-10-10-10h-1c-5.522,0-10,4.477-10,10S246.478,131.184,252,131.184z"/>
<path d="M293,131.184h1c5.522,0,10-4.477,10-10s-4.478-10-10-10h-1c-5.522,0-10,4.477-10,10S287.478,131.184,293,131.184z"/>
<path d="M256,426.741c-2.63,0-5.21,1.06-7.07,2.93c-1.86,1.86-2.93,4.43-2.93,7.07c0,2.63,1.069,5.21,2.93,7.07
	c1.86,1.86,4.44,2.93,7.07,2.93s5.21-1.07,7.069-2.93c1.86-1.86,2.931-4.44,2.931-7.07s-1.07-5.21-2.931-7.07
	C261.21,427.801,258.63,426.741,256,426.741z"/>
<g>
</g>
<g>
</g>
<g>
</g>
<g>
</g>
<g>
</g>
<g>
</g>
<g>
</g>
<g>
</g>
<g>
</g>
<g>
</g>
<g>
</g>
<g>
</g>
<g>
</g>
<g>
</g>
<g>
</g>
</svg>
