<?xml version="1.0" encoding="iso-8859-1"?>
<!-- Generator: Adobe Illustrator 19.0.0, SVG Export Plug-In . SVG Version: 6.00 Build 0)  -->
<svg version="1.1" id="Capa_1" xmlns="http://www.w3.org/2000/svg" xmlns:xlink="http://www.w3.org/1999/xlink" x="0px" y="0px"
	 viewBox="0 0 511.999 511.999" style="enable-background:new 0 0 511.999 511.999;" xml:space="preserve">
<path style="fill:#D0E6EF;" d="M345.36,296.253L215.743,166.635l128.24-128.24c20.893-20.893,54.767-20.893,75.659,0L473.6,92.354
	c20.893,20.893,20.893,54.767,0,75.659L345.36,296.253z"/>
<rect x="41.888" y="342.707" transform="matrix(-0.7071 -0.7071 0.7071 -0.7071 -39.6343 740.4858)" style="fill:#6EA3D3;" width="183.308" height="71.489"/>
<path style="fill:#AAEBF2;" d="M229.948,424.31L87.685,282.047c-4.365-4.365-4.365-11.442,0-15.807l20.612-20.612
	c4.365-4.365,11.442-4.365,15.807,0l142.263,142.263c4.365,4.365,4.365,11.442,0,15.807l-20.612,20.612
	C241.39,428.675,234.313,428.675,229.948,424.31z"/>
<path style="fill:#FDB954;" d="M477.111,95.865l-60.98-60.98l22.55-22.55c3.118-3.118,8.174-3.118,11.293,0l49.688,49.688
	c3.118,3.118,3.118,8.174,0,11.293L477.111,95.865z"/>
<rect x="30.643" y="391.942" transform="matrix(-0.7071 -0.7071 0.7071 -0.7071 -169.3329 794.2227)" style="fill:#657FC9;" width="98.359" height="80.479"/>
<path d="M164.838,345.057c-3.9-3.912-10.23-3.922-14.143-0.023c-3.911,3.898-3.922,10.23-0.023,14.142l0.147,0.148
	c1.954,1.96,4.519,2.94,7.083,2.94c2.554,0,5.107-0.972,7.06-2.917c3.911-3.898,3.922-10.23,0.023-14.142L164.838,345.057z"/>
<path d="M511.999,67.669c0-4.805-1.871-9.322-5.268-12.717L457.044,5.263c-7.013-7.011-18.422-7.012-25.435,0l-16.734,16.734
	c-9.858-6.036-21.21-9.271-33.063-9.271c-16.962,0-32.908,6.605-44.901,18.598L208.673,159.562c0,0.001-78.284,78.284-78.284,78.284
	c-8.3-7.513-21.157-7.294-29.163,0.711L80.613,259.17c-8.001,8.004-8.222,20.86-0.709,29.162l-43.516,43.516
	c-1.875,1.875-2.929,4.419-2.929,7.071s1.054,5.196,2.929,7.071l22.962,22.962L9.515,418.786c-3.905,3.905-3.905,10.237,0,14.143
	l27.704,27.704l-34.29,34.291c-3.905,3.905-3.905,10.237,0,14.142c1.953,1.953,4.512,2.929,7.071,2.929s5.118-0.977,7.071-2.929
	l34.29-34.29l27.704,27.704c1.953,1.952,4.512,2.929,7.071,2.929s5.118-0.977,7.071-2.929l49.834-49.834l22.962,22.962
	c1.876,1.875,4.419,2.929,7.071,2.929s5.195-1.054,7.071-2.929l43.515-43.515c3.9,3.535,8.889,5.491,14.19,5.491
	c5.656,0,10.975-2.203,14.975-6.203l20.612-20.612c8.003-8.004,8.224-20.86,0.71-29.163l206.522-206.522
	c21.113-21.113,24.206-53.51,9.311-77.948l16.749-16.749C510.128,76.99,511.999,72.473,511.999,67.669z M314.937,312.533
	L199.461,197.059l16.281-16.281l115.474,115.475L314.937,312.533z M286.942,340.528L171.468,225.053l13.851-13.851l115.475,115.474
	L286.942,340.528z M144.569,251.951l12.756-12.756L272.8,354.67l-12.756,12.756L144.569,251.951z M86.137,481.266l-27.702-27.702
	c-0.001-0.001-0.002-0.002-0.002-0.003s-0.002-0.002-0.002-0.002l-27.702-27.702l42.763-42.763l55.408,55.409L86.137,481.266z
	 M259.296,396.627l-20.612,20.612c-0.457,0.458-1.207,0.459-1.664,0l-41.465-41.465c-3.906-3.905-10.236-3.905-14.143,0
	c-3.905,3.905-3.905,10.237,0,14.143l28.071,28.071l-36.407,36.408l-22.955-22.955c-0.003-0.003-0.005-0.005-0.007-0.008
	l-69.551-69.551c-0.001-0.001-0.001-0.001-0.002-0.002l-22.96-22.96l36.407-36.407l24.738,24.737c3.906,3.905,10.236,3.905,14.143,0
	c3.905-3.905,3.905-10.237,0-14.142l-31.805-31.804c-0.001-0.001-0.002-0.003-0.004-0.004s-0.003-0.002-0.004-0.004l-6.318-6.318
	c-0.46-0.459-0.46-1.207-0.001-1.666l20.612-20.612c0.457-0.458,1.207-0.458,1.664,0l135.936,135.935
	c0.001,0.001,0.003,0.003,0.004,0.005s0.003,0.003,0.005,0.004l6.319,6.319C259.755,395.421,259.755,396.168,259.296,396.627z
	 M466.529,160.942L345.36,282.11L229.885,166.635l102.43-102.43l48.237,48.237c1.953,1.953,4.512,2.929,7.071,2.929
	s5.118-0.976,7.071-2.929c3.905-3.905,3.905-10.237,0-14.143l-48.237-48.237l4.597-4.597c16.952-16.954,44.536-16.961,61.498-0.018
	l53.978,53.977c8.215,8.216,12.74,19.139,12.74,30.758C479.269,141.803,474.744,152.726,466.529,160.942z M477.111,81.722
	l-46.837-46.838l14.053-14.054l46.838,46.838L477.111,81.722z"/>
<path d="M419.04,126.795c-2.63,0-5.21,1.06-7.07,2.93c-1.86,1.86-2.93,4.43-2.93,7.07c0,2.63,1.069,5.21,2.93,7.07
	c1.86,1.86,4.44,2.93,7.07,2.93s5.21-1.07,7.069-2.93c1.87-1.86,2.931-4.44,2.931-7.07c0-2.64-1.061-5.21-2.931-7.07
	C424.25,127.855,421.67,126.795,419.04,126.795z"/>
<g>
</g>
<g>
</g>
<g>
</g>
<g>
</g>
<g>
</g>
<g>
</g>
<g>
</g>
<g>
</g>
<g>
</g>
<g>
</g>
<g>
</g>
<g>
</g>
<g>
</g>
<g>
</g>
<g>
</g>
</svg>
