<?xml version="1.0" encoding="iso-8859-1"?>
<!-- Generator: Adobe Illustrator 19.0.0, SVG Export Plug-In . SVG Version: 6.00 Build 0)  -->
<svg version="1.1" id="Capa_1" xmlns="http://www.w3.org/2000/svg" xmlns:xlink="http://www.w3.org/1999/xlink" x="0px" y="0px"
	 viewBox="0 0 511.999 511.999" style="enable-background:new 0 0 511.999 511.999;" xml:space="preserve">
<path style="fill:#6EA3D3;" d="M309.901,502h-108c-14.912,0-27-12.088-27-27v-27h162v27C336.901,489.912,324.813,502,309.901,502z"
	/>
<polygon style="fill:#657FC9;" points="447.901,224.719 362.234,389.5 362.234,448 149.568,448 149.568,389.5 63.901,224.719 
	182.261,106.36 329.901,106.36 "/>
<path style="fill:#6EA3D3;" d="M303.901,64V23.545c0-7.481-6.065-13.545-13.545-13.545h-68.909c-7.481,0-13.545,6.065-13.545,13.545
	V64H303.901z"/>
<path style="fill:#D0E6EF;" d="M329.901,106.36V85c0-11.598-9.402-21-21-21h-105.64c-11.598,0-21,9.402-21,21v21.36H329.901z"/>
<g>
	<path style="fill:#F4F4F4;" d="M346.542,123.411l32.676-32.676c10.662-10.662,27.949-10.662,38.612,0l49.488,49.488
		c10.662,10.662,10.662,27.949,0,38.612l-32.676,32.676L346.542,123.411z"/>
	<path style="fill:#F4F4F4;" d="M165.44,123.411l-32.676-32.676c-10.662-10.662-27.949-10.662-38.612,0l-49.488,49.488
		c-10.662,10.662-10.662,27.949,0,38.612l32.676,32.676L165.44,123.411z"/>
</g>
<circle style="fill:#6EA3D3;" cx="300" cy="178.12" r="24.05"/>
<circle style="fill:#D0E6EF;" cx="162.87" cy="236.98" r="32"/>
<circle style="fill:#F4F4F4;" cx="256.049" cy="380.12" r="68"/>
<circle style="fill:#FDB954;" cx="256.049" cy="380.12" r="28"/>
<path d="M485.314,159.528c0-9.964-3.88-19.332-10.926-26.376l-49.487-49.488c-7.046-7.046-16.413-10.926-26.377-10.926
	s-19.332,3.88-26.378,10.926l-25.414,25.414l-6.831-6.852V85c0-15.391-11.276-28.193-26-30.591V23.545
	C313.901,10.563,303.339,0,290.355,0h-68.908c-12.983,0-23.546,10.563-23.546,23.545v30.928
	c-14.547,2.547-25.64,15.262-25.64,30.527v17.218l-6.935,6.935l-25.49-25.49c-7.046-7.045-16.414-10.926-26.378-10.926
	s-19.331,3.88-26.377,10.926L37.594,133.15c-14.544,14.544-14.544,38.209,0,52.754l25.489,25.489l-6.253,6.253
	c-3.085,3.085-3.813,7.813-1.802,11.684l11.228,21.597L39.111,298.92c-1.589,2.809-1.725,6.212-0.364,9.139l54,116.156
	c1.641,3.528,5.178,5.784,9.068,5.784h37.753v18c0,5.523,4.478,10,10,10h15.333v17c0,20.402,16.598,37,37,37h108
	c20.402,0,37-16.598,37-37v-17h15.333c5.522,0,10-4.477,10-10v-18h37.753c3.891,0,7.428-2.256,9.068-5.784l54-116.156
	c1.36-2.927,1.225-6.33-0.364-9.139l-27.145-47.991l11.228-21.597c2.009-3.866,1.285-8.587-1.791-11.673l-6.165-6.183l25.57-25.57
	C481.434,178.86,485.314,169.492,485.314,159.528z M221.447,20h68.908c1.955,0,3.546,1.59,3.546,3.545V54h-76V23.545
	C217.901,21.59,219.492,20,221.447,20z M203.261,74h105.641c6.065,0,11,4.935,11,11v11.36H192.261V85
	C192.261,78.935,197.195,74,203.261,74z M51.736,171.764c-6.746-6.747-6.746-17.724,0-24.47l49.487-49.488
	c3.268-3.268,7.613-5.068,12.234-5.068c4.622,0,8.968,1.8,12.235,5.068l25.49,25.489l-73.957,73.957L51.736,171.764z M108.194,410
	L59.051,304.291l18.21-32.194l62.307,119.847V410H108.194z M326.901,475c0,9.374-7.626,17-17,17h-108c-9.374,0-17-7.626-17-17v-17
	h142V475z M352.234,438h-15.333h-28.549c16.451-14.857,25.491-35.856,25.674-57.342c0.009-0.178,0.027-0.354,0.027-0.535V305.25
	c0-5.523-4.478-10-10-10s-10,4.477-10,10v22.747c-14.651-16.243-35.782-25.885-58.065-25.885c-0.031,0-0.068,0-0.1,0
	c-5.523,0.007-9.994,4.49-9.987,10.013c0.007,5.518,4.482,9.987,10,9.987c0.028,0.001,0.059,0,0.088,0
	c20.454,0,39.608,10.918,50.001,28.507c16.268,27.535,7.101,63.171-20.434,79.439c-8.228,4.861-17.178,7.434-26.118,7.941h-6.853
	c-18.583-1.141-36.304-11.174-46.467-28.374c-9.585-16.224-10.678-36.183-2.923-53.39c2.269-5.035,0.026-10.957-5.009-13.226
	c-5.031-2.269-10.957-0.027-13.226,5.008c-0.586,1.301-1.129,2.615-1.641,3.938l-28.165-73.696c2.504,0.467,5.081,0.723,7.719,0.723
	c23.159,0,42-18.841,42-42c0-13.325-6.244-25.211-15.952-32.911l77.097-28.101c-0.044,0.71-0.074,1.424-0.074,2.145
	c0,18.778,15.277,34.055,34.055,34.055c5.01,0,9.767-1.096,14.055-3.048v18.543c0,5.523,4.478,10,10,10s10-4.477,10-10v-49.549
	c0-18.778-15.277-34.055-34.055-34.055c-5.93,0-11.508,1.527-16.369,4.203L149.073,197.31c-0.06,0.022-0.114,0.05-0.173,0.073
	c-16.309,5.772-28.026,21.34-28.026,39.601c0,5.966,1.258,11.641,3.511,16.785l57.401,150.195c0.019,0.049,0.042,0.095,0.062,0.144
	c1.749,5.424,4.096,10.69,7.052,15.692c4.113,6.961,9.147,13.048,14.856,18.2h-28.854h-15.333v-48.5
	c0-1.606-0.387-3.188-1.127-4.613L76.154,226.608L186.403,116.36H325.75l109.904,110.238l-82.293,158.289
	c-0.74,1.425-1.127,3.007-1.127,4.613L352.234,438L352.234,438z M162.874,214.984c12.131,0,22,9.869,22,22s-9.869,22-22,22
	s-22-9.869-22-22S150.743,214.984,162.874,214.984z M299.999,164.063c7.75,0,14.055,6.305,14.055,14.055
	s-6.305,14.055-14.055,14.055s-14.055-6.305-14.055-14.055S292.249,164.063,299.999,164.063z M452.752,304.291L403.608,410h-31.374
	v-18.056l62.307-119.847L452.752,304.291z M460.246,171.763l-25.548,25.548l-73.844-74.069l25.436-25.436
	c3.268-3.268,7.613-5.068,12.235-5.068c4.621,0,8.967,1.8,12.234,5.068l49.488,49.488c3.268,3.268,5.067,7.613,5.067,12.234
	S463.515,168.495,460.246,171.763z"/>
<path d="M226.516,330.208c0.005-0.003,0.104-0.062,0.12-0.071c4.767-2.79,6.368-8.916,3.578-13.682
	c-2.789-4.766-8.914-6.367-13.682-3.579l-0.12,0.071c-4.767,2.79-6.368,8.916-3.578,13.682c1.86,3.179,5.204,4.95,8.64,4.95
	C223.188,331.579,224.928,331.137,226.516,330.208z"/>
<path d="M218.054,380.123c0,20.953,17.047,38,38,38s38-17.047,38-38s-17.047-38-38-38S218.054,359.17,218.054,380.123z
	 M256.053,362.123c9.925,0,18,8.075,18,18s-8.075,18-18,18s-18-8.075-18-18S246.129,362.123,256.053,362.123z"/>
<path d="M162.775,247.69h0.11c0.015,0,0.029,0,0.045,0c5.502,0,9.975-4.448,9.999-9.956c0.024-5.523-4.433-10.02-9.956-10.044h-0.11
	c-0.015,0-0.029,0-0.045,0c-5.502,0-9.975,4.448-9.999,9.956C152.795,243.168,157.252,247.666,162.775,247.69z"/>
<path d="M324.051,257c-2.63,0-5.21,1.07-7.069,2.93c-1.86,1.86-2.931,4.44-2.931,7.07s1.07,5.21,2.931,7.07
	c1.859,1.86,4.439,2.93,7.069,2.93c2.631,0,5.21-1.07,7.07-2.93s2.93-4.44,2.93-7.07s-1.069-5.21-2.93-7.07
	C329.26,258.07,326.682,257,324.051,257z"/>
<path d="M437.563,148.665c-3.901-3.91-10.231-3.919-14.143-0.02c-3.91,3.9-3.919,10.232-0.02,14.143l0.706,0.708
	c1.954,1.958,4.518,2.938,7.081,2.938c2.555,0,5.109-0.973,7.062-2.919c3.91-3.9,3.919-10.232,0.02-14.143L437.563,148.665z"/>
<path d="M408.616,119.63c-3.901-3.91-10.231-3.919-14.143-0.02c-3.91,3.9-3.919,10.232-0.02,14.143l0.706,0.708
	c1.954,1.958,4.518,2.938,7.081,2.938c2.555,0,5.109-0.973,7.062-2.919c3.91-3.9,3.919-10.232,0.02-14.143L408.616,119.63z"/>
<path d="M103.366,119.63l-0.706,0.708c-3.899,3.911-3.891,10.243,0.02,14.143c1.952,1.946,4.507,2.919,7.062,2.919
	c2.563,0,5.128-0.98,7.081-2.938l0.706-0.708c3.899-3.911,3.891-10.243-0.02-14.143C113.598,115.711,107.266,115.72,103.366,119.63z
	"/>
<path d="M74.419,148.665l-0.706,0.708c-3.899,3.911-3.891,10.243,0.02,14.143c1.952,1.946,4.507,2.919,7.062,2.919
	c2.563,0,5.128-0.98,7.081-2.938l0.706-0.708c3.899-3.911,3.891-10.243-0.02-14.143C84.65,144.746,78.318,144.755,74.419,148.665z"
	/>
<g>
</g>
<g>
</g>
<g>
</g>
<g>
</g>
<g>
</g>
<g>
</g>
<g>
</g>
<g>
</g>
<g>
</g>
<g>
</g>
<g>
</g>
<g>
</g>
<g>
</g>
<g>
</g>
<g>
</g>
</svg>
