<?xml version="1.0" encoding="iso-8859-1"?>
<!-- Generator: Adobe Illustrator 19.0.0, SVG Export Plug-In . SVG Version: 6.00 Build 0)  -->
<svg version="1.1" id="Capa_1" xmlns="http://www.w3.org/2000/svg" xmlns:xlink="http://www.w3.org/1999/xlink" x="0px" y="0px"
	 viewBox="0 0 512 512" style="enable-background:new 0 0 512 512;" xml:space="preserve">
<path style="fill:#8CCEEA;" d="M403.981,50.027H283.996c-11.045,0-19.997-8.953-19.997-19.997l0,0
	c0-11.045,8.953-19.997,19.997-19.997h119.985c11.045,0,19.997,8.953,19.997,19.997l0,0
	C423.978,41.074,415.026,50.027,403.981,50.027z"/>
<rect x="320.009" y="50.024" style="fill:#D0E6EF;" width="47.961" height="243.969"/>
<path style="fill:#657FC9;" d="M155.98,166.012H39.995c-16.567,0-29.996,13.429-29.996,29.996v275.964
	c0,16.567,13.429,29.996,29.996,29.996H155.98c16.567,0,29.996-13.429,29.996-29.996V196.008
	C185.976,179.442,172.547,166.012,155.98,166.012z"/>
<rect x="225.971" y="293.993" style="fill:#8CCEEA;" width="276.034" height="79.99"/>
<rect x="185.976" y="281.994" style="fill:#D0E6EF;" width="39.995" height="103.987"/>
<path d="M363.986,363.987h-1.183c-5.521,0-9.999,4.476-9.999,9.999s4.477,9.999,9.999,9.999h1.183c5.521,0,9.999-4.476,9.999-9.999
	S369.508,363.987,363.986,363.987z"/>
<path d="M502.001,283.997H377.967v-27.498l40.698,10.905c0.867,0.232,1.737,0.343,2.594,0.343c4.414,0,8.455-2.947,9.652-7.413
	c1.43-5.334-1.736-10.817-7.07-12.246l-154.529-41.406c-5.337-1.43-10.816,1.737-12.245,7.07c-1.43,5.334,1.736,10.817,7.07,12.246
	l45.873,12.291v45.707H235.97v-2c0-5.522-4.477-9.999-9.999-9.999h-29.996v-75.99c0-22.053-17.942-39.995-39.995-39.995H39.995
	C17.942,156.012,0,173.954,0,196.007v275.964c0,22.053,17.942,39.995,39.995,39.995H155.98c22.053,0,39.995-17.942,39.995-39.995
	v-75.99h29.996c5.521,0,9.999-4.476,9.999-9.999v-2h76.323c5.521,0,9.999-4.476,9.999-9.999s-4.477-9.999-9.999-9.999H235.97
	v-59.992h256.033v59.992h-70.75c-5.521,0-9.999,4.476-9.999,9.999s4.477,9.999,9.999,9.999h80.749c5.521,0,9.999-4.476,9.999-9.999
	v-79.99C512,288.473,507.524,283.997,502.001,283.997z M155.98,176.011c3.728,0,7.207,1.044,10.197,2.826l-42.846,42.846
	c-3.904,3.904-3.904,10.236,0,14.141c1.953,1.953,4.511,2.929,7.07,2.929c2.559,0,5.117-0.976,7.07-2.929l38.507-38.506v40.122
	c-1.52,0.462-2.952,1.291-4.153,2.493l-48.494,48.494c-3.904,3.905-3.904,10.236,0,14.141c1.953,1.953,4.511,2.929,7.07,2.929
	c2.559,0,5.117-0.976,7.07-2.929l38.507-38.508v17.938v22.183c-1.52,0.462-2.952,1.291-4.153,2.493l-48.494,48.494
	c-3.904,3.905-3.904,10.236,0,14.141c1.953,1.953,4.511,2.929,7.07,2.929c2.559,0,5.117-0.976,7.07-2.929l38.507-38.507v40.122
	c-1.52,0.462-2.952,1.291-4.153,2.493l-48.494,48.494c-3.904,3.904-3.904,10.236,0,14.141c1.953,1.953,4.511,2.929,7.07,2.929
	c2.559,0,5.117-0.976,7.07-2.929l38.507-38.508v40.122c-1.52,0.462-2.952,1.291-4.153,2.493l-48.494,48.494
	c-0.98,0.98-1.713,2.113-2.201,3.321H74.846c-0.488-1.209-1.221-2.341-2.201-3.321l-48.494-48.494
	c-1.202-1.202-2.635-2.03-4.153-2.493v-40.122l38.507,38.507c1.953,1.953,4.511,2.929,7.07,2.929c2.559,0,5.117-0.976,7.07-2.929
	c3.904-3.905,3.904-10.236,0-14.141l-48.494-48.494c-1.202-1.202-2.635-2.03-4.153-2.493V330.8l38.507,38.507
	c1.953,1.953,4.511,2.929,7.07,2.929c2.559,0,5.117-0.976,7.07-2.929c3.904-3.905,3.904-10.236,0-14.141l-48.494-48.494
	c-1.202-1.202-2.635-2.03-4.153-2.493v-40.122l38.507,38.507c1.953,1.953,4.511,2.929,7.07,2.929c2.559,0,5.117-0.976,7.07-2.929
	c3.904-3.905,3.904-10.236,0-14.141l-48.494-48.494c-1.202-1.202-2.635-2.03-4.153-2.493v-40.122l38.507,38.507
	c1.953,1.953,4.511,2.929,7.07,2.929c2.559,0,5.117-0.976,7.07-2.929c3.904-3.904,3.904-10.236,0-14.141l-42.847-42.843
	c2.99-1.783,6.469-2.826,10.197-2.826L155.98,176.011L155.98,176.011z M19.997,471.973v-7.689l27.686,27.686h-7.689
	C28.968,491.97,19.997,482.999,19.997,471.973z M155.98,491.97h-7.689l27.686-27.686v7.689
	C175.977,482.999,167.006,491.97,155.98,491.97z M215.972,375.985h-19.997v-83.989h19.997v2v79.99V375.985z M330.007,243.648
	l28.006,7.504c-0.024,0.281-0.043,0.563-0.043,0.849v31.996h-27.963V243.648z"/>
<path d="M423.841,164.692l-154.529-41.406c-5.337-1.43-10.816,1.737-12.245,7.07c-1.43,5.334,1.736,10.817,7.07,12.246
	l154.529,41.406c0.867,0.232,1.737,0.343,2.594,0.343c4.414,0,8.455-2.947,9.652-7.413
	C432.34,171.604,429.175,166.122,423.841,164.692z"/>
<path d="M423.841,206.39l-154.529-41.406c-5.337-1.43-10.816,1.737-12.245,7.07c-1.43,5.334,1.736,10.817,7.07,12.246
	l154.529,41.406c0.867,0.232,1.737,0.343,2.594,0.343c4.414,0,8.455-2.947,9.652-7.413
	C432.34,213.302,429.175,207.819,423.841,206.39z"/>
<path d="M283.996,60.026h26.014v32.468l-40.698-10.905c-5.337-1.43-10.816,1.737-12.245,7.07c-1.43,5.334,1.736,10.817,7.07,12.246
	l154.529,41.406c0.867,0.232,1.737,0.343,2.594,0.343c4.414,0,8.455-2.947,9.652-7.413c1.43-5.334-1.736-10.817-7.07-12.246
	l-45.873-12.291V60.026h26.014c16.54,0,29.996-13.456,29.996-29.996S420.522,0.034,403.982,0.034H283.997
	c-16.54,0-29.996,13.456-29.996,29.996S267.457,60.026,283.996,60.026z M357.971,105.345l-27.963-7.493V60.026h27.963V105.345z
	 M283.996,20.031h119.985c5.513,0,9.999,4.485,9.999,9.999s-4.485,9.999-9.999,9.999H283.996c-5.513,0-9.999-4.485-9.999-9.999
	S278.484,20.031,283.996,20.031z"/>
<g>
</g>
<g>
</g>
<g>
</g>
<g>
</g>
<g>
</g>
<g>
</g>
<g>
</g>
<g>
</g>
<g>
</g>
<g>
</g>
<g>
</g>
<g>
</g>
<g>
</g>
<g>
</g>
<g>
</g>
</svg>
