<?xml version="1.0" encoding="iso-8859-1"?>
<!-- Generator: Adobe Illustrator 19.0.0, SVG Export Plug-In . SVG Version: 6.00 Build 0)  -->
<svg version="1.1" id="Capa_1" xmlns="http://www.w3.org/2000/svg" xmlns:xlink="http://www.w3.org/1999/xlink" x="0px" y="0px"
	 viewBox="0 0 511.999 511.999" style="enable-background:new 0 0 511.999 511.999;" xml:space="preserve">
<path style="fill:#8CCEEA;" d="M342.947,361.999H102.222C51.289,361.999,10,320.71,10,269.777v-27.556
	c0-50.933,41.289-92.222,92.222-92.222h240.725L342.947,361.999L342.947,361.999z"/>
<polygon style="fill:#FE947C;" points="448,71.016 342.82,150.43 342.82,361.568 448,440.982 "/>
<path style="fill:#F25353;" d="M462.5,347.999H448v-184h14.5c21.815,0,39.5,17.685,39.5,39.5v105
	C502,330.314,484.315,347.999,462.5,347.999z"/>
<path d="M83.086,211.861H256c5.523,0,10-4.477,10-10s-4.477-10-10-10H83.086c-5.523,0-10,4.477-10,10S77.563,211.861,83.086,211.861
	z"/>
<path d="M296.93,211.859c2.63,0,5.21-1.07,7.07-2.93c1.86-1.86,2.93-4.44,2.93-7.07s-1.07-5.21-2.93-7.07s-4.44-2.93-7.07-2.93
	s-5.21,1.07-7.07,2.93c-1.86,1.86-2.93,4.44-2.93,7.07c0,2.64,1.07,5.21,2.93,7.07C291.72,210.789,294.3,211.859,296.93,211.859z"/>
<path d="M306.93,255.999c0-5.523-4.477-10-10-10H83.086c-5.523,0-10,4.477-10,10c0,5.523,4.477,10,10,10H296.93
	C302.453,265.999,306.93,261.522,306.93,255.999z"/>
<path d="M296.93,300.137H125c-5.523,0-10,4.477-10,10s4.477,10,10,10h171.93c5.523,0,10-4.477,10-10S302.453,300.137,296.93,300.137
	z"/>
<path d="M83.09,300.139c-2.64,0-5.21,1.07-7.07,2.93c-1.87,1.86-2.93,4.44-2.93,7.07s1.06,5.21,2.93,7.07
	c1.86,1.86,4.43,2.93,7.07,2.93c2.63,0,5.21-1.07,7.07-2.93s2.93-4.44,2.93-7.07s-1.07-5.21-2.93-7.07
	C88.3,301.209,85.72,300.139,83.09,300.139z"/>
<path d="M462.5,153.999H458V71.016c0-3.793-2.146-7.26-5.542-8.952c-3.396-1.69-7.456-1.315-10.483,0.971L340.04,139.999H102.222
	C45.857,139.999,0,185.855,0,242.221v27.556c0,56.365,45.857,102.222,102.222,102.222H340.04l101.934,76.964
	c1.77,1.336,3.891,2.02,6.027,2.02c1.519,0,3.045-0.346,4.456-1.048c3.396-1.691,5.542-5.158,5.542-8.952v-82.984h4.5
	c27.294,0,49.5-22.206,49.5-49.5v-105C512,176.205,489.794,153.999,462.5,153.999z M20,269.777v-27.556
	c0-45.337,36.885-82.222,82.222-82.222H332.82v192H102.222C56.885,351.999,20,315.114,20,269.777z M438,420.902l-85.053-64.218
	v-201.37L438,91.096v72.903v184V420.902z M492,308.499c0,16.266-13.234,29.5-29.5,29.5H458v-164h4.5c16.266,0,29.5,13.234,29.5,29.5
	V308.499z"/>
<g>
</g>
<g>
</g>
<g>
</g>
<g>
</g>
<g>
</g>
<g>
</g>
<g>
</g>
<g>
</g>
<g>
</g>
<g>
</g>
<g>
</g>
<g>
</g>
<g>
</g>
<g>
</g>
<g>
</g>
</svg>
