<?xml version="1.0" encoding="iso-8859-1"?>
<!-- Generator: Adobe Illustrator 19.0.0, SVG Export Plug-In . SVG Version: 6.00 Build 0)  -->
<svg version="1.1" id="Capa_1" xmlns="http://www.w3.org/2000/svg" xmlns:xlink="http://www.w3.org/1999/xlink" x="0px" y="0px"
	 viewBox="0 0 512 512" style="enable-background:new 0 0 512 512;" xml:space="preserve">
<path style="fill:#F4F4F4;" d="M30,91h452c11.046,0,20,8.954,20,20v364H10V111C10,99.954,18.954,91,30,91z"/>
<path style="fill:#A0E892;" d="M502,475V289.994c-13.586-13.586-35.614-13.586-49.2,0l-4.591,4.591
	c-11.051,11.051-28.967,11.051-40.018,0l-9.182-9.182c-11.051-11.051-28.967-11.051-40.018,0l-9.182,9.182
	c-11.051,11.051-28.967,11.051-40.018,0l-9.182-9.182c-11.051-11.051-28.967-11.051-40.018,0l-9.182,9.182
	c-11.051,11.051-28.967,11.051-40.018,0l-9.182-9.182c-11.051-11.051-28.967-11.051-40.018,0l-9.182,9.182
	c-11.051,11.051-28.967,11.051-40.018,0l-9.182-9.182c-11.051-11.051-28.967-11.051-40.018,0l-9.182,9.182
	c-11.051,11.051-28.967,11.051-40.018,0L10,289.994V475H502z"/>
<rect x="64" y="37" style="fill:#6EA3D3;" width="128" height="54"/>
<path d="M482,81h-93c-5.523,0-10,4.477-10,10s4.477,10,10,10h93c5.514,0,10,4.486,10,10v161.26
	c-15.683-5.38-33.779-1.829-46.271,10.663l-4.59,4.591c-7.134,7.133-18.743,7.133-25.876,0l-9.182-9.182
	c-7.233-7.234-16.851-11.217-27.08-11.217s-19.847,3.983-27.08,11.217l-9.182,9.182c-7.134,7.133-18.743,7.133-25.876,0
	l-9.183-9.183c-14.932-14.932-39.228-14.932-54.16,0l-9.181,9.182c-7.134,7.133-18.743,7.133-25.876,0l-9.182-9.183
	c-14.933-14.932-39.229-14.931-54.161,0l-9.182,9.183c-7.134,7.134-18.741,7.134-25.875,0l-9.182-9.183
	c-7.234-7.233-16.851-11.217-27.08-11.217c-10.23,0-19.847,3.983-27.081,11.217l-9.182,9.183c-3.456,3.456-8.05,5.358-12.938,5.358
	s-9.482-1.903-12.938-5.358L20,285.852V111c0-5.514,4.486-10,10-10h34h128h100.5c5.523,0,10-4.477,10-10s-4.477-10-10-10H202V37
	c0-5.523-4.477-10-10-10H64c-5.523,0-10,4.477-10,10v44H30C13.458,81,0,94.458,0,111v364c0,5.523,4.477,10,10,10h492
	c5.523,0,10-4.477,10-10V111C512,94.458,498.542,81,482,81z M74,47h108v34H74V47z M20,377.108c4.57,1.883,9.509,2.871,14.6,2.871
	c10.229,0,19.847-3.983,27.08-11.217l9.183-9.182c7.134-7.135,18.741-7.134,25.876,0l9.182,9.181
	c7.233,7.234,16.851,11.217,27.08,11.217s19.847-3.983,27.08-11.217l9.183-9.182c7.134-7.135,18.741-7.134,25.876,0l9.182,9.182
	c14.932,14.932,39.228,14.932,54.16,0l9.182-9.182c7.134-7.135,18.741-7.134,25.876,0l9.182,9.182
	c14.933,14.931,39.229,14.932,54.16,0l9.183-9.182c3.456-3.456,8.05-5.359,12.938-5.359s9.482,1.903,12.938,5.359l9.182,9.182
	c7.234,7.233,16.851,11.217,27.08,11.217c10.23,0,19.847-3.983,27.081-11.217l4.591-4.591c8.745-8.746,22.439-9.55,32.129-2.469
	v44.747c-4.637-1.594-9.553-2.433-14.6-2.433c-11.964,0-23.211,4.659-31.671,13.119l-4.591,4.591
	c-7.134,7.135-18.742,7.134-25.875,0l-9.183-9.182c-14.932-14.932-39.228-14.932-54.159,0l-9.183,9.182
	c-7.133,7.135-18.741,7.136-25.875,0l-9.183-9.182c-14.932-14.932-39.228-14.931-54.16,0l-9.182,9.182
	c-7.133,7.135-18.741,7.136-25.875,0l-9.183-9.182c-14.932-14.932-39.228-14.93-54.16,0l-9.182,9.183
	c-3.456,3.456-8.05,5.359-12.938,5.359s-9.482-1.903-12.938-5.359l-9.183-9.182c-14.932-14.932-39.228-14.93-54.16,0l-9.182,9.183
	c-3.456,3.456-8.05,5.359-12.938,5.359s-9.482-1.903-12.938-5.359L20,420.065V377.108z M61.68,301.657l9.183-9.182
	c7.134-7.135,18.742-7.134,25.875,0l9.183,9.182c7.466,7.466,17.272,11.199,27.08,11.199s19.614-3.733,27.08-11.199l9.183-9.182
	c7.134-7.134,18.742-7.135,25.875,0l9.183,9.182c14.932,14.932,39.228,14.931,54.16,0l9.182-9.182
	c7.134-7.134,18.742-7.135,25.875,0l9.183,9.182c14.932,14.932,39.228,14.93,54.16,0l9.182-9.183
	c3.456-3.456,8.05-5.359,12.938-5.359s9.482,1.903,12.938,5.359l9.183,9.182c14.932,14.932,39.229,14.931,54.16,0l4.59-4.591
	c8.746-8.745,22.439-9.549,32.129-2.469v44.747c-4.637-1.594-9.553-2.433-14.6-2.433c-11.964,0-23.211,4.659-31.671,13.119
	l-4.591,4.591c-7.134,7.135-18.741,7.134-25.876,0l-9.182-9.181c-7.233-7.234-16.851-11.217-27.08-11.217
	s-19.847,3.983-27.08,11.217l-9.183,9.182c-7.134,7.135-18.741,7.134-25.876,0l-9.182-9.182c-14.931-14.932-39.227-14.932-54.16,0
	l-9.182,9.182c-7.134,7.135-18.741,7.134-25.876,0l-9.182-9.182c-14.933-14.932-39.229-14.932-54.16,0l-9.183,9.182
	c-3.456,3.456-8.05,5.359-12.938,5.359s-9.482-1.903-12.938-5.359l-9.182-9.182c-7.234-7.233-16.851-11.217-27.08-11.217
	c-10.23,0-19.847,3.983-27.08,11.217l-9.183,9.182c-3.456,3.456-8.05,5.359-12.938,5.359s-9.482-1.903-12.938-5.359L20,352.958
	v-42.982C33.87,315.676,50.431,312.905,61.68,301.657z M20,465v-20.786c4.57,1.883,9.509,2.871,14.6,2.871
	c10.229,0,19.847-3.983,27.08-11.217l9.182-9.182c7.133-7.134,18.742-7.134,25.876,0l9.182,9.182
	c7.233,7.234,16.851,11.217,27.08,11.217s19.847-3.983,27.08-11.217l9.182-9.182c7.133-7.134,18.741-7.134,25.876,0l9.183,9.183
	c14.932,14.932,39.228,14.932,54.16,0l9.181-9.182c7.133-7.134,18.742-7.134,25.876,0l9.182,9.183
	c14.933,14.932,39.228,14.931,54.161,0l9.182-9.183c7.134-7.134,18.741-7.134,25.875,0l9.182,9.183
	c7.234,7.233,16.851,11.217,27.08,11.217c10.23,0,19.847-3.983,27.081-11.217l4.591-4.591c8.745-8.746,22.439-9.55,32.129-2.469V465
	H20z"/>
<path d="M341.33,101c2.64,0,5.21-1.07,7.07-2.93c1.87-1.86,2.93-4.44,2.93-7.07s-1.06-5.21-2.93-7.07
	c-1.86-1.86-4.43-2.93-7.07-2.93c-2.63,0-5.21,1.07-7.07,2.93c-1.86,1.86-2.93,4.44-2.93,7.07s1.07,5.21,2.93,7.07
	S338.7,101,341.33,101z"/>
<g>
</g>
<g>
</g>
<g>
</g>
<g>
</g>
<g>
</g>
<g>
</g>
<g>
</g>
<g>
</g>
<g>
</g>
<g>
</g>
<g>
</g>
<g>
</g>
<g>
</g>
<g>
</g>
<g>
</g>
</svg>
