<?xml version="1.0" encoding="iso-8859-1"?>
<!-- Generator: Adobe Illustrator 19.0.0, SVG Export Plug-In . SVG Version: 6.00 Build 0)  -->
<svg version="1.1" id="Capa_1" xmlns="http://www.w3.org/2000/svg" xmlns:xlink="http://www.w3.org/1999/xlink" x="0px" y="0px"
	 viewBox="0 0 511.999 511.999" style="enable-background:new 0 0 511.999 511.999;" xml:space="preserve">
<path style="fill:#AAEBF2;" d="M494.538,96c0-2.667-0.136-5.301-0.396-7.9l7.856-8.267c-0.822-4.401-1.969-8.685-3.424-12.827
	l-10.96-3.239c-2.179-4.833-4.828-9.404-7.897-13.657l2.671-11.094c-2.894-3.368-6.037-6.512-9.406-9.406l-11.094,2.671
	c-4.253-3.069-8.825-5.718-13.657-7.897l-3.239-10.96c-4.142-1.454-8.426-2.602-12.827-3.424l-8.268,7.856
	c-2.598-0.26-5.233-0.396-7.9-0.396s-5.301,0.136-7.9,0.396L399.831,10c-4.401,0.822-8.685,1.969-12.827,3.424l-3.239,10.96
	c-4.833,2.179-9.404,4.828-13.657,7.897l-11.094-2.671c-3.368,2.894-6.512,6.037-9.406,9.406l2.671,11.094
	c-3.068,4.253-5.718,8.825-7.897,13.657l-10.96,3.239c-1.455,4.142-2.602,8.426-3.424,12.827l7.856,8.268
	c-0.26,2.598-0.396,5.233-0.396,7.9s0.136,5.301,0.396,7.899l-7.856,8.268c0.822,4.401,1.969,8.685,3.424,12.827l10.96,3.239
	c2.179,4.833,4.828,9.404,7.897,13.657l-2.671,11.094c2.894,3.368,6.037,6.512,9.406,9.406l11.094-2.671
	c4.253,3.069,8.825,5.718,13.657,7.897l3.239,10.96c4.142,1.454,8.426,2.602,12.827,3.424l8.268-7.856
	c2.598,0.26,5.233,0.396,7.9,0.396s5.301-0.136,7.9-0.396l8.268,7.856c4.401-0.822,8.685-1.969,12.827-3.424l3.239-10.96
	c4.833-2.179,9.404-4.828,13.657-7.897l11.094,2.671c3.368-2.894,6.512-6.037,9.406-9.406l-2.671-11.094
	c3.068-4.253,5.718-8.825,7.897-13.657l10.96-3.239c1.455-4.142,2.602-8.426,3.424-12.827l-7.856-8.268
	C494.402,101.302,494.538,98.667,494.538,96z"/>
<circle style="fill:#6EA3D3;" cx="415.998" cy="96" r="24"/>
<path style="fill:#D0E6EF;" d="M318.307,342c0-2.244-0.059-4.475-0.157-6.695l11.848-9.875c-0.594-5.801-1.504-11.507-2.698-17.108
	l-14.294-5.72c-1.195-4.346-2.582-8.611-4.152-12.788l8.205-13.035c-2.352-5.296-4.979-10.442-7.868-15.418l-15.386-1.025
	c-2.468-3.734-5.098-7.349-7.885-10.836l3.775-14.93c-3.867-4.306-7.962-8.401-12.268-12.268l-14.93,3.775
	c-3.487-2.786-7.102-5.417-10.836-7.885l-1.025-15.386c-4.976-2.889-10.122-5.516-15.417-7.868l-13.035,8.205
	c-4.177-1.57-8.442-2.958-12.788-4.152l-5.72-14.294c-5.602-1.194-11.308-2.104-17.108-2.698l-9.876,11.849
	c-2.22-0.099-4.45-0.157-6.695-0.157s-4.475,0.059-6.695,0.157L153.428,182c-5.801,0.594-11.507,1.505-17.108,2.698l-5.72,14.294
	c-4.346,1.195-8.611,2.582-12.788,4.152l-13.035-8.205c-5.296,2.352-10.442,4.979-15.417,7.868l-1.025,15.386
	c-3.734,2.468-7.349,5.098-10.836,7.885l-14.93-3.775c-4.306,3.867-8.401,7.962-12.268,12.268l3.775,14.93
	c-2.786,3.487-5.417,7.102-7.885,10.836l-15.386,1.025c-2.889,4.976-5.516,10.122-7.868,15.418l8.205,13.035
	c-1.57,4.177-2.957,8.442-4.152,12.788l-14.294,5.72c-1.194,5.602-2.104,11.308-2.698,17.108l11.849,9.876
	c-0.099,2.22-0.157,4.45-0.157,6.695c0,2.244,0.059,4.475,0.157,6.695l-11.849,9.876c0.594,5.801,1.504,11.507,2.698,17.108
	l14.294,5.72c1.195,4.346,2.582,8.611,4.152,12.788l-8.205,13.035c2.352,5.296,4.979,10.442,7.868,15.418l15.386,1.025
	c2.468,3.734,5.099,7.349,7.885,10.836l-3.775,14.93c3.867,4.306,7.962,8.401,12.268,12.268l14.93-3.775
	c3.487,2.786,7.102,5.417,10.836,7.884l1.025,15.386c4.976,2.889,10.122,5.516,15.418,7.868l13.035-8.205
	c4.176,1.57,8.442,2.958,12.788,4.152l5.72,14.294c5.602,1.194,11.308,2.104,17.108,2.698l9.876-11.849
	c2.22,0.099,4.45,0.157,6.695,0.157s4.475-0.059,6.695-0.157L186.569,502c5.801-0.594,11.507-1.504,17.108-2.698l5.72-14.294
	c4.346-1.195,8.611-2.582,12.788-4.152l13.035,8.205c5.296-2.352,10.442-4.979,15.418-7.868l1.025-15.386
	c3.734-2.468,7.349-5.098,10.836-7.885l14.93,3.775c4.306-3.867,8.401-7.962,12.268-12.268l-3.775-14.93
	c2.786-3.487,5.417-7.102,7.885-10.836l15.386-1.025c2.889-4.976,5.516-10.122,7.868-15.418l-8.205-13.035
	c1.57-4.177,2.958-8.442,4.152-12.788l14.294-5.72c1.194-5.602,2.104-11.308,2.698-17.108l-11.849-9.875
	C318.249,346.475,318.307,344.245,318.307,342z"/>
<g>
	<circle style="fill:#F4F4F4;" cx="169.998" cy="342" r="40"/>
	<circle style="fill:#F4F4F4;" cx="169.998" cy="247" r="20"/>
	<circle style="fill:#F4F4F4;" cx="169.998" cy="437" r="20"/>
	<circle style="fill:#F4F4F4;" cx="264.998" cy="342" r="20"/>
	<circle style="fill:#F4F4F4;" cx="74.994" cy="342" r="20"/>
</g>
<path d="M415.998,62c-18.748,0-34,15.252-34,34s15.252,34,34,34s34-15.252,34-34S434.746,62,415.998,62z M415.998,110
	c-7.72,0-14-6.28-14-14s6.28-14,14-14s14,6.28,14,14S423.718,110,415.998,110z"/>
<path d="M169.999,292c-27.57,0-50,22.43-50,50s22.43,50,50,50s50-22.43,50-50S197.569,292,169.999,292z M169.999,372
	c-16.542,0-30-13.458-30-30s13.458-30,30-30s30,13.458,30,30S186.54,372,169.999,372z"/>
<path d="M169.999,276.996c16.542,0,30-13.458,30-30s-13.458-30-30-30s-30,13.458-30,30S153.457,276.996,169.999,276.996z
	 M169.999,236.996c5.514,0,10,4.486,10,10s-4.486,10-10,10s-10-4.486-10-10S164.484,236.996,169.999,236.996z"/>
<path d="M169.999,407.004c-16.542,0-30,13.458-30,30s13.458,30,30,30s30-13.458,30-30S186.54,407.004,169.999,407.004z
	 M169.999,447.004c-5.514,0-10-4.486-10-10s4.486-10,10-10s10,4.486,10,10S175.513,447.004,169.999,447.004z"/>
<path d="M265.002,312c-16.542,0-30,13.458-30,30s13.458,30,30,30s30-13.458,30-30S281.544,312,265.002,312z M265.002,352
	c-5.514,0-10-4.486-10-10s4.486-10,10-10s10,4.486,10,10S270.517,352,265.002,352z"/>
<path d="M74.995,312c-16.542,0-30,13.458-30,30s13.458,30,30,30s30-13.458,30-30S91.537,312,74.995,312z M74.995,352
	c-5.514,0-10-4.486-10-10s4.486-10,10-10s10,4.486,10,10S80.509,352,74.995,352z"/>
<path d="M232.777,289.18c0.01,0,0.019,0,0.028,0c5.51,0,9.984-4.459,10-9.973v-0.179c0.015-5.523-4.45-10.012-9.973-10.027
	c-0.01,0-0.019,0-0.028,0c-5.51,0-9.984,4.459-10,9.973v0.179C222.789,284.675,227.254,289.164,232.777,289.18z"/>
<path d="M233.011,394.822h-0.179c-0.01,0-0.019,0-0.028,0c-5.51,0-9.984,4.459-10,9.973c-0.015,5.523,4.45,10.012,9.973,10.027
	h0.179c0.01,0,0.019,0,0.028,0c5.51,0,9.984-4.459,10-9.973C242.999,399.326,238.534,394.837,233.011,394.822z"/>
<path d="M107.189,394.821c-0.01,0-0.019,0-0.028,0c-5.51,0-9.984,4.459-10,9.973v0.179c-0.015,5.523,4.45,10.012,9.973,10.027
	c0.01,0,0.019,0,0.028,0c5.51,0,9.984-4.459,10-9.973v-0.179C117.177,399.326,112.712,394.836,107.189,394.821z"/>
<path d="M107.189,269.18h-0.179c-0.009,0-0.019,0-0.028,0c-5.51,0-9.984,4.459-10,9.973c-0.015,5.523,4.45,10.012,9.973,10.027
	h0.179c0.009,0,0.019,0,0.028,0c5.51,0,9.984-4.459,10-9.973C117.177,273.684,112.712,269.195,107.189,269.18z"/>
<path d="M238.19,117.221c1.851,0,3.723-0.513,5.396-1.587l0.375-0.241c4.646-2.985,5.994-9.172,3.009-13.818
	s-9.172-5.993-13.818-3.009l-0.375,0.241c-4.646,2.985-5.994,9.172-3.009,13.818C231.678,115.599,234.9,117.221,238.19,117.221z"/>
<path d="M388.571,299.052c-4.646-2.983-10.833-1.637-13.818,3.01l-34.984,54.467c-0.456-2.178-1.614-4.177-3.368-5.64l-8.109-6.759
	c0.01-0.718,0.016-1.427,0.016-2.129s-0.005-1.411-0.016-2.129l8.109-6.759c2.556-2.13,3.884-5.391,3.546-8.7
	c-0.618-6.036-1.583-12.151-2.866-18.174c-0.695-3.261-2.969-5.961-6.065-7.2l-9.777-3.913c-0.425-1.372-0.869-2.739-1.331-4.099
	l5.615-8.92c1.775-2.821,2.029-6.34,0.676-9.386c-2.486-5.597-5.298-11.108-8.359-16.38c-1.671-2.877-4.664-4.735-7.983-4.957
	l-10.54-0.702c-0.82-1.16-1.657-2.309-2.507-3.446l2.583-10.213c0.817-3.23-0.029-6.655-2.255-9.133
	c-4.09-4.553-8.473-8.936-13.026-13.026c-2.479-2.226-5.904-3.07-9.133-2.255l-10.213,2.583c-1.137-0.851-2.287-1.687-3.446-2.507
	l-0.702-10.54c-0.221-3.32-2.079-6.313-4.957-7.983c-5.271-3.061-10.783-5.874-16.38-8.359c-3.047-1.354-6.565-1.101-9.386,0.676
	l-8.92,5.615c-1.36-0.462-2.727-0.906-4.099-1.331l-3.913-9.777c-1.239-3.096-3.939-5.37-7.2-6.065
	c-6.024-1.284-12.139-2.248-18.175-2.866c-3.305-0.336-6.57,0.991-8.7,3.546l-6.759,8.109c-1.437-0.021-2.822-0.021-4.259,0
	l-6.759-8.109c-1.462-1.754-3.462-2.912-5.64-3.368l54.367-34.919c4.647-2.985,5.994-9.171,3.01-13.818
	c-2.985-4.647-9.171-5.994-13.818-3.01L83.955,194.393c0.003,0.005,0.006,0.01,0.009,0.015c-2.658,1.708-4.372,4.565-4.583,7.734
	l-0.702,10.54c-1.16,0.82-2.309,1.657-3.446,2.507l-10.213-2.583c-3.229-0.817-6.655,0.028-9.133,2.255
	c-4.553,4.09-8.936,8.473-13.026,13.026c-2.226,2.479-3.072,5.903-2.255,9.133l2.583,10.213c-0.851,1.137-1.687,2.287-2.507,3.446
	l-10.54,0.702c-3.32,0.221-6.313,2.079-7.983,4.957c-3.061,5.271-5.874,10.783-8.359,16.38c-1.353,3.046-1.099,6.565,0.676,9.386
	l5.615,8.92c-0.462,1.36-0.906,2.727-1.331,4.099l-9.777,3.913c-3.096,1.239-5.37,3.939-6.065,7.2
	c-1.284,6.023-2.248,12.138-2.866,18.174c-0.338,3.31,0.99,6.57,3.545,8.7l8.11,6.759c-0.01,0.719-0.016,1.427-0.016,2.129
	s0.005,1.411,0.016,2.129l-8.109,6.759c-2.555,2.13-3.884,5.391-3.546,8.7c0.618,6.036,1.582,12.151,2.866,18.175
	c0.695,3.261,2.969,5.961,6.065,7.2l9.777,3.913c0.425,1.372,0.869,2.739,1.331,4.099l-5.615,8.92
	c-1.775,2.821-2.029,6.34-0.676,9.386c2.486,5.597,5.298,11.108,8.359,16.38c1.671,2.877,4.664,4.735,7.983,4.957l10.54,0.702
	c0.82,1.159,1.657,2.309,2.507,3.446l-2.583,10.213c-0.817,3.23,0.029,6.655,2.255,9.133c4.09,4.553,8.473,8.936,13.026,13.026
	c2.479,2.227,5.906,3.072,9.133,2.255l10.213-2.583c1.137,0.85,2.286,1.687,3.446,2.507l0.702,10.541
	c0.221,3.32,2.079,6.313,4.957,7.983c5.271,3.061,10.783,5.874,16.38,8.359c3.046,1.353,6.565,1.1,9.386-0.676l8.92-5.615
	c1.36,0.462,2.727,0.906,4.099,1.331l3.913,9.777c1.239,3.096,3.939,5.37,7.2,6.065c6.024,1.284,12.139,2.248,18.175,2.866
	c3.308,0.34,6.57-0.99,8.7-3.546l6.759-8.109c1.437,0.021,2.821,0.021,4.259,0l6.759,8.11c1.911,2.292,4.731,3.598,7.681,3.597
	c0.338,0,0.679-0.017,1.02-0.052c6.036-0.618,12.151-1.583,18.174-2.866c3.261-0.695,5.961-2.969,7.2-6.065l3.913-9.777
	c1.372-0.425,2.739-0.869,4.099-1.331l8.92,5.615c2.821,1.777,6.341,2.03,9.386,0.676c5.597-2.486,11.108-5.298,16.38-8.359
	c2.877-1.671,4.735-4.664,4.957-7.983l0.702-10.54c1.16-0.82,2.309-1.657,3.446-2.507l10.213,2.583
	c3.227,0.815,6.654-0.029,9.133-2.255c4.553-4.09,8.936-8.473,13.026-13.026c2.226-2.479,3.072-5.903,2.255-9.133l-2.583-10.213
	c0.851-1.137,1.687-2.286,2.507-3.446l10.54-0.702c3.17-0.211,6.028-1.926,7.735-4.584c0.005,0.004,0.01,0.007,0.014,0.01
	l73.976-115.173C394.565,308.223,393.218,302.037,388.571,299.052z M293.141,413.686c-3.116,0.208-5.956,1.859-7.678,4.464
	c-2.292,3.469-4.767,6.87-7.354,10.107c-1.953,2.444-2.649,5.661-1.882,8.693l2.441,9.655c-1.328,1.379-2.684,2.735-4.063,4.063
	l-9.655-2.441c-3.033-0.766-6.25-0.07-8.693,1.882c-3.239,2.588-6.64,5.062-10.107,7.354c-2.605,1.722-4.257,4.562-4.464,7.678
	l-0.664,9.963c-1.675,0.895-3.37,1.76-5.081,2.593l-8.428-5.305c-2.647-1.667-5.92-1.997-8.847-0.897
	c-3.896,1.465-7.906,2.767-11.918,3.87c-3.017,0.829-5.472,3.022-6.634,5.927l-3.697,9.239c-1.881,0.333-3.764,0.631-5.645,0.892
	l-6.396-7.674c-1.905-2.285-4.722-3.597-7.681-3.597c-0.147,0-0.296,0.003-0.444,0.01c-4.464,0.198-8.038,0.198-12.501,0
	c-3.115-0.127-6.125,1.188-8.125,3.588l-6.396,7.674c-1.88-0.261-3.765-0.558-5.645-0.892l-3.697-9.239
	c-1.163-2.905-3.617-5.098-6.634-5.927c-4.012-1.103-8.022-2.404-11.918-3.87c-2.926-1.099-6.2-0.769-8.847,0.897l-8.428,5.305
	c-1.71-0.833-3.406-1.698-5.081-2.593l-0.664-9.963c-0.208-3.116-1.859-5.956-4.464-7.678c-3.472-2.295-6.872-4.769-10.108-7.354
	c-2.443-1.952-5.662-2.651-8.693-1.882l-9.655,2.441c-1.379-1.328-2.735-2.684-4.063-4.063l2.441-9.655
	c0.767-3.033,0.07-6.25-1.882-8.693c-2.59-3.241-5.064-6.642-7.354-10.107c-1.722-2.605-4.563-4.257-7.679-4.465l-9.963-0.664
	c-0.895-1.675-1.76-3.37-2.593-5.081l5.305-8.428c1.666-2.646,1.998-5.92,0.897-8.847c-1.465-3.896-2.767-7.906-3.87-11.918
	c-0.829-3.017-3.022-5.472-5.927-6.634l-9.239-3.697c-0.333-1.88-0.631-3.765-0.892-5.645l7.674-6.396
	c2.399-2,3.727-5.005,3.588-8.125c-0.099-2.232-0.147-4.277-0.147-6.251s0.048-4.019,0.147-6.25c0.139-3.12-1.188-6.125-3.587-8.125
	l-7.674-6.396c0.261-1.881,0.558-3.764,0.892-5.645l9.239-3.697c2.905-1.163,5.098-3.617,5.927-6.634
	c1.103-4.012,2.404-8.022,3.87-11.918c1.101-2.927,0.769-6.2-0.897-8.847l-5.305-8.428c0.833-1.71,1.698-3.406,2.593-5.081
	l9.963-0.664c3.116-0.208,5.957-1.859,7.679-4.465c2.29-3.465,4.764-6.866,7.354-10.107c1.953-2.444,2.649-5.661,1.882-8.693
	l-2.441-9.655c1.328-1.379,2.684-2.735,4.063-4.063l9.655,2.441c3.034,0.769,6.25,0.071,8.693-1.882
	c3.238-2.587,6.638-5.062,10.107-7.354c2.605-1.722,4.257-4.562,4.464-7.678l0.664-9.963c1.675-0.895,3.37-1.76,5.081-2.592
	l8.428,5.305c2.646,1.667,5.92,1.998,8.846,0.897c3.897-1.465,7.908-2.767,11.919-3.87c3.017-0.829,5.472-3.022,6.634-5.927
	l3.697-9.239c1.88-0.333,3.765-0.631,5.645-0.892l6.396,7.674c1.999,2.399,4.995,3.718,8.125,3.588
	c4.464-0.198,8.038-0.198,12.502,0c3.12,0.137,6.126-1.188,8.125-3.588l6.396-7.674c1.88,0.261,3.765,0.558,5.645,0.892l3.697,9.239
	c1.163,2.905,3.617,5.098,6.634,5.927c4.012,1.103,8.022,2.404,11.918,3.87c2.926,1.1,6.2,0.768,8.847-0.897l8.428-5.305
	c1.71,0.833,3.406,1.698,5.081,2.593l0.664,9.963c0.208,3.116,1.859,5.957,4.465,7.679c3.465,2.29,6.866,4.764,10.107,7.354
	c2.443,1.953,5.662,2.649,8.693,1.882l9.655-2.441c1.379,1.328,2.735,2.684,4.063,4.063l-2.441,9.655
	c-0.767,3.033-0.07,6.25,1.882,8.693c2.587,3.238,5.062,6.638,7.354,10.107c1.722,2.605,4.562,4.257,7.678,4.464l9.963,0.664
	c0.895,1.675,1.76,3.37,2.593,5.081l-5.305,8.428c-1.666,2.646-1.998,5.92-0.897,8.847c1.465,3.896,2.767,7.906,3.87,11.918
	c0.829,3.017,3.022,5.472,5.927,6.634l9.239,3.697c0.333,1.881,0.631,3.764,0.892,5.645l-7.674,6.396
	c-2.399,2-3.727,5.005-3.588,8.125c0.099,2.232,0.147,4.277,0.147,6.251s-0.048,4.019-0.147,6.251
	c-0.139,3.12,1.188,6.126,3.588,8.125l7.674,6.396c-0.261,1.88-0.558,3.765-0.892,5.645l-9.239,3.697
	c-2.905,1.163-5.098,3.617-5.927,6.634c-1.103,4.011-2.404,8.021-3.87,11.919c-1.101,2.927-0.769,6.2,0.897,8.846l5.305,8.428
	c-0.833,1.71-1.698,3.406-2.593,5.081L293.141,413.686z"/>
<path d="M411.328,263.607c-4.648-2.981-10.834-1.629-13.815,3.021l-0.094,0.147c-2.981,4.649-1.629,10.834,3.021,13.815
	c1.671,1.072,3.54,1.583,5.388,1.583c3.293,0,6.518-1.625,8.427-4.604l0.094-0.147C417.33,272.774,415.977,266.588,411.328,263.607z
	"/>
<path d="M504.437,100.217c0.067-1.411,0.101-2.819,0.101-4.216s-0.034-2.806-0.101-4.216l4.811-5.063
	c2.21-2.326,3.169-5.571,2.581-8.725c-0.908-4.859-2.193-9.671-3.818-14.303c-1.064-3.032-3.521-5.368-6.602-6.278l-6.721-1.986
	c-1.287-2.492-2.694-4.925-4.211-7.284l1.635-6.789c0.752-3.125-0.043-6.42-2.137-8.858c-3.212-3.738-6.736-7.262-10.474-10.474
	c-2.438-2.094-5.733-2.889-8.858-2.137l-6.789,1.635c-2.359-1.517-4.792-2.924-7.284-4.211l-1.986-6.721
	c-0.91-3.081-3.246-5.537-6.277-6.601c-4.628-1.625-9.44-2.91-14.303-3.819c-3.154-0.589-6.399,0.371-8.725,2.581l-5.063,4.811
	c-2.821-0.135-5.611-0.135-8.433,0l-5.063-4.811c-2.326-2.209-5.57-3.169-8.725-2.581c-4.863,0.909-9.675,2.194-14.303,3.819
	c-3.031,1.064-5.367,3.52-6.277,6.601l-1.986,6.721c-2.492,1.287-4.925,2.694-7.284,4.211l-6.789-1.635
	c-2.672-0.643-5.463-0.147-7.742,1.317c-0.001-0.003-0.002-0.006-0.003-0.009L264.968,78.13c-4.647,2.985-5.994,9.171-3.01,13.818
	c1.911,2.975,5.132,4.597,8.423,4.597c1.85,0,3.723-0.513,5.395-1.587l48.086-30.885c-1.564,4.516-2.81,9.196-3.694,13.924
	c-0.589,3.154,0.371,6.398,2.581,8.725l4.811,5.063c-0.067,1.411-0.101,2.819-0.101,4.216s0.034,2.806,0.101,4.216l-4.811,5.063
	c-2.21,2.326-3.169,5.571-2.581,8.725c0.908,4.86,2.193,9.672,3.818,14.302c1.064,3.032,3.521,5.368,6.602,6.278l6.721,1.986
	c1.287,2.492,2.694,4.925,4.211,7.284l-1.635,6.789c-0.752,3.125,0.043,6.42,2.137,8.858c3.212,3.738,6.736,7.262,10.474,10.474
	c2.437,2.094,5.733,2.889,8.858,2.137l6.789-1.635c2.359,1.517,4.792,2.924,7.284,4.211l1.986,6.721
	c0.91,3.081,3.246,5.537,6.277,6.601c4.628,1.625,9.44,2.91,14.303,3.819c3.153,0.588,6.399-0.371,8.725-2.581l5.063-4.811
	c2.821,0.135,5.611,0.135,8.433,0l5.063,4.811c1.875,1.782,4.348,2.751,6.888,2.75c0.61,0,1.226-0.056,1.837-0.17
	c4.731-0.885,9.411-2.131,13.923-3.694l-29.159,45.397c-2.984,4.647-1.637,10.833,3.01,13.818c1.672,1.074,3.544,1.587,5.395,1.587
	c3.291,0,6.513-1.623,8.423-4.597l55.208-85.953c-0.003-0.002-0.005-0.003-0.008-0.005c1.463-2.278,1.959-5.07,1.316-7.74
	l-1.635-6.789c1.517-2.359,2.924-4.792,4.211-7.284l6.721-1.986c3.081-0.91,5.538-3.246,6.602-6.278
	c1.625-4.63,2.91-9.442,3.818-14.302c0.589-3.154-0.371-6.399-2.581-8.725L504.437,100.217z M484.192,89.094
	c0.229,2.301,0.346,4.625,0.346,6.906s-0.117,4.605-0.346,6.906c-0.289,2.895,0.697,5.772,2.701,7.881l4.2,4.42
	c-0.145,0.57-0.296,1.138-0.455,1.704l-5.858,1.731c-2.792,0.825-5.086,2.826-6.282,5.48c-1.887,4.186-4.206,8.195-6.89,11.916
	c-1.707,2.365-2.295,5.357-1.613,8.192l1.427,5.925c-0.417,0.427-0.84,0.85-1.267,1.267l-5.925-1.427
	c-2.834-0.683-5.827-0.094-8.192,1.613c-3.721,2.685-7.73,5.003-11.916,6.89c-2.654,1.196-4.655,3.49-5.48,6.282l-1.731,5.858
	c-0.566,0.158-1.134,0.309-1.704,0.454l-4.42-4.2c-1.868-1.774-4.337-2.75-6.888-2.75c-0.33,0-0.662,0.016-0.994,0.049
	c-4.602,0.459-9.211,0.459-13.813,0c-2.896-0.288-5.772,0.698-7.881,2.701l-4.42,4.2c-0.57-0.145-1.138-0.296-1.704-0.454
	l-1.731-5.858c-0.825-2.792-2.826-5.086-5.48-6.282c-4.186-1.887-8.195-4.206-11.916-6.89c-2.365-1.706-5.356-2.294-8.192-1.613
	l-5.925,1.427c-0.427-0.417-0.85-0.84-1.267-1.267l1.427-5.925c0.683-2.835,0.094-5.827-1.613-8.192
	c-2.685-3.721-5.003-7.73-6.89-11.916c-1.196-2.654-3.49-4.655-6.282-5.48l-5.858-1.731c-0.158-0.566-0.31-1.134-0.455-1.704
	l4.2-4.42c2.004-2.109,2.99-4.986,2.701-7.881c-0.229-2.301-0.346-4.625-0.346-6.906s0.117-4.605,0.346-6.906
	c0.289-2.895-0.697-5.772-2.701-7.881l-4.2-4.42c0.145-0.57,0.296-1.138,0.454-1.704l5.858-1.731
	c2.792-0.825,5.086-2.826,6.282-5.48c1.887-4.186,4.206-8.195,6.89-11.916c1.707-2.365,2.295-5.357,1.613-8.192l-1.427-5.925
	c0.417-0.427,0.84-0.85,1.267-1.267l5.925,1.427c2.834,0.683,5.827,0.093,8.192-1.613c3.721-2.685,7.73-5.003,11.916-6.89
	c2.654-1.196,4.655-3.49,5.48-6.282l1.731-5.858c0.566-0.158,1.134-0.309,1.704-0.454l4.42,4.2c2.109,2.004,4.985,2.99,7.881,2.701
	c4.602-0.459,9.211-0.459,13.813,0c2.899,0.29,5.772-0.697,7.881-2.701l4.42-4.2c0.57,0.145,1.138,0.296,1.704,0.454l1.731,5.858
	c0.825,2.792,2.826,5.086,5.48,6.282c4.186,1.887,8.195,4.206,11.916,6.89c2.364,1.706,5.357,2.295,8.192,1.613l5.925-1.427
	c0.427,0.417,0.85,0.84,1.267,1.267l-1.427,5.925c-0.683,2.835-0.094,5.827,1.613,8.192c2.685,3.721,5.003,7.73,6.89,11.916
	c1.196,2.654,3.49,4.655,6.282,5.48l5.858,1.731c0.158,0.566,0.309,1.134,0.454,1.704l-4.2,4.42
	C484.889,83.322,483.903,86.199,484.192,89.094z"/>
<g>
</g>
<g>
</g>
<g>
</g>
<g>
</g>
<g>
</g>
<g>
</g>
<g>
</g>
<g>
</g>
<g>
</g>
<g>
</g>
<g>
</g>
<g>
</g>
<g>
</g>
<g>
</g>
<g>
</g>
</svg>
