<?xml version="1.0" encoding="iso-8859-1"?>
<!-- Generator: Adobe Illustrator 19.0.0, SVG Export Plug-In . SVG Version: 6.00 Build 0)  -->
<svg version="1.1" id="Capa_1" xmlns="http://www.w3.org/2000/svg" xmlns:xlink="http://www.w3.org/1999/xlink" x="0px" y="0px"
	 viewBox="0 0 512.001 512.001" style="enable-background:new 0 0 512.001 512.001;" xml:space="preserve">
<circle style="fill:#8CCEEA;" cx="468.01" cy="238.029" r="33.993"/>
<path style="fill:#657FC9;" d="M80.983,10.053c-39.204,0-70.985,31.781-70.985,70.985s31.781,70.985,70.985,70.985
	s70.985-31.781,70.985-70.985S120.186,10.053,80.983,10.053z M80.983,105.033c-13.252,0-23.995-10.743-23.995-23.995
	s10.743-23.995,23.995-23.995s23.995,10.743,23.995,23.995S94.235,105.033,80.983,105.033z"/>
<circle style="fill:#44C5CB;" cx="255.946" cy="381.979" r="119.974"/>
<polygon style="fill:#F4F4F4;" points="267.911,459.919 271.326,446.207 290.274,438.355 302.419,445.655 319.367,428.81 
	312.028,416.601 319.88,397.653 333.843,394.175 333.929,370.391 319.88,366.892 312.028,347.944 319.555,335.422 302.861,318.624 
	290.274,326.19 271.326,318.337 267.762,304.028 244.129,304.028 240.565,318.337 221.617,326.19 209.031,318.624 192.336,335.422 
	199.863,347.944 192.011,366.892 177.962,370.391 178.048,394.175 192.011,397.653 199.863,416.601 192.524,428.81 209.472,445.655 
	221.617,438.355 240.565,446.207 243.98,459.919 "/>
<circle style="fill:#44C5CB;" cx="255.946" cy="381.979" r="21.662"/>
<path d="M80.983,115.031c18.744,0,33.993-15.249,33.993-33.993S99.727,47.045,80.983,47.045S46.99,62.294,46.99,81.038
	S62.239,115.031,80.983,115.031z M80.983,67.041c7.718,0,13.997,6.279,13.997,13.997s-6.279,13.997-13.997,13.997
	s-13.997-6.279-13.997-13.997S73.264,67.041,80.983,67.041z"/>
<path d="M91.536,268.98l-0.289-0.713c-2.071-5.119-7.899-7.59-13.017-5.519c-5.119,2.071-7.589,7.898-5.519,13.017l0.288,0.713
	c1.574,3.891,5.318,6.251,9.272,6.251c1.249,0,2.517-0.235,3.746-0.732C91.135,279.926,93.606,274.098,91.536,268.98z"/>
<path d="M75.774,230.043l-31.012-76.608c10.908,5.48,23.206,8.584,36.221,8.584c44.654,0,80.983-36.328,80.983-80.983
	c0-9.093-1.529-17.83-4.305-25.996l105.274,52.959c1.442,0.726,2.975,1.069,4.485,1.069c3.658,0,7.183-2.016,8.939-5.507
	c2.481-4.933,0.495-10.943-4.438-13.424L136.171,21.847C121.696,8.342,102.294,0.055,80.983,0.055C36.328,0.055,0,36.383,0,81.038
	c0,12.873,3.033,25.046,8.401,35.863c0.006,0.014,0.009,0.029,0.015,0.043l48.822,120.602c1.575,3.889,5.318,6.249,9.271,6.249
	c1.249,0,2.519-0.235,3.748-0.733C75.376,240.991,77.845,235.161,75.774,230.043z M80.983,20.051
	c33.629,0,60.987,27.358,60.987,60.987s-27.358,60.987-60.987,60.987s-60.987-27.358-60.987-60.987S47.354,20.051,80.983,20.051z"/>
<path d="M357.837,462.571c2.062-2.6,4.029-5.279,5.891-8.035l138.257-188.593c1.016-1.235,1.959-2.53,2.838-3.872
	c0.228-0.312,0.431-0.635,0.618-0.963c4.155-6.714,6.561-14.619,6.561-23.078c0-16.843-9.519-31.498-23.456-38.888
	c-0.161-0.092-0.316-0.19-0.484-0.275L353.8,131.326c-4.932-2.479-10.943-0.494-13.425,4.438c-2.48,4.933-0.494,10.944,4.438,13.424
	l101.069,50.843c-13.063,7.636-21.863,21.804-21.863,37.996c0,23.401,18.368,42.587,41.443,43.912l-79.854,108.93
	c0.2-2.94,0.31-5.905,0.31-8.895c0-71.667-58.306-129.972-129.972-129.972c-63.847,0-117.089,46.276-127.948,107.049l-21.643-53.464
	c-2.072-5.119-7.9-7.587-13.018-5.516c-5.118,2.073-7.587,7.901-5.516,13.019l48.066,118.733c0.055,0.135,0.132,0.254,0.191,0.385
	c19.685,46.796,66.001,79.738,119.868,79.738c40.867,0,77.383-18.965,101.226-48.551c0.011,0.013,0.022,0.023,0.033,0.037
	L357.837,462.571z M468.009,262.024c-13.23,0-23.995-10.765-23.995-23.995c0-13.23,10.765-23.995,23.995-23.995
	s23.995,10.765,23.995,23.995c0,4.61-1.31,8.918-3.572,12.578l-2.224,3.032C481.805,258.767,475.283,262.024,468.009,262.024z
	 M255.946,491.95c-60.641,0-109.977-49.336-109.977-109.977s49.336-109.977,109.977-109.977s109.977,49.336,109.977,109.977
	c0,22.558-6.831,43.549-18.527,61.02l-5.545,7.563C321.681,475.77,290.669,491.95,255.946,491.95z"/>
<path d="M302.845,128.077l0.128,0.064c1.439,0.723,2.969,1.064,4.477,1.064c3.662,0,7.188-2.02,8.943-5.515
	c2.477-4.935,0.484-10.944-4.451-13.42l-0.128-0.064c-4.935-2.478-10.944-0.484-13.42,4.451
	C295.916,119.592,297.91,125.599,302.845,128.077z"/>
<path d="M255.946,350.313c-17.457,0-31.66,14.203-31.66,31.66s14.203,31.66,31.66,31.66s31.66-14.203,31.66-31.66
	S273.403,350.313,255.946,350.313z M255.946,393.637c-6.432,0-11.665-5.232-11.665-11.665s5.232-11.664,11.665-11.664
	c6.433,0,11.665,5.232,11.665,11.664S262.377,393.637,255.946,393.637z"/>
<path d="M343.841,394.211l0.086-23.784c0.017-4.604-3.113-8.624-7.581-9.738l-9.159-2.282l-3.993-9.635l4.93-8.201
	c2.359-3.925,1.751-8.951-1.479-12.199l-16.695-16.796c-3.243-3.263-8.296-3.891-12.241-1.521l-8.265,4.968l-9.635-3.993
	l-2.346-9.419c-1.11-4.455-5.111-7.581-9.702-7.581h-23.633c-4.591,0-8.592,3.126-9.702,7.581l-2.346,9.419l-9.635,3.993
	l-8.265-4.968c-3.944-2.372-8.998-1.743-12.241,1.521l-16.695,16.796c-3.228,3.248-3.837,8.274-1.479,12.199l4.93,8.201
	l-3.993,9.635l-9.159,2.282c-4.467,1.113-7.597,5.133-7.581,9.738l0.086,23.784c0.017,4.577,3.139,8.559,7.581,9.665l9.073,2.261
	l3.993,9.635l-4.741,7.887c-2.371,3.944-1.744,8.997,1.521,12.241l16.947,16.845c3.248,3.228,8.274,3.838,12.199,1.479l7.823-4.703
	l9.635,3.993l2.198,8.821c1.11,4.455,5.111,7.581,9.702,7.581h23.931c4.591,0,8.591-3.126,9.702-7.581l2.198-8.821l9.635-3.993
	l7.823,4.703c3.925,2.359,8.951,1.75,12.199-1.479l16.947-16.845c3.264-3.244,3.892-8.297,1.521-12.241l-4.741-7.887l3.993-9.635
	l9.073-2.261C340.701,402.769,343.824,398.788,343.841,394.211z M323.873,386.356l-6.411,1.598c-3.075,0.766-5.606,2.945-6.82,5.874
	l-7.852,18.948c-1.214,2.929-0.966,6.261,0.667,8.978l3.301,5.492l-5.865,5.831l-5.47-3.288c-2.717-1.633-6.049-1.881-8.978-0.667
	l-18.948,7.852c-2.928,1.214-5.107,3.744-5.874,6.82l-1.527,6.131h-8.305l-1.527-6.131c-0.767-3.075-2.945-5.606-5.874-6.82
	l-18.948-7.852c-2.93-1.214-6.262-0.966-8.978,0.667l-5.47,3.288l-5.865-5.831l3.301-5.492c1.634-2.717,1.881-6.049,0.667-8.978
	l-7.852-18.948c-1.214-2.928-3.744-5.107-6.82-5.874l-6.411-1.598l-0.029-8.158l6.44-1.604c3.075-0.767,5.606-2.945,6.82-5.874
	l7.852-18.948c1.214-2.929,0.966-6.262-0.667-8.979l-3.515-5.847l5.68-5.714l5.869,3.527c2.717,1.633,6.049,1.882,8.978,0.667
	l18.948-7.852c2.928-1.214,5.107-3.744,5.874-6.82l1.676-6.728h8.007l1.676,6.728c0.767,3.076,2.945,5.606,5.874,6.82l18.948,7.852
	c2.93,1.214,6.261,0.966,8.978-0.667l5.869-3.527l5.68,5.714l-3.515,5.847c-1.634,2.717-1.881,6.05-0.667,8.979l7.852,18.948
	c1.214,2.928,3.744,5.107,6.82,5.874l6.44,1.604L323.873,386.356z"/>
<g>
</g>
<g>
</g>
<g>
</g>
<g>
</g>
<g>
</g>
<g>
</g>
<g>
</g>
<g>
</g>
<g>
</g>
<g>
</g>
<g>
</g>
<g>
</g>
<g>
</g>
<g>
</g>
<g>
</g>
</svg>
