<?xml version="1.0" encoding="iso-8859-1"?>
<!-- Generator: Adobe Illustrator 19.0.0, SVG Export Plug-In . SVG Version: 6.00 Build 0)  -->
<svg version="1.1" id="Capa_1" xmlns="http://www.w3.org/2000/svg" xmlns:xlink="http://www.w3.org/1999/xlink" x="0px" y="0px"
	 viewBox="0 0 512 512" style="enable-background:new 0 0 512 512;" xml:space="preserve">
<path style="fill:#F4F4F4;" d="M495.86,158.748l-142.61-142.61c-8.204-8.204-21.506-8.204-29.71,0L166.076,173.604l25.254,25.254
	l36.963-22.107L335.25,283.708l-22.107,36.963l25.254,25.254L495.86,188.458C504.065,180.254,504.065,166.952,495.86,158.748z"/>
<circle style="fill:#657FC9;" cx="336.076" cy="175.918" r="76.804"/>
<circle style="fill:#F4F4F4;" cx="336.076" cy="175.918" r="33.614"/>
<path style="fill:#AAEBF2;" d="M501.43,178.433c1.612-6.848-0.229-14.345-5.569-19.685l-142.61-142.61
	c-8.204-8.204-21.505-8.204-29.709,0L304.229,35.45l170.092,170.092L501.43,178.433z"/>
<path style="fill:#6EA3D3;" d="M173.503,397.916l137.977-137.977l-59.421-59.421L114.082,338.495l-16.341-16.341
	c-4.102-4.102-10.754-4.102-14.855,0l-69.819,69.819c-4.102,4.102-4.102,10.754,0,14.855l92.102,92.102
	c4.102,4.102,10.754,4.102,14.855,0l69.819-69.819c4.102-4.102,4.102-10.753,0-14.855L173.503,397.916z"/>
<circle style="fill:#FDB954;" cx="101.455" cy="410.539" r="25.211"/>
<path d="M502.933,151.676L502.933,151.676L360.322,9.067c-12.091-12.09-31.763-12.089-43.853,0l-19.308,19.308
	c-0.001,0.001-0.003,0.003-0.004,0.004s-0.003,0.003-0.004,0.004L159.005,166.531c-3.905,3.905-3.905,10.237,0,14.144l25.253,25.253
	c3.241,3.241,8.27,3.863,12.205,1.511l30.271-18.105l11.184,11.184l-21.197,21.197c-3.905,3.905-3.905,10.237,0,14.144
	c1.953,1.953,4.512,2.929,7.071,2.929s5.119-0.976,7.071-2.929l21.197-21.197l22.629,22.629c0.003,0.003,0.006,0.007,0.009,0.01
	s0.007,0.006,0.01,0.009l22.629,22.629L166.431,390.845c-3.905,3.905-3.905,10.237,0,14.144l16.341,16.341
	c0.197,0.196,0.197,0.516,0,0.712l-69.819,69.819c-0.196,0.197-0.516,0.197-0.712,0l-92.101-92.102
	c-0.197-0.196-0.197-0.516,0-0.712l69.819-69.819c0.04-0.041,0.147-0.148,0.356-0.148c0.209,0,0.316,0.107,0.356,0.148
	l16.341,16.341c3.905,3.905,10.237,3.905,14.144,0l48.206-48.206c3.905-3.905,3.905-10.237,0-14.144
	c-3.905-3.904-10.237-3.904-14.144,0l-41.135,41.135l-9.269-9.269c-7.995-7.994-21.003-7.994-28.998,0l-69.818,69.82
	c-7.994,7.994-7.994,21.003,0,28.998l92.102,92.102c3.997,3.997,9.248,5.996,14.499,5.996s10.501-1.999,14.5-5.996l69.819-69.819
	c3.873-3.873,6.005-9.021,6.005-14.499c0-5.477-2.133-10.625-6.005-14.5l-9.269-9.269l123.835-123.835l11.184,11.184l-18.105,30.271
	c-2.353,3.934-1.73,8.963,1.511,12.205l25.253,25.253c1.953,1.953,4.512,2.929,7.071,2.929s5.119-0.976,7.071-2.929L502.933,195.53
	C515.022,183.44,515.022,163.767,502.933,151.676z M223.159,168.167l-30.271,18.105l-12.669-12.669l124.01-124.01l39.941,39.941
	c-24.841-2.305-50.492,6.026-69.47,25.004c-18.978,18.979-27.309,44.63-25.004,69.471l-14.332-14.332
	C232.122,166.437,227.093,165.814,223.159,168.167z M288.843,223.157c-26.047-26.046-26.047-68.428,0-94.475
	c13.023-13.024,30.13-19.536,47.237-19.536s34.215,6.512,47.237,19.536c26.047,26.046,26.047,68.428,0,94.475
	C357.271,249.204,314.889,249.204,288.843,223.157z M338.396,331.781l-12.669-12.669l18.105-30.271
	c2.353-3.934,1.73-8.963-1.511-12.205l-14.332-14.332c2.691,0.25,5.39,0.38,8.09,0.38c22.229,0,44.458-8.461,61.381-25.384
	c18.978-18.979,27.309-44.63,25.004-69.471l39.941,39.941L338.396,331.781z M488.789,181.387l-12.241,12.241L318.372,35.45
	l12.241-12.241c4.291-4.292,11.276-4.292,15.567,0l142.61,142.61C493.081,170.111,493.081,177.095,488.789,181.387z"/>
<path d="M366.919,206.759c8.237-8.237,12.775-19.19,12.775-30.839s-4.537-22.602-12.774-30.839
	c-8.237-8.237-19.19-12.775-30.839-12.775s-22.602,4.537-30.839,12.774c-8.237,8.237-12.775,19.19-12.775,30.839
	s4.537,22.602,12.774,30.839c8.237,8.237,19.19,12.775,30.839,12.775S358.682,214.996,366.919,206.759z M312.467,175.92
	c0-6.307,2.456-12.237,6.916-16.697c4.459-4.459,10.389-6.916,16.697-6.916s12.237,2.456,16.697,6.916
	c4.459,4.459,6.916,10.389,6.916,16.697s-2.456,12.237-6.916,16.697l0,0c-4.459,4.459-10.389,6.916-16.697,6.916
	s-12.237-2.456-16.697-6.916C314.923,188.156,312.467,182.227,312.467,175.92z"/>
<path d="M76.558,385.645c-13.729,13.729-13.729,36.067,0,49.795c6.864,6.864,15.881,10.296,24.897,10.296
	c9.017,0,18.034-3.432,24.898-10.296c13.729-13.729,13.729-36.067,0-49.795C112.625,371.918,90.287,371.917,76.558,385.645z
	 M112.21,421.298c-5.93,5.931-15.58,5.93-21.509,0c-5.93-5.93-5.93-15.58,0-21.509c2.965-2.965,6.859-4.448,10.755-4.448
	s7.789,1.482,10.755,4.448C118.141,405.718,118.141,415.368,112.21,421.298z"/>
<path d="M202.36,264.357c1.86-1.86,2.93-4.44,2.93-7.07c0-2.63-1.07-5.21-2.93-7.07c-1.86-1.86-4.44-2.93-7.07-2.93
	c-2.63,0-5.21,1.07-7.07,2.93c-1.86,1.86-2.93,4.44-2.93,7.07c0,2.63,1.07,5.21,2.93,7.07c1.86,1.86,4.44,2.93,7.07,2.93
	C197.919,267.287,200.499,266.217,202.36,264.357z"/>
<g>
</g>
<g>
</g>
<g>
</g>
<g>
</g>
<g>
</g>
<g>
</g>
<g>
</g>
<g>
</g>
<g>
</g>
<g>
</g>
<g>
</g>
<g>
</g>
<g>
</g>
<g>
</g>
<g>
</g>
</svg>
