<?xml version="1.0" encoding="iso-8859-1"?>
<!-- Generator: Adobe Illustrator 19.0.0, SVG Export Plug-In . SVG Version: 6.00 Build 0)  -->
<svg version="1.1" id="Capa_1" xmlns="http://www.w3.org/2000/svg" xmlns:xlink="http://www.w3.org/1999/xlink" x="0px" y="0px"
	 viewBox="0 0 512 512" style="enable-background:new 0 0 512 512;" xml:space="preserve">
<rect x="74" y="265" style="fill:#657FC9;" width="30" height="80"/>
<path style="fill:#F25353;" d="M42,387.659V223.532c0-8.837-7.163-16-16-16l0,0c-8.837,0-16,7.163-16,16v164.127
	c0,8.837,7.163,16,16,16l0,0C34.837,403.659,42,396.496,42,387.659z"/>
<polygon style="fill:#8CCEEA;" points="417.013,179 180.667,179 148.333,211.333 104,211.333 104,376.789 158.212,431 354.5,431 
	376,409.5 448,409.5 448,209.987 "/>
<path style="fill:#F25353;" d="M171,81c-13.255,0-24,10.745-24,24l0,0c0,13.255,10.745,24,24,24h210c13.255,0,24-10.745,24-24l0,0
	c0-13.255-10.745-24-24-24H171z"/>
<path d="M277,91c2.63,0,5.21-1.07,7.069-2.93C285.93,86.21,287,83.63,287,81s-1.07-5.21-2.931-7.07C282.21,72.07,279.63,71,277,71
	c-2.641,0-5.21,1.07-7.07,2.93C268.07,75.79,267,78.37,267,81s1.069,5.21,2.93,7.07S274.37,91,277,91z"/>
<path d="M502,225.127c-5.522,0-10,4.477-10,10V295h-34v-85.013c0-2.652-1.054-5.196-2.929-7.071l-30.986-30.987
	c-1.876-1.875-4.419-2.929-7.071-2.929H326v-30h55c18.748,0,34-15.252,34-34s-15.252-34-34-34h-56c-5.522,0-10,4.477-10,10
	s4.478,10,10,10h56c7.72,0,14,6.28,14,14s-6.28,14-14,14h-65h-80h-65c-7.72,0-14-6.28-14-14s6.28-14,14-14h60.5
	c5.522,0,10-4.477,10-10s-4.478-10-10-10H171c-18.748,0-34,15.252-34,34s15.252,34,34,34h55v30h-45.333
	c-2.652,0-5.195,1.054-7.071,2.929l-29.404,29.405H104c-5.522,0-10,4.477-10,10V255H74c-5.522,0-10,4.477-10,10v30H52v-71.467
	c0-14.336-11.663-26-26-26s-26,11.664-26,26V387.66c0,14.336,11.663,26,26,26s26-11.664,26-26V315h12v30c0,5.523,4.478,10,10,10h20
	v21.789c0,2.652,1.054,5.196,2.929,7.071l54.212,54.211c1.876,1.875,4.419,2.929,7.071,2.929H354.5c2.652,0,5.195-1.054,7.071-2.929
	l18.571-18.571H448c5.522,0,10-4.477,10-10V315h34v60.127c0,5.523,4.478,10,10,10s10-4.477,10-10v-140
	C512,229.604,507.522,225.127,502,225.127z M26,393.66c-3.309,0-6-2.691-6-6V223.533c0-3.309,2.691-6,6-6s6,2.691,6,6v81.216
	c-0.002,0.084-0.002,0.418,0,0.503v82.408C32,390.968,29.309,393.66,26,393.66z M246,139h60v30h-60V139z M84,335v-60h10v60H84z
	 M438,399.5h-62c-2.652,0-5.195,1.054-7.071,2.929L350.357,421H162.354L114,372.646V221.333h34.333c2.652,0,5.195-1.054,7.071-2.929
	L184.81,189h228.062L438,214.129V399.5z"/>
<path d="M328,377c-2.63,0-5.21,1.07-7.07,2.93c-1.86,1.86-2.93,4.44-2.93,7.07s1.069,5.21,2.93,7.07S325.37,397,328,397
	s5.21-1.07,7.069-2.93c1.86-1.86,2.931-4.44,2.931-7.07s-1.07-5.21-2.931-7.07C333.21,378.07,330.63,377,328,377z"/>
<path d="M287.333,377h-92.392l-42.283-42.283c-3.906-3.905-10.236-3.905-14.143,0c-3.905,3.905-3.905,10.237,0,14.142l45.212,45.211
	c1.876,1.875,4.419,2.929,7.071,2.929h96.534c5.522,0,10-4.477,10-10S292.855,377,287.333,377z"/>
<g>
</g>
<g>
</g>
<g>
</g>
<g>
</g>
<g>
</g>
<g>
</g>
<g>
</g>
<g>
</g>
<g>
</g>
<g>
</g>
<g>
</g>
<g>
</g>
<g>
</g>
<g>
</g>
<g>
</g>
</svg>
