<svg xmlns="http://www.w3.org/2000/svg" viewBox="0 0 512 512">
  <circle cx="242.087" cy="269.909" r="232.093" fill="#d0e6ef"/>
  <circle cx="242.087" cy="269.909" r="112.045" fill="#f4f4f4"/>
  <g fill="#fe947c">
    <circle cx="292.128" cy="269.909" r="20.008"/>
    <circle cx="192.047" cy="269.909" r="20.008"/>
    <circle cx="242.087" cy="319.949" r="20.008"/>
    <circle cx="242.087" cy="219.869" r="20.008"/>
  </g>
  <path d="M242.088 20.015v137.85c61.881 0 112.045 50.164 112.045 112.045h137.851c5.69 0 10.227-4.742 10.003-10.428-5.337-135.357-114.113-244.134-249.471-249.47-5.686-.225-10.428 4.312-10.428 10.003z" fill="#f25353"/>
  <path d="M84.978 426.882c-3.897-3.918-10.231-3.934-14.148-.039-3.918 3.897-3.935 10.23-.039 14.148l.178.179a9.973 9.973 0 007.093 2.949c2.551 0 5.103-.97 7.055-2.911 3.918-3.897 3.935-10.23.039-14.148l-.178-.178zM292.129 239.899c-16.549 0-30.012 13.463-30.012 30.012s13.463 30.012 30.012 30.012 30.012-13.463 30.012-30.012-13.464-30.012-30.012-30.012zm0 40.016c-5.516 0-10.004-4.488-10.004-10.004s4.488-10.004 10.004-10.004c5.516 0 10.004 4.488 10.004 10.004s-4.488 10.004-10.004 10.004zM222.06 269.911c0-16.549-13.463-30.012-30.012-30.012s-30.012 13.463-30.012 30.012 13.463 30.012 30.012 30.012 30.012-13.464 30.012-30.012zm-30.012 10.004c-5.516 0-10.004-4.488-10.004-10.004s4.488-10.004 10.004-10.004c5.516 0 10.004 4.488 10.004 10.004s-4.488 10.004-10.004 10.004zM242.088 289.939c-16.549 0-30.012 13.463-30.012 30.012s13.463 30.012 30.012 30.012S272.1 336.5 272.1 319.951s-13.463-30.012-30.012-30.012zm0 40.016c-5.516 0-10.004-4.488-10.004-10.004 0-5.516 4.488-10.004 10.004-10.004 5.516 0 10.004 4.488 10.004 10.004 0 5.516-4.487 10.004-10.004 10.004zM242.088 249.883c16.549 0 30.012-13.463 30.012-30.012s-13.463-30.012-30.012-30.012-30.012 13.463-30.012 30.012 13.464 30.012 30.012 30.012zm0-40.016c5.516 0 10.004 4.488 10.004 10.004 0 5.516-4.488 10.004-10.004 10.004-5.516 0-10.004-4.488-10.004-10.004 0-5.517 4.488-10.004 10.004-10.004z"/>
  <path d="M433.084 78.915C384.885 30.717 320.898 2.696 252.911.015a20.15 20.15 0 00-14.685 5.578c-3.961 3.808-6.141 8.929-6.141 14.422v8.019C171.176 30.503 114.222 55.399 70.9 98.722c-39.536 39.536-64.306 91.9-69.748 147.448-5.368 54.788 8.167 110.195 38.114 156.016a9.994 9.994 0 008.383 4.532 9.947 9.947 0 005.463-1.631c4.625-3.022 5.923-9.222 2.901-13.847-57.103-87.372-44.892-204.444 29.035-278.37 39.546-39.546 91.474-62.356 147.037-64.811v100.215c-62.636 5.106-112.045 57.707-112.045 121.637 0 67.298 54.751 122.049 122.049 122.049 63.93 0 116.531-49.409 121.637-112.045h100.215c-2.456 55.562-25.267 107.492-64.812 147.037-74.182 74.184-191.518 86.22-278.997 28.622-4.615-3.038-10.818-1.761-13.858 2.854-3.038 4.614-1.761 10.818 2.854 13.857C148.532 498.23 195.065 512 242.253 512c7.717 0 15.46-.369 23.183-1.112 55.7-5.366 108.205-30.151 147.84-69.787 43.321-43.321 68.219-100.277 70.688-161.185h8.019c5.492 0 10.613-2.181 14.421-6.141a20.148 20.148 0 005.578-14.685c-2.679-67.989-30.699-131.976-78.898-180.175zM242.088 371.952c-56.266 0-102.041-45.775-102.041-102.041S185.823 167.87 242.088 167.87s102.041 45.775 102.041 102.041-45.775 102.041-102.041 102.041zm121.643-112.045l-.005.011c-4.832-59.345-52.3-106.813-111.645-111.645l.011-.005V20.015l.03-.007c129.404 5.102 234.766 110.465 239.863 239.899H363.731z"/>
  <path d="M73.331 225.892a9.994 9.994 0 003.077.487 10.01 10.01 0 009.518-6.932l.293-.897c1.726-5.249-1.131-10.902-6.38-12.628-5.251-1.726-10.902 1.131-12.628 6.38l-.324.995c-1.699 5.258 1.187 10.897 6.444 12.595zM71.548 306.294c5.46-.842 9.204-5.952 8.361-11.413l-.137-.913c-.801-5.467-5.882-9.25-11.349-8.448-5.466.8-9.25 5.881-8.448 11.349l.16 1.064c.762 4.943 5.023 8.48 9.875 8.48a10.184 10.184 0 001.538-.119zM108.359 364.982l-.536-.757c-3.177-4.52-9.418-5.607-13.938-2.43-4.52 3.177-5.607 9.418-2.43 13.938l.621.876a9.993 9.993 0 008.149 4.192 9.951 9.951 0 005.805-1.864c4.496-3.211 5.539-9.458 2.329-13.955zM118.082 157.756a9.977 9.977 0 007.126-2.981l.66-.666c3.903-3.912 3.897-10.245-.015-14.148-3.912-3.904-10.245-3.897-14.149.014l-.747.754c-3.879 3.936-3.833 10.269.103 14.148a9.975 9.975 0 007.022 2.879zM315.881 437.621c1.42 0 2.861-.304 4.232-.944l.971-.458c4.988-2.376 7.105-8.346 4.728-13.334-2.376-4.987-8.346-7.104-13.334-4.728l-.841.397c-5.005 2.341-7.164 8.295-4.823 13.3a10.004 10.004 0 009.067 5.767zM238.048 453.942l.209.002c5.429 0 9.886-4.345 9.998-9.798.113-5.523-4.273-10.094-9.796-10.208l-.923-.022c-5.506-.176-10.125 4.198-10.279 9.721s4.198 10.125 9.721 10.279l1.07.026zM186.078 115.055a9.986 9.986 0 003.212-.532l.907-.305c5.241-1.75 8.071-7.417 6.322-12.657-1.751-5.241-7.418-8.07-12.657-6.322l-.995.334c-5.232 1.774-8.036 7.454-6.263 12.686a10.01 10.01 0 009.474 6.796zM155.874 432.586a10.008 10.008 0 0013.528-4.146c2.59-4.88.733-10.936-4.147-13.526l-.833-.445c-4.867-2.616-10.932-.792-13.548 4.075s-.792 10.932 4.075 13.548l.925.494zM412.651 314.908c4.657 0 8.828-3.27 9.793-8.01l.206-1.024c1.077-5.419-2.442-10.685-7.861-11.763-5.419-1.079-10.685 2.442-11.763 7.861l-.188.934c-1.102 5.414 2.393 10.696 7.807 11.799.673.137 1.345.203 2.006.203zM378.772 387.704a9.988 9.988 0 007.854-3.8l.667-.851c3.391-4.362 2.604-10.647-1.759-14.038-4.361-3.39-10.647-2.603-14.038 1.759l-.566.721c-3.426 4.335-2.691 10.625 1.643 14.052a9.964 9.964 0 006.199 2.157zM426.164 177.138a10.003 10.003 0 0013.467 4.337c4.917-2.521 6.858-8.55 4.337-13.466l-.041-.081c-2.471-4.942-8.478-6.944-13.422-4.474-4.942 2.471-6.945 8.48-4.474 13.422l.133.262zM302.678 52.03c-5.325-1.48-10.837 1.641-12.315 6.965-1.478 5.324 1.641 10.837 6.965 12.315 43.013 11.937 81.677 38.189 108.868 73.923a9.988 9.988 0 007.968 3.947 9.958 9.958 0 006.05-2.043c4.397-3.346 5.249-9.623 1.903-14.02-29.821-39.192-72.239-67.989-119.439-81.087z"/>
</svg>
