<svg xmlns="http://www.w3.org/2000/svg" viewBox="0 0 512 512">
  <g fill="#8cceea">
    <path d="M10 50.081h204v204H10zM462 317.921h40v144h-40z"/>
  </g>
  <path d="M406.492 321.753c7.445-21.177 11.508-43.948 11.508-67.67 0-112.666-91.334-204-204-204s-204 91.334-204 204c0 111.498 89.454 202.089 200.507 203.956l-.052.044H462v-136.33h-55.508z" fill="#d0e6ef"/>
  <g fill="#657fc9">
    <circle cx="214" cy="254.081" r="100"/>
    <circle cx="214" cy="254.081" r="24"/>
  </g>
  <path d="M502 307.919h-40a9.974 9.974 0 00-7.863 3.835H420.13c5.22-18.695 7.871-38.081 7.871-57.671 0-57.162-22.26-110.901-62.679-151.321C324.901 62.343 271.161 40.083 214 40.083H10c-5.522 0-10 4.477-10 10s4.478 10 10 10h113.422c-22.289 10.423-42.827 24.763-60.743 42.679C22.26 143.182 0 196.922 0 254.083s22.26 110.901 62.679 151.321c39.334 39.334 91.285 61.463 146.725 62.623.345.036.695.056 1.05.056h243.683a9.974 9.974 0 007.863 3.835h40c5.522 0 10-4.477 10-10v-144c0-5.522-4.478-9.999-10-9.999zM20 254.083c0-106.972 87.028-194 194-194s194 87.028 194 194c0 18.651-2.641 37.091-7.847 54.807a9.975 9.975 0 00-.403 2.864h-27.749c-5.522 0-10 4.477-10 10s4.478 10 10 10H452v116.329H214c-106.972 0-194-87.028-194-194zm472 197.836h-20v-124h20v124z"/>
  <path d="M214 364.083c40.395 0 75.768-21.891 94.895-54.428.126-.188.264-.365.379-.565.14-.242.261-.49.378-.739C318.779 292.328 324 273.805 324 254.083s-5.221-38.245-14.347-54.268a10.089 10.089 0 00-.378-.739 9.98 9.98 0 00-.53-.819C289.583 165.86 254.29 144.083 214 144.083c-60.654 0-110 49.346-110 110s49.346 110 110 110zm-72.427-56.638l49.304-28.466a34.018 34.018 0 0013.122 7.601v56.944c-25.541-2.836-47.89-16.402-62.426-36.079zM214 240.083c7.72 0 14 6.28 14 14s-6.28 14-14 14-14-6.28-14-14 6.28-14 14-14zm90 14a89.467 89.467 0 01-7.548 36.057l-49.316-28.472a33.93 33.93 0 00.864-7.585 33.93 33.93 0 00-.864-7.585l49.316-28.472A89.47 89.47 0 01304 254.083zm-80 89.441V286.58a34.005 34.005 0 0013.122-7.601l49.304 28.466c-14.535 19.677-36.884 33.243-62.426 36.079zm62.427-142.803l-49.304 28.466a34.018 34.018 0 00-13.122-7.601v-56.944c25.541 2.836 47.89 16.402 62.426 36.079zM204 164.642v56.944a34.005 34.005 0 00-13.122 7.601l-49.305-28.466c14.536-19.677 36.885-33.243 62.427-36.079zm-72.452 53.383l49.316 28.472a33.93 33.93 0 00-.864 7.585c0 2.608.305 5.144.864 7.585l-49.316 28.472A89.484 89.484 0 01124 254.082a89.478 89.478 0 017.548-36.057zM187.14 405.695c-51.456-9.05-94.408-43.243-114.896-91.467-2.161-5.083-8.031-7.453-13.114-5.293s-7.453 8.031-5.294 13.114c11.2 26.363 28.979 49.807 51.412 67.799 22.727 18.227 49.846 30.518 78.427 35.544a10.07 10.07 0 001.744.153c4.764 0 8.983-3.416 9.837-8.269.957-5.44-2.677-10.625-8.116-11.581zM55.156 296.083c5.418-1.073 8.94-6.335 7.867-11.752l-.171-.868c-1.053-5.421-6.3-8.958-11.723-7.911-5.422 1.053-8.963 6.301-7.91 11.723l.185.941c.943 4.762 5.122 8.059 9.799 8.059a9.952 9.952 0 001.953-.192zM337 331.753c2.63 0 5.21-1.07 7.069-2.93 1.86-1.86 2.931-4.44 2.931-7.07s-1.07-5.21-2.931-7.07c-1.859-1.86-4.439-2.93-7.069-2.93s-5.21 1.07-7.07 2.93c-1.86 1.86-2.93 4.44-2.93 7.07s1.069 5.21 2.93 7.07a10.077 10.077 0 007.07 2.93z"/>
</svg>
