<svg xmlns="http://www.w3.org/2000/svg" viewBox="0 0 512 512">
  <g fill="#8cceea">
    <path d="M462 124h40v50h-40zM368.075 472.5V395c0-27.614-22.386-50-50-50H90.561c-17.003 0-30.787-13.784-30.787-30.787V199.537c0-17.003 13.784-30.787 30.787-30.787h13.678l-.479-50.001H60.787C32.738 118.75 10 141.488 10 169.537v174.677C10 372.262 32.738 395 60.787 395H288c16.569 0 30 13.431 30 30v47.5h50.075z"/>
  </g>
  <path d="M452.501 261H113.499a9.5 9.5 0 01-9.499-9.499V46.499A9.5 9.5 0 01113.499 37h339.003a9.5 9.5 0 019.499 9.499v205.003c-.001 5.245-4.254 9.498-9.5 9.498z" fill="#44c5cb"/>
  <path d="M502 114h-30V46.499C472 35.747 463.253 27 452.501 27H113.499C102.747 27 94 35.747 94 46.499v62.251H60.786C27.269 108.75 0 136.019 0 169.537v174.677C0 377.731 27.269 405 60.787 405H288c11.028 0 20 8.972 20 20v40h-15.667c-5.522 0-10 4.477-10 10s4.478 10 10 10H407c5.522 0 10-4.477 10-10s-4.478-10-10-10h-28.925v-70c0-33.084-26.916-60-60-60H90.562c-11.462 0-20.787-9.325-20.787-20.787V199.538c0-11.462 9.325-20.787 20.787-20.787H94v72.75C94 262.253 102.747 271 113.499 271h339.002c10.752 0 19.499-8.747 19.499-19.499V184h30c5.522 0 10-4.477 10-10v-50c0-5.523-4.478-10-10-10zM90.562 158.751c-22.49 0-40.787 18.297-40.787 40.787v114.676c0 22.49 18.297 40.787 40.787 40.787h227.514c22.056 0 40 17.944 40 40v70H328v-40c0-22.056-17.944-40-40-40H60.787C38.297 385 20 366.703 20 344.213V169.537c0-22.49 18.297-40.787 40.786-40.787H94v30.001h-3.438zM452 251H114V47h338v204zm40-87h-20v-30h20v30z"/>
  <path d="M251.33 465c-2.63 0-5.21 1.07-7.07 2.93s-2.93 4.44-2.93 7.07 1.069 5.21 2.93 7.07c1.87 1.86 4.44 2.93 7.07 2.93s5.21-1.07 7.069-2.93c1.86-1.86 2.931-4.44 2.931-7.07s-1.07-5.21-2.931-7.07a10.072 10.072 0 00-7.069-2.93zM366.333 215H159c-5.522 0-10 4.477-10 10s4.478 10 10 10h207.333c5.522 0 10-4.477 10-10s-4.478-10-10-10zM407 215c-2.63 0-5.21 1.07-7.07 2.93-1.86 1.86-2.93 4.44-2.93 7.07s1.069 5.21 2.93 7.07S404.37 235 407 235s5.21-1.07 7.069-2.93c1.86-1.86 2.931-4.44 2.931-7.07s-1.07-5.21-2.931-7.07A10.072 10.072 0 00407 215z"/>
</svg>
