<svg xmlns="http://www.w3.org/2000/svg" viewBox="0 0 511.859 511.859">
  <path d="M215.844 298.324l33.031 33.031h25.099l105.743 105.743 4.11 12.007a10.462 10.462 0 009.898 7.074h11.348l2.111 10.951a10.461 10.461 0 0010.272 8.481h11.499v8.134a10.46 10.46 0 008.818 10.331l47.77 7.597c9.447 1.502 17.607-6.657 16.104-16.104l-7.597-47.77a10.461 10.461 0 00-10.331-8.818h-8.134v-11.499c0-5.014-3.558-9.323-8.481-10.272l-10.951-2.111v-11.348c0-4.472-2.843-8.449-7.074-9.898l-12.007-4.11-105.745-105.742v-25.099l-33.031-33.031-82.452 82.453z" fill="#c9f3ff"/>
  <path d="M78.715 78.686c-49.029 49.029-49.029 128.519 0 177.548l77.375 77.375c6.296 6.296 16.503 6.296 22.799 0L333.637 178.86c6.296-6.296 6.296-16.503 0-22.799l-77.375-77.375c-49.028-49.028-128.519-49.028-177.547 0z" fill="#898998"/>
  <circle cx="180.479" cy="180.45" r="48.24" fill="#686c83"/>
  <path d="M180.478 122.21c-15.556 0-30.182 6.058-41.182 17.058-22.707 22.708-22.707 59.656 0 82.365 11.355 11.355 26.267 17.032 41.183 17.031 14.912-.001 29.829-5.678 41.182-17.031 11-11 17.059-25.626 17.059-41.183s-6.059-30.182-17.059-41.182c-11-11-25.626-17.058-41.183-17.058zm27.04 85.28c-14.91 14.91-39.169 14.91-54.079 0-14.91-14.91-14.91-39.17 0-54.081 7.223-7.223 16.825-11.2 27.039-11.2 10.215 0 19.817 3.978 27.04 11.2 7.224 7.223 11.201 16.825 11.201 27.04s-3.977 19.818-11.201 27.041z"/>
  <path d="M180.475 170.451c-2.63 0-5.21 1.07-7.069 2.93a10.077 10.077 0 00-2.931 7.07c0 2.63 1.07 5.21 2.931 7.07a10.072 10.072 0 007.069 2.93c2.641 0 5.21-1.07 7.08-2.93a10.077 10.077 0 002.931-7.07c0-2.63-1.07-5.21-2.931-7.07a10.093 10.093 0 00-7.08-2.93zM378.385 331.06c2.63 0 5.21-1.07 7.07-2.93 1.87-1.86 2.93-4.44 2.93-7.07s-1.06-5.21-2.93-7.07c-1.86-1.86-4.44-2.93-7.07-2.93s-5.21 1.07-7.07 2.93c-1.859 1.86-2.93 4.44-2.93 7.07s1.07 5.21 2.93 7.07a10.073 10.073 0 007.07 2.93z"/>
  <path d="M511.523 483.999l-7.598-47.769c-1.49-9.374-9.059-16.337-18.342-17.165v-1.583c0-9.79-6.977-18.239-16.588-20.091l-2.845-.548v-3.091c0-8.746-5.56-16.526-13.835-19.358l-9.814-3.359-29.158-29.159c-3.904-3.905-10.234-3.905-14.143 0-3.905 3.905-3.905 10.237 0 14.142l30.798 30.798a10 10 0 003.833 2.39l12.007 4.11a.46.46 0 01.313.437v11.348c0 4.793 3.4 8.912 8.106 9.819l10.953 2.111a.462.462 0 01.373.453v11.5c0 5.523 4.478 10 10 10h8.135a.46.46 0 01.455.389l7.598 47.769c.283 1.783-.594 2.969-1.142 3.517-.548.548-1.731 1.426-3.517 1.141l-47.77-7.597a.46.46 0 01-.389-.456v-8.134c0-5.523-4.478-10-10-10h-11.499a.462.462 0 01-.453-.375l-2.111-10.951a10 10 0 00-9.819-8.107h-11.348a.463.463 0 01-.437-.312l-4.109-12.007a10.013 10.013 0 00-2.39-3.833L281.046 324.284a10.003 10.003 0 00-7.071-2.929h-20.957l-23.866-23.866 27.084-27.084 164.502 164.503a9.968 9.968 0 007.071 2.929 9.97 9.97 0 007.071-2.929c3.905-3.905 3.905-10.237 0-14.142L270.377 256.262l27.084-27.084 23.866 23.866-.001 20.957c0 2.652 1.054 5.196 2.929 7.072l18.358 18.358c1.953 1.953 4.512 2.929 7.071 2.929s5.118-.977 7.071-2.929c3.905-3.905 3.905-10.237 0-14.142l-15.43-15.429.001-20.957c0-2.652-1.054-5.196-2.929-7.072l-26.795-26.795 29.105-29.105c10.185-10.185 10.185-26.757 0-36.942l-77.375-77.375c-36.03-36.03-87.462-47.487-133.297-34.39a68.472 68.472 0 00-12.483-17.088c-26.852-26.849-70.539-26.849-97.389 0s-26.85 70.538 0 97.388a68.59 68.59 0 0017.088 12.483c-13.097 45.835-1.64 97.267 34.39 133.297l77.375 77.375c5.093 5.092 11.781 7.638 18.471 7.638s13.378-2.546 18.471-7.638l29.049-29.049 26.795 26.795a10.003 10.003 0 007.071 2.929h20.957L371.007 442.53l3.359 9.813a20.461 20.461 0 0019.358 13.835h3.092l.548 2.844c1.854 9.612 10.303 16.588 20.092 16.588h1.582c.829 9.283 7.792 16.851 17.165 18.342l47.769 7.597c1.3.207 2.595.309 3.878.309 6.323 0 12.337-2.474 16.922-7.059 5.515-5.514 7.976-13.096 6.751-20.8zM34.307 103.383c-19.052-19.052-19.052-50.052 0-69.104 19.052-19.051 50.052-19.051 69.104-.001a48.907 48.907 0 017.66 9.936c-14.294 6.525-27.68 15.654-39.427 27.4-11.747 11.746-20.875 25.133-27.4 39.426a48.757 48.757 0 01-9.937-7.657zm137.51 223.154a6.127 6.127 0 01-8.656 0l-77.375-77.375c-30.464-30.464-40.321-73.845-29.585-112.675a69.381 69.381 0 0012.658 1.174c17.635 0 35.269-6.712 48.694-20.137 3.905-3.905 3.905-10.237 0-14.142s-10.235-3.905-14.143 0c-10.92 10.92-25.765 15.568-40.037 13.97a115.005 115.005 0 0122.412-31.595c45.052-45.05 118.355-45.051 163.405 0l77.375 77.375a6.128 6.128 0 010 8.657L171.817 326.537z"/>
  <path d="M463.156 463.181a10.07 10.07 0 002.92-7.07c0-2.63-1.061-5.21-2.92-7.07a10.093 10.093 0 00-7.07-2.93c-2.64 0-5.21 1.07-7.07 2.93a10.033 10.033 0 00-2.93 7.07c0 2.63 1.06 5.21 2.93 7.07a10.06 10.06 0 007.07 2.93c2.63-.001 5.2-1.071 7.07-2.93zM413.543 86.355h9.908c5.522 0 10-4.477 10-10s-4.478-10-10-10h-9.908c-5.522 0-10 4.477-10 10s4.477 10 10 10zM483.634 86.355h9.908c5.522 0 10-4.477 10-10s-4.478-10-10-10h-9.908c-5.522 0-10 4.477-10 10s4.478 10 10 10zM453.543 126.355c5.522 0 10-4.477 10-10v-9.908c0-5.523-4.478-10-10-10s-10 4.477-10 10v9.908c0 5.523 4.477 10 10 10zM453.543 56.263c5.522 0 10-4.477 10-10v-9.908c0-5.523-4.478-10-10-10s-10 4.477-10 10v9.908c0 5.523 4.477 10 10 10zM76.327 403.57c-5.522 0-10 4.477-10 10v9.908c0 5.523 4.478 10 10 10s10-4.477 10-10v-9.908c0-5.523-4.478-10-10-10zM76.327 473.662c-5.522 0-10 4.477-10 10v9.908c0 5.523 4.478 10 10 10s10-4.477 10-10v-9.908c0-5.523-4.478-10-10-10zM116.327 443.57h-9.908c-5.522 0-10 4.477-10 10s4.478 10 10 10h9.908c5.522 0 10-4.477 10-10s-4.478-10-10-10zM46.236 443.57h-9.909c-5.522 0-10 4.477-10 10s4.478 10 10 10h9.909c5.522 0 10-4.477 10-10s-4.478-10-10-10z"/>
</svg>
