<svg xmlns="http://www.w3.org/2000/svg" viewBox="0 0 512 512">
  <g fill="#fdb954">
    <circle cx="45.321" cy="466.96" r="35.03"/>
    <circle cx="466.771" cy="45.505" r="35.03"/>
  </g>
  <path fill="#d0e6ef" d="M425.271 55.481L52.356 428.395l30.969 30.967 373.36-373.361z"/>
  <g fill="#6ea3d3">
    <path d="M453.038 149.551l-89.663-89.663c-6.841-6.841-17.933-6.841-24.775 0-6.841 6.841-6.841 17.933 0 24.775l89.663 89.663c6.841 6.841 17.933 6.841 24.775 0 6.841-6.841 6.841-17.933 0-24.775zM174.012 428.576L84.35 338.913c-6.841-6.841-17.933-6.841-24.775 0-6.841 6.841-6.841 17.933 0 24.775l89.663 89.663c6.841 6.841 17.933 6.841 24.775 0 6.841-6.842 6.841-17.934-.001-24.775zM277.906 142.413l71.526 102.15c7.032 10.043 21.426 11.302 30.095 2.633 6.766-6.766 7.698-17.414 2.209-25.253l-71.526-102.15c-7.032-10.043-21.426-11.302-30.095-2.633-6.767 6.767-7.698 17.415-2.209 25.253zM228.569 191.75l71.526 102.15c7.032 10.043 21.426 11.302 30.095 2.633 6.766-6.766 7.698-17.414 2.209-25.253l-71.526-102.15c-7.032-10.043-21.426-11.302-30.095-2.633-6.766 6.766-7.697 17.414-2.209 25.253zM179.424 240.895l71.526 102.15c7.032 10.043 21.426 11.302 30.095 2.633 6.766-6.766 7.698-17.414 2.209-25.253l-71.526-102.15c-7.032-10.043-21.426-11.302-30.095-2.633-6.766 6.767-7.697 17.415-2.209 25.253zM130.278 290.041l71.526 102.15c7.032 10.043 21.426 11.302 30.095 2.633 6.766-6.766 7.698-17.414 2.209-25.253l-71.526-102.15c-7.032-10.043-21.426-11.302-30.095-2.633-6.765 6.766-7.696 17.414-2.209 25.253z"/>
  </g>
  <path d="M466.409 90.062c.16.002.32.012.48.012 12.03 0 23.339-4.685 31.846-13.19 8.506-8.507 13.191-19.816 13.191-31.847 0-12.029-4.685-23.339-13.191-31.846C490.228 4.685 478.918 0 466.889 0s-23.339 4.685-31.846 13.19c-8.366 8.367-13.025 19.447-13.177 31.255-.208.177-.415.356-.612.553l-28.999 28.999-22.133-22.133c-10.729-10.728-28.187-10.729-38.917 0-5.197 5.198-8.06 12.108-8.06 19.459s2.862 14.261 8.06 19.458l19.588 19.588c-.162.143-.328.281-.483.436l-20.108 20.107-11.802-16.854a29.65 29.65 0 00-21.754-12.561 29.673 29.673 0 00-23.604 8.591 29.677 29.677 0 00-3.329 38.061v-.001l17.813 25.44-6.661 6.661-11.802-16.854a29.648 29.648 0 00-21.753-12.56 29.624 29.624 0 00-23.604 8.591 29.677 29.677 0 00-3.33 38.06l17.813 25.44-6.469 6.469-11.802-16.854a29.648 29.648 0 00-21.753-12.56 29.627 29.627 0 00-23.605 8.591 29.677 29.677 0 00-3.33 38.06l17.813 25.44-6.47 6.469-11.802-16.854a29.648 29.648 0 00-21.753-12.56 29.623 29.623 0 00-23.604 8.591 29.675 29.675 0 00-3.331 38.06l17.813 25.44-29.079 29.079c-.16.16-.303.33-.45.498l-18.951-18.951c-5.197-5.197-12.108-8.06-19.458-8.06s-14.261 2.862-19.458 8.06c-5.198 5.197-8.06 12.107-8.06 19.459 0 7.351 2.862 14.261 8.06 19.458l22.133 22.133-28.999 28.999c-.015.015-.028.032-.043.048-.16-.002-.32-.012-.48-.012-12.03 0-23.339 4.685-31.846 13.19C4.759 443.626.074 454.935.074 466.966c0 12.029 4.685 23.339 13.191 31.846C21.775 507.315 33.084 512 45.113 512s23.339-4.685 31.846-13.19c8.366-8.367 13.025-19.447 13.177-31.254.208-.177.415-.356.612-.553l28.999-28.999 22.419 22.419c5.197 5.197 12.108 8.06 19.458 8.06s14.261-2.862 19.458-8.06c5.198-5.197 8.06-12.107 8.06-19.459 0-7.351-2.862-14.261-8.06-19.458l-19.817-19.817c.168-.147.338-.29.497-.449l20.097-20.097 11.753 16.784a29.65 29.65 0 0021.754 12.561 29.645 29.645 0 0023.605-8.591 29.677 29.677 0 003.33-38.06l-17.765-25.371 6.469-6.47 11.753 16.785a29.65 29.65 0 0021.754 12.561 29.645 29.645 0 0023.605-8.591 29.676 29.676 0 003.329-38.06l-17.765-25.371 6.469-6.469 11.754 16.786a29.65 29.65 0 0021.754 12.559 29.645 29.645 0 0023.604-8.591 29.676 29.676 0 003.329-38.06l-17.764-25.37 6.66-6.661 11.753 16.785a29.648 29.648 0 0021.753 12.56 29.64 29.64 0 0023.604-8.591 29.675 29.675 0 003.331-38.06l-17.764-25.37 29.09-29.09c.155-.155.294-.32.436-.483l19.178 19.178c5.198 5.198 12.108 8.061 19.459 8.061 7.351 0 14.261-2.862 19.458-8.06 5.198-5.197 8.06-12.107 8.06-19.458s-2.862-14.261-8.06-19.459l-22.419-22.419 28.999-28.999c.017-.015.028-.032.044-.047zm-17.223-62.729C453.914 22.604 460.202 20 466.889 20s12.975 2.604 17.703 7.333c4.729 4.729 7.333 11.016 7.333 17.703 0 6.688-2.604 12.976-7.333 17.704-4.729 4.729-11.016 7.333-17.703 7.333s-12.975-2.604-17.703-7.333c-4.729-4.729-7.333-11.016-7.333-17.704 0-6.687 2.604-12.974 7.333-17.703zM62.816 484.667C58.089 489.396 51.801 492 45.113 492s-12.975-2.604-17.703-7.333c-4.729-4.729-7.333-11.016-7.333-17.703 0-6.688 2.604-12.976 7.333-17.704 4.729-4.729 11.016-7.333 17.703-7.333s12.975 2.604 17.703 7.333c4.729 4.729 7.333 11.016 7.333 17.704.002 6.687-2.603 12.974-7.333 17.703zm21.634-39.651a45.306 45.306 0 00-16.671-16.981l21-21 16.826 16.826-21.155 21.155zm82.491-9.369a7.468 7.468 0 012.202 5.315 7.467 7.467 0 01-2.202 5.316c-1.42 1.421-3.308 2.202-5.316 2.202s-3.896-.781-5.316-2.202l-60.456-60.456-.003-.003-.003-.003-29.201-29.201a7.468 7.468 0 01-2.202-5.315c0-2.009.782-3.896 2.202-5.316 1.42-1.421 3.308-2.202 5.316-2.202s3.896.781 5.316 2.202l89.663 89.663zm-19.32-48.551c-.16.16-.303.33-.449.497l-22.706-22.706c.168-.147.338-.29.497-.449l26.586-26.585 18.663 26.653-22.591 22.59zm77.208.657c-2.788 2.788-6.03 2.959-7.718 2.81-1.686-.147-4.853-.878-7.114-4.107l-71.526-102.149a9.705 9.705 0 011.089-12.446c2.788-2.79 6.032-2.961 7.719-2.81 1.686.147 4.852.877 7.113 4.106l71.527 102.151a9.703 9.703 0 01-1.09 12.445zm-11.942-65.924l-18.663-26.653 6.47-6.469 18.663 26.653-6.47 6.469zm61.087 16.778c-2.788 2.788-6.03 2.96-7.718 2.81-1.686-.147-4.853-.878-7.114-4.107l-71.527-102.15a9.705 9.705 0 011.089-12.446c2.788-2.79 6.032-2.958 7.719-2.81 1.686.147 4.852.877 7.113 4.106l71.526 102.151a9.703 9.703 0 01-1.088 12.446zm-11.941-65.924L243.37 246.03l6.469-6.469 18.663 26.653-6.469 6.469zm61.087 16.779c-2.787 2.788-6.03 2.96-7.719 2.81-1.686-.147-4.852-.877-7.114-4.106l-47.796-68.26a9.967 9.967 0 00-2.08-3.057c-.053-.053-.111-.097-.164-.148l-21.485-30.685a9.705 9.705 0 011.089-12.446c2.788-2.788 6.031-2.958 7.719-2.81 1.686.147 4.852.877 7.113 4.106l71.526 102.15a9.706 9.706 0 01-1.089 12.446zm-11.942-65.924l-18.663-26.653 6.661-6.661 18.663 26.653-6.661 6.661zm61.278 16.587c-2.788 2.789-6.035 2.96-7.719 2.81-1.686-.147-4.852-.877-7.113-4.106l-71.526-102.15v-.001a9.703 9.703 0 011.089-12.445c2.368-2.368 5.065-2.847 6.857-2.847.317 0 .607.015.861.037 1.686.147 4.853.878 7.114 4.107l71.526 102.149a9.705 9.705 0 01-1.089 12.446zm14.655-92.52l-26.596 26.596-18.663-26.653 22.601-22.6c.155-.155.294-.321.437-.483l22.704 22.704c-.163.143-.327.281-.483.436zm60.734 13.381a7.465 7.465 0 01-2.202 5.315c-1.42 1.421-3.308 2.202-5.316 2.202s-3.896-.781-5.316-2.202l-89.664-89.663a7.468 7.468 0 01-2.202-5.315c0-2.009.782-3.896 2.202-5.316 1.466-1.466 3.391-2.198 5.316-2.198s3.851.732 5.316 2.198l60.168 60.168.005.005.005.005 29.486 29.486a7.46 7.46 0 012.202 5.315zM406.398 88.14l21.156-21.155a45.306 45.306 0 0016.671 16.981l-21 21-16.827-16.826z"/>
</svg>
