<svg xmlns="http://www.w3.org/2000/svg" viewBox="0 0 512 512">
  <path d="M95 255.537H52.5c-23.472 0-42.5-19.028-42.5-42.5v-115c0-23.472 19.028-42.5 42.5-42.5h407c23.472 0 42.5 19.028 42.5 42.5v115c0 23.472-19.028 42.5-42.5 42.5H95z" fill="#8cceea"/>
  <path d="M502 378.461h-40.297l-32.071-226.298c-1.681-11.833-11.811-20.626-23.762-20.626h-45c-13.255 0-24 10.745-24 24s10.745 24 24 24h24.168l28.183 198.924H311.833l-32.071-226.298c-1.681-11.833-11.811-20.626-23.762-20.626h-45c-13.255 0-24 10.745-24 24s10.745 24 24 24h24.168l28.183 198.924h-98.518l-32.071-226.298c-1.681-11.833-11.811-20.626-23.762-20.626H64c-13.255 0-24 10.745-24 24s10.745 24 24 24h24.167l32.071 226.298c1.681 11.833 11.811 20.626 23.762 20.626h358v-48z" fill="#34bfe0"/>
  <path d="M512 213.037v-115c0-28.949-23.552-52.5-52.5-52.5H220c-5.522 0-10 4.477-10 10s4.478 10 10 10h239.5c17.921 0 32.5 14.58 32.5 32.5v115c0 17.92-14.579 32.5-32.5 32.5h-6.535l-13.433-94.78c-2.366-16.658-16.837-29.22-33.662-29.22h-45c-18.748 0-34 15.252-34 34s15.252 34 34 34h15.485l7.934 56h-81.194l-13.433-94.78c-2.365-16.658-16.837-29.22-33.662-29.22h-45c-18.748 0-34 15.252-34 34s15.252 34 34 34h15.484l7.934 56h-78.324l-13.433-94.78c-2.365-16.658-16.837-29.22-33.662-29.22H64c-18.748 0-34 15.252-34 34s15.252 34 34 34h15.484l7.937 56H52.5c-17.921 0-32.5-14.58-32.5-32.5v-115c0-17.92 14.579-32.5 32.5-32.5h58.833c5.522 0 10-4.477 10-10s-4.478-10-10-10H52.5c-28.948 0-52.5 23.551-52.5 52.5v115c0 28.949 23.552 52.5 52.5 52.5h37.755l20.083 141.704c2.365 16.658 16.837 29.22 33.662 29.22h248c5.522 0 10-4.478 10-10s-4.478-10-10-10H144c-6.928 0-12.887-5.173-13.86-12.029L98.068 178.134a10.001 10.001 0 00-9.901-8.597H64c-7.72 0-14-6.28-14-14s6.28-14 14-14h45c6.928 0 12.887 5.173 13.86 12.029l32.071 226.298a10 10 0 009.901 8.597h98.518a9.999 9.999 0 009.902-11.402l-28.183-198.924a10 10 0 00-9.901-8.597H211c-7.72 0-14-6.28-14-14s6.28-14 14-14h45c6.928 0 12.887 5.173 13.86 12.029l32.071 226.298a10 10 0 009.901 8.597H413.22a9.999 9.999 0 009.902-11.402l-28.183-198.924a10 10 0 00-9.901-8.597H360.87c-7.72 0-14-6.28-14-14s6.28-14 14-14h45c6.928 0 12.887 5.173 13.86 12.029l32.071 226.298a10 10 0 009.901 8.597H492v68c0 5.522 4.478 10 10 10s10-4.478 10-10V346.949c0-5.522-4.478-10-10-10s-10 4.478-10 10v21.512h-21.614l-14.587-102.924h3.701c28.948 0 52.5-23.551 52.5-52.5zM173.516 368.461l-14.587-102.924h78.323l14.582 102.924h-78.318zm147 0l-14.587-102.924h81.194l14.582 102.924h-81.189z"/>
  <path d="M166.542 65.537h.875c5.522 0 10-4.477 10-10s-4.478-10-10-10h-.875c-5.522 0-10 4.477-10 10s4.477 10 10 10zM445 416.459c-2.63 0-5.21 1.07-7.07 2.93-1.86 1.86-2.93 4.44-2.93 7.07s1.069 5.21 2.93 7.07c1.86 1.859 4.44 2.93 7.07 2.93s5.21-1.07 7.069-2.93c1.86-1.86 2.931-4.44 2.931-7.07s-1.07-5.21-2.931-7.07a10.072 10.072 0 00-7.069-2.93zM48.879 84.567h-.028c-5.51 0-9.984 4.459-9.999 9.973-.015 5.523 4.45 10.012 9.973 10.027h.208c5.51 0 9.984-4.459 9.999-9.973.015-5.523-4.45-10.012-9.973-10.027h-.18zM463.973 104.568h.028c5.51 0 9.984-4.459 9.999-9.973.015-5.523-4.45-10.012-9.973-10.027h-.207c-5.51 0-9.984 4.459-9.999 9.973-.015 5.523 4.45 10.012 9.973 10.027h.179zM255.973 104.568h.028c5.51 0 9.984-4.459 9.999-9.973.015-5.523-4.45-10.012-9.973-10.027h-.207c-5.51 0-9.984 4.459-9.999 9.973-.015 5.523 4.45 10.012 9.973 10.027h.179zM49.004 227.537h.028c5.51 0 9.984-4.459 9.999-9.973.015-5.523-4.45-10.012-9.973-10.027h-.208c-5.51 0-9.984 4.459-9.999 9.973-.015 5.523 4.45 10.012 9.973 10.027h.18zM463.794 227.537h.207c5.51 0 9.984-4.459 9.999-9.973.015-5.523-4.45-10.012-9.973-10.027h-.207c-5.51 0-9.984 4.459-9.999 9.973-.014 5.522 4.45 10.011 9.973 10.027z"/>
</svg>
