<svg viewBox="0 0 512 512" xmlns="http://www.w3.org/2000/svg">
  <path d="M405.059 239.11C396.64 164.132 333.05 106 256 106c-83.34 0-150 67.7-150 150 0 82.98 67.328 150 150 150 89.227 0 159.059-77.559 149.059-166.89zM256 502C121.59 502 10 393.437 10 256 10 120.316 119.8 10 256 10c135.863 0 246 109.867 246 246 0 134.41-108.563 246-246 246zm0 0" fill="#7c8388"/>
  <path d="M405.059 239.11l-90.399 29.378c-.879 4.133-2.219 8.07-3.898 11.84l55.886 76.934a150.339 150.339 0 01-48.507 35.297l-56.07-77.168c-2.032.21-3.993.609-6.071.609s-4.04-.398-6.07-.61l-56.07 77.169a150.339 150.339 0 01-48.508-35.297l55.886-76.934c-1.68-3.77-3.02-7.707-3.898-11.84L106.94 239.11a148.96 148.96 0 0118.54-57.07l90.62 29.45c3.04-2.727 6.348-5.098 9.899-7.169V109c9.691-1.969 19.73-3 30-3s20.309 1.031 30 3v95.32c3.55 2.07 6.86 4.442 9.898 7.168l90.622-29.449a148.96 148.96 0 0118.539 57.07zm0 0" fill="#deecf1"/>
  <path d="M271 256c0 8.285-6.715 15-15 15s-15-6.715-15-15 6.715-15 15-15 15 6.715 15 15zm0 0"/>
  <path d="M255 96.02C166.871 96.555 96 168.137 96 256c0 71.262 46.844 132.453 112.535 152.84 5.281 1.637 10.88-1.317 12.516-6.59s-1.313-10.875-6.586-12.512a146.125 146.125 0 01-4.985-1.664l45.13-62.11c.898.048 1.886.048 2.785 0l45.125 62.11a146.125 146.125 0 01-4.985 1.664c-5.273 1.637-8.223 7.239-6.586 12.512 1.64 5.293 7.254 8.219 12.516 6.59C369.258 388.422 416 327.152 416 256c0-88.203-71.652-160.527-161-159.98zm116.234 80.472L298 200.293a63.737 63.737 0 00-2-1.445v-77.043c30.523 9.078 57.066 28.375 75.234 54.687zM216 121.805v77.043c-.68.472-1.348.953-2 1.445l-73.234-23.8c18.164-26.313 44.71-45.606 75.234-54.688zm-99.953 130.78l73.012 23.727c.265.868.554 1.731.855 2.594l-45.129 62.117C126.148 316.695 116 286.945 116 256c0-1.137.02-2.277.047-3.414zm144.996 52.856c-1.984.207-3.856.559-5.043.559-1.102 0-3.207-.367-5.043-.559a10.017 10.017 0 00-9.117 4.07l-51.121 70.36a139.235 139.235 0 01-32.336-23.535l50.945-70.129a9.994 9.994 0 001.047-9.95c-1.469-3.292-2.563-6.605-3.254-9.85a10.004 10.004 0 00-6.691-7.427l-82.407-26.785a137.823 137.823 0 0112.36-38.047L213.008 221a10.004 10.004 0 009.773-2.07c2.438-2.188 5.215-4.2 8.258-5.973A10 10 0 00236 204.32v-86.89a142.588 142.588 0 0140 0v86.89a10 10 0 004.96 8.637c3.044 1.773 5.821 3.785 8.259 5.973a10 10 0 009.773 2.07l82.63-26.852a137.945 137.945 0 0112.355 38.047L311.57 258.98a9.997 9.997 0 00-6.691 7.426c-.692 3.246-1.785 6.559-3.254 9.852a9.994 9.994 0 001.047 9.949l50.945 70.129a139.153 139.153 0 01-32.336 23.535l-51.12-70.36a10.017 10.017 0 00-9.118-4.07zm106.172 35.582l-45.13-62.12c.306-.864.59-1.727.856-2.59l73.012-23.727c.027 1.137.047 2.277.047 3.414 0 30.941-10.145 60.695-28.785 85.023zm0 0"/>
  <path d="M256 0C114.758 0 0 114.305 0 256c0 140.23 112.96 256 256 256 141.75 0 256-114.723 256-256C512 114.566 397.54 0 256 0zm126.582 455.25l-7.922-13.723c-2.762-4.78-8.879-6.422-13.66-3.66-4.781 2.766-6.422 8.88-3.66 13.664l7.945 13.758c-30.523 15.973-64.484 25.031-99.285 26.492V476c0-5.523-4.477-10-10-10-5.52 0-10 4.477-10 10v15.781c-34.797-1.46-68.758-10.52-99.285-26.492l7.945-13.758a10.003 10.003 0 00-3.66-13.664c-4.781-2.762-10.898-1.12-13.66 3.66l-7.922 13.723a238.29 238.29 0 01-72.664-72.668l13.719-7.922c4.78-2.762 6.422-8.879 3.66-13.66a10.003 10.003 0 00-13.664-3.66l-13.758 7.945C30.738 334.762 21.676 300.801 20.219 266H36c5.523 0 10-4.477 10-10s-4.477-10-10-10H20.219c1.46-34.797 10.52-68.758 26.492-99.285l13.758 7.945c4.765 2.75 10.886 1.145 13.66-3.66 2.762-4.781 1.125-10.898-3.656-13.66l-13.723-7.926a238.377 238.377 0 0172.668-72.664l7.922 13.719c2.773 4.804 8.902 6.41 13.66 3.66 4.781-2.762 6.422-8.879 3.66-13.66l-7.945-13.762C177.238 30.738 211.199 21.676 246 20.219V36c0 5.523 4.477 10 10 10s10-4.477 10-10V20.223c35.105 1.453 68.836 10.55 99.281 26.496l-7.941 13.75c-2.762 4.781-1.125 10.898 3.66 13.66 4.773 2.758 10.895 1.133 13.66-3.656l7.93-13.739c28.277 18.043 53.512 42.664 72.66 72.684l-13.723 7.922c-4.78 2.762-6.418 8.879-3.656 13.66 2.77 4.797 8.89 6.414 13.66 3.66l13.758-7.945c15.973 30.523 25.031 64.484 26.492 99.285H476c-5.523 0-10 4.477-10 10s4.477 9.988 10 9.988h15.781c-1.46 34.797-10.52 68.77-26.492 99.297l-13.758-7.945c-4.785-2.762-10.898-1.121-13.66 3.66-2.762 4.781-1.125 10.898 3.656 13.66l13.723 7.926a238.377 238.377 0 01-72.668 72.664zm0 0"/>
  <path d="M266 406c0 5.523-4.477 10-10 10s-10-4.477-10-10 4.477-10 10-10 10 4.477 10 10zm0 0"/>
</svg>
