<svg xmlns="http://www.w3.org/2000/svg" viewBox="0 0 512 512">
  <circle cx="256.001" cy="255.991" r="246.011" fill="#6ea3d3"/>
  <circle cx="256.001" cy="255.991" r="192.009" fill="#f4f4f4"/>
  <path d="M448.009 255.995c0-10.904-.923-21.593-2.67-32.001h-112.08l79.253-79.253a193.173 193.173 0 00-45.257-45.257l-79.253 79.253V66.656c-10.408-1.746-21.097-2.67-32.001-2.67s-21.593.923-32.001 2.67v112.081l-79.253-79.253a193.173 193.173 0 00-45.257 45.257l79.253 79.253H66.661c-1.746 10.408-2.67 21.097-2.67 32.001s.923 21.593 2.67 32.001h112.081l-79.253 79.253a193.242 193.242 0 0045.257 45.257l79.253-79.253v112.081c10.408 1.746 21.097 2.67 32.001 2.67s21.593-.923 32.001-2.67V333.253l79.253 79.253a193.173 193.173 0 0045.257-45.257l-79.253-79.253H445.34a193.3 193.3 0 002.669-32.001z" fill="#657fc9"/>
  <path d="M89.116 89.111c77.353-77.356 196.493-91.627 289.728-34.703 4.715 2.878 10.868 1.391 13.747-3.324 2.878-4.714 1.39-10.868-3.324-13.747-48.163-29.404-105.741-42.092-162.13-35.73-28.189 3.181-55.424 10.935-80.943 23.047-26.405 12.533-50.367 29.461-71.221 50.314-41.637 41.637-67.807 96.775-73.691 155.254-5.802 57.661 8.219 116.075 39.48 164.483a9.99 9.99 0 008.41 4.576 9.953 9.953 0 005.415-1.601c4.64-2.996 5.972-9.186 2.976-13.826-59.84-92.663-46.571-216.621 31.553-294.743zM89.116 422.879c-3.906-3.904-10.236-3.904-14.144 0-3.905 3.905-3.905 10.237 0 14.144l.386.385a9.967 9.967 0 007.042 2.899 9.973 9.973 0 007.101-2.958c3.889-3.921 3.862-10.253-.059-14.144l-.326-.326zM471.476 117.652c-2.988-4.646-9.179-5.988-13.821-3-4.645 2.988-5.988 9.176-3 13.821 59.578 92.605 46.216 216.421-31.77 294.407-79.054 79.055-203.972 91.698-297.025 30.06-4.604-3.052-10.811-1.792-13.86 2.814-3.05 4.604-1.79 10.81 2.814 13.86 41.792 27.682 91.213 42.386 141.352 42.384 8.051 0 16.129-.38 24.189-1.146 59.031-5.608 114.672-31.828 156.673-73.829 41.582-41.583 67.745-96.645 73.669-155.045 5.841-57.575-8.089-115.935-39.221-164.326zM423.397 89.623a9.97 9.97 0 007.091 2.948c2.55 0 5.101-.97 7.052-2.909 3.916-3.895 3.934-10.227.039-14.144l-.551-.552c-3.906-3.904-10.236-3.904-14.144 0-3.905 3.905-3.905 10.237 0 14.144l.513.513z"/>
  <path d="M53.991 255.995c0 111.388 90.621 202.009 202.009 202.009s202.009-90.621 202.009-202.009S367.388 53.986 256 53.986 53.991 144.607 53.991 255.995zM214.18 78.842v76.19l-53.824-53.824a181.037 181.037 0 0153.824-22.366zm-112.966 81.509l53.824 53.824h-76.19c4.556-19.302 12.197-37.424 22.366-53.824zM78.848 297.814h76.19l-53.824 53.824c-10.169-16.399-17.81-34.521-22.366-53.824zM214.18 433.147a180.978 180.978 0 01-53.824-22.366l53.824-53.824v76.19zm83.639 0v-76.19l53.824 53.824a180.952 180.952 0 01-53.824 22.366zm112.967-81.508l-53.824-53.824h76.19a180.985 180.985 0 01-22.366 53.824zm22.366-137.464h-76.19l53.824-53.824a180.985 180.985 0 0122.366 53.824zm-34.005-70.472l-73.4 73.4a10.001 10.001 0 007.071 17.071h103.878c.859 7.156 1.313 14.435 1.313 21.818s-.454 14.663-1.313 21.818H332.818a10.001 10.001 0 00-7.071 17.071l73.4 73.4a183.644 183.644 0 01-30.855 30.855l-73.4-73.4a10.001 10.001 0 00-17.071 7.071v103.878a182.974 182.974 0 01-21.818 1.313c-7.383 0-14.663-.454-21.818-1.313V332.813a10.001 10.001 0 00-17.071-7.071l-73.4 73.4a183.57 183.57 0 01-30.855-30.855l73.4-73.4a10.001 10.001 0 00-7.071-17.071H75.304a182.974 182.974 0 01-1.313-21.818c0-7.383.454-14.663 1.313-21.818h103.878a10.001 10.001 0 007.071-17.071l-73.4-73.4a183.607 183.607 0 0130.855-30.855l73.401 73.397a9.998 9.998 0 0017.071-7.071V75.299c7.156-.859 14.435-1.313 21.818-1.313s14.663.454 21.818 1.313v103.878a10.001 10.001 0 0017.071 7.071l73.4-73.4a183.488 183.488 0 0130.86 30.855zM297.819 78.842a180.978 180.978 0 0153.824 22.366l-53.824 53.824v-76.19z"/>
  <path d="M256 225.994c-16.543 0-30.001 13.459-30.001 30.001 0 16.543 13.459 30.001 30.001 30.001s30.001-13.459 30.001-30.001c.001-16.542-13.458-30.001-30.001-30.001zm0 40.002c-5.514 0-10-4.486-10-10s4.486-10 10-10 10 4.486 10 10-4.485 10-10 10zM308.973 248.798l-.086.085c-3.928 3.883-3.964 10.215-.081 14.143a9.967 9.967 0 007.111 2.97c2.54 0 5.082-.962 7.03-2.889l.086-.085c3.928-3.883 3.964-10.215.081-14.143-3.883-3.927-10.215-3.963-14.141-.081zM263.112 308.881c-3.883-3.928-10.216-3.963-14.143-.081-3.928 3.883-3.964 10.215-.081 14.143l.085.086a9.967 9.967 0 007.111 2.97c2.54 0 5.082-.962 7.03-2.889 3.928-3.883 3.964-10.215.081-14.143l-.083-.086zM203.195 248.964c-3.882-3.927-10.215-3.963-14.143-.081l-.086.085c-3.928 3.883-3.964 10.215-.081 14.143a9.967 9.967 0 007.111 2.97c2.54 0 5.082-.962 7.03-2.889l.086-.085c3.93-3.883 3.966-10.216.083-14.143zM248.889 203.109a9.967 9.967 0 007.111 2.97c2.54 0 5.082-.962 7.03-2.889 3.928-3.883 3.964-10.215.081-14.143l-.085-.086c-3.882-3.927-10.215-3.963-14.143-.081-3.928 3.883-3.964 10.215-.081 14.143l.087.086zM298.488 288.363h-.12c-5.522 0-10 4.478-10 10s4.478 10 10 10h.12c5.522 0 10-4.478 10-10 .001-5.522-4.476-10-10-10zM213.632 288.363c-5.522 0-10 4.478-10 10v.12c0 5.522 4.478 10 10 10s10-4.478 10-10v-.12c.001-5.523-4.477-10-10-10zM213.632 203.626h-.12c-5.522 0-10 4.478-10 10s4.478 10 10 10h.12c5.522 0 10-4.478 10-10 .001-5.522-4.477-10-10-10zM298.368 223.627c5.522 0 10-4.478 10-10v-.12c0-5.522-4.478-10-10-10s-10 4.478-10 10v.12c0 5.523 4.478 10 10 10z"/>
</svg>
