<svg xmlns="http://www.w3.org/2000/svg" viewBox="0 0 512 512">
  <path d="M12.523 291.143l121.739-70.286L256 291.143v140.571L134.262 502 12.523 431.714z" fill="#66e0f7"/>
  <path d="M256 431.714V291.143l-121.738 70.285V502z" fill="#ccf5fc"/>
  <path d="M12.523 291.143l121.739 70.285L256 291.143l-121.738-70.286z" fill="#fffbdf"/>
  <g>
    <path d="M134.262 80.285L256 10l121.739 70.285v140.572L256 291.143l-121.738-70.286z" fill="#66e0f7"/>
    <path d="M377.739 220.857V80.286L256 150.571v140.572z" fill="#ccf5fc"/>
    <path d="M134.262 80.285L256 150.571l121.739-70.286L256 10z" fill="#fffbdf"/>
  </g>
  <g>
    <path d="M256 291.143l121.739-70.286 121.738 70.286v140.571L377.739 502 256 431.714z" fill="#66e0f7"/>
    <path d="M499.477 431.714V291.143l-121.738 70.285V502z" fill="#ccf5fc"/>
    <path d="M256 291.143l121.739 70.285 121.738-70.285-121.738-70.286z" fill="#fffbdf"/>
  </g>
  <g>
    <path d="M504.477 282.482l-116.738-67.399V80.285a9.999 9.999 0 00-5-8.66L261 1.34a10.002 10.002 0 00-10 0L129.262 71.625a9.999 9.999 0 00-5 8.66v134.798L7.523 282.482a9.999 9.999 0 00-5 8.66v140.572a9.999 9.999 0 005 8.66l121.739 70.286a9.994 9.994 0 0010 0L256 443.261l116.738 67.399a9.994 9.994 0 0010 0l121.738-70.286a9.999 9.999 0 005-8.66V291.142a9.997 9.997 0 00-4.999-8.66zm-126.738 67.4l-101.738-58.739 101.739-58.739 101.738 58.738zM134.262 232.404L236 291.143l-101.738 58.739-101.739-58.74zM246 156.344v117.477l-101.738-58.738V97.606zM144.262 367.202L246 308.463v117.478L144.262 484.68zM256 21.547l101.738 58.739-6.773 3.911c-4.783 2.761-6.422 8.877-3.66 13.66a9.996 9.996 0 0013.66 3.66l6.773-3.911v117.478L266 273.822V156.344l16.818-9.71c4.783-2.761 6.422-8.877 3.66-13.66-2.761-4.782-8.877-6.422-13.66-3.66L256 139.024 154.262 80.285zM22.523 308.463l101.739 58.739V484.68L22.523 425.941zm243.477 0l101.738 58.739V484.68L266 425.941zm121.739 176.216V367.202l101.738-58.739v117.478z"/>
    <path d="M316.87 125.429c2.63 0 5.21-1.07 7.069-2.93 1.86-1.86 2.931-4.44 2.931-7.07s-1.07-5.21-2.931-7.07a10.073 10.073 0 00-7.069-2.93c-2.63 0-5.21 1.07-7.07 2.93s-2.93 4.44-2.93 7.07 1.069 5.21 2.93 7.07a10.075 10.075 0 007.07 2.93z"/>
  </g>
</svg>
